<svg xmlns="http://www.w3.org/2000/svg" xmlns:xlink="http://www.w3.org/1999/xlink" width="240" zoomAndPan="magnify" viewBox="0 0 180 60" height="80" preserveAspectRatio="xMidYMid meet" version="1.0"><defs><g/><clipPath id="eec3052a0b"><path d="M 94 13.597656 L 135 13.597656 L 135 34 L 94 34 Z M 94 13.597656 " clip-rule="nonzero"/></clipPath><clipPath id="c8958f8f17"><path d="M 109.28125 33.578125 L 118.28125 33.578125 L 118.28125 42.578125 L 109.28125 42.578125 Z M 109.28125 33.578125 " clip-rule="nonzero"/></clipPath></defs><g fill="#0f711e" fill-opacity="1"><g transform="translate(0.941269, 47.637403)"><g><path d="M 2.578125 -35.5 L 15.28125 -35.5 C 18.6875 -35.5 21.460938 -34.585938 23.609375 -32.765625 C 25.765625 -30.941406 26.84375 -28.335938 26.84375 -24.953125 C 26.84375 -22.347656 26.191406 -20.160156 24.890625 -18.390625 C 23.585938 -16.628906 21.816406 -15.390625 19.578125 -14.671875 L 31.796875 0 L 21.515625 0 L 10.671875 -14.03125 L 10.671875 0 L 2.578125 0 Z M 10.671875 -19.75 L 11.625 -19.75 C 12.363281 -19.75 12.988281 -19.765625 13.5 -19.796875 C 14.019531 -19.828125 14.609375 -19.925781 15.265625 -20.09375 C 15.929688 -20.269531 16.460938 -20.515625 16.859375 -20.828125 C 17.265625 -21.140625 17.609375 -21.597656 17.890625 -22.203125 C 18.179688 -22.804688 18.328125 -23.535156 18.328125 -24.390625 C 18.328125 -25.253906 18.179688 -25.988281 17.890625 -26.59375 C 17.609375 -27.195312 17.265625 -27.65625 16.859375 -27.96875 C 16.460938 -28.28125 15.929688 -28.519531 15.265625 -28.6875 C 14.609375 -28.863281 14.019531 -28.96875 13.5 -29 C 12.988281 -29.03125 12.363281 -29.046875 11.625 -29.046875 L 10.671875 -29.046875 Z M 10.671875 -19.75 "/></g></g></g><g fill="#0f711e" fill-opacity="1"><g transform="translate(27.697415, 47.637403)"><g><path d="M 24.921875 -9.984375 L 8.90625 -9.984375 C 8.90625 -8.429688 9.40625 -7.28125 10.40625 -6.53125 C 11.414062 -5.789062 12.507812 -5.421875 13.6875 -5.421875 C 14.914062 -5.421875 15.890625 -5.582031 16.609375 -5.90625 C 17.328125 -6.238281 18.144531 -6.894531 19.0625 -7.875 L 24.578125 -5.125 C 22.273438 -1.28125 18.457031 0.640625 13.125 0.640625 C 9.800781 0.640625 6.945312 -0.5 4.5625 -2.78125 C 2.175781 -5.0625 0.984375 -7.804688 0.984375 -11.015625 C 0.984375 -14.222656 2.175781 -16.972656 4.5625 -19.265625 C 6.945312 -21.566406 9.800781 -22.71875 13.125 -22.71875 C 16.625 -22.71875 19.46875 -21.707031 21.65625 -19.6875 C 23.851562 -17.664062 24.953125 -14.773438 24.953125 -11.015625 C 24.953125 -10.492188 24.941406 -10.148438 24.921875 -9.984375 Z M 9.125 -14.203125 L 17.515625 -14.203125 C 17.335938 -15.347656 16.882812 -16.226562 16.15625 -16.84375 C 15.425781 -17.457031 14.488281 -17.765625 13.34375 -17.765625 C 12.082031 -17.765625 11.078125 -17.4375 10.328125 -16.78125 C 9.578125 -16.125 9.175781 -15.265625 9.125 -14.203125 Z M 9.125 -14.203125 "/></g></g></g><g fill="#0f711e" fill-opacity="1"><g transform="translate(49.592504, 47.637403)"><g><path d="M 2.578125 0 L 2.578125 -22.078125 L 10.203125 -22.078125 L 10.203125 -19.75 L 10.28125 -19.75 C 12.257812 -21.726562 14.367188 -22.71875 16.609375 -22.71875 C 17.703125 -22.71875 18.785156 -22.570312 19.859375 -22.28125 C 20.929688 -22 21.960938 -21.554688 22.953125 -20.953125 C 23.941406 -20.347656 24.742188 -19.492188 25.359375 -18.390625 C 25.984375 -17.285156 26.296875 -16.003906 26.296875 -14.546875 L 26.296875 0 L 18.671875 0 L 18.671875 -12.484375 C 18.671875 -13.628906 18.304688 -14.628906 17.578125 -15.484375 C 16.847656 -16.347656 15.894531 -16.78125 14.71875 -16.78125 C 13.570312 -16.78125 12.53125 -16.332031 11.59375 -15.4375 C 10.664062 -14.550781 10.203125 -13.566406 10.203125 -12.484375 L 10.203125 0 Z M 2.578125 0 "/></g></g></g><g fill="#0f711e" fill-opacity="1"><g transform="translate(73.982651, 47.637403)"><g><path d="M 0.34375 -28.40625 L 0.34375 -35.5 L 25.296875 -35.5 L 25.296875 -28.40625 L 16.875 -28.40625 L 16.875 0 L 8.78125 0 L 8.78125 -28.40625 Z M 0.34375 -28.40625 "/></g></g></g><g fill="#0f711e" fill-opacity="1"><g transform="translate(95.583238, 47.637403)"><g/></g></g><g fill="#0f711e" fill-opacity="1"><g transform="translate(103.282322, 47.637403)"><g/></g></g><g fill="#0f711e" fill-opacity="1"><g transform="translate(110.981406, 47.637403)"><g/></g></g><g fill="#0f711e" fill-opacity="1"><g transform="translate(118.68049, 47.637403)"><g/></g></g><g fill="#0f711e" fill-opacity="1"><g transform="translate(126.379574, 47.637403)"><g/></g></g><g fill="#0f711e" fill-opacity="1"><g transform="translate(134.082002, 47.637403)"><g><path d="M 10.671875 -35.5 L 10.671875 -7.09375 L 22.890625 -7.09375 L 22.890625 0 L 2.578125 0 L 2.578125 -35.5 Z M 10.671875 -35.5 "/></g></g></g><g clip-path="url(#eec3052a0b)"><path fill="#00bf63" d="M 133.832031 29.871094 L 115.519531 14.0625 C 115.507812 14.050781 115.496094 14.042969 115.484375 14.03125 C 115.453125 14.007812 115.425781 13.988281 115.394531 13.964844 C 115.375 13.949219 115.351562 13.933594 115.328125 13.917969 C 115.296875 13.898438 115.269531 13.878906 115.238281 13.863281 C 115.214844 13.847656 115.1875 13.832031 115.160156 13.816406 C 115.132812 13.804688 115.105469 13.789062 115.074219 13.777344 C 115.046875 13.761719 115.015625 13.75 114.988281 13.738281 C 114.960938 13.726562 114.933594 13.714844 114.90625 13.707031 C 114.875 13.695312 114.839844 13.683594 114.808594 13.675781 C 114.785156 13.667969 114.757812 13.660156 114.730469 13.65625 C 114.695312 13.644531 114.664062 13.636719 114.628906 13.632812 C 114.601562 13.625 114.578125 13.621094 114.550781 13.617188 C 114.515625 13.613281 114.480469 13.609375 114.449219 13.605469 C 114.421875 13.605469 114.390625 13.601562 114.363281 13.601562 C 114.332031 13.597656 114.300781 13.597656 114.265625 13.597656 C 114.238281 13.597656 114.207031 13.597656 114.179688 13.601562 C 114.148438 13.601562 114.117188 13.605469 114.085938 13.605469 C 114.054688 13.609375 114.023438 13.613281 113.992188 13.617188 C 113.964844 13.621094 113.933594 13.625 113.90625 13.632812 C 113.875 13.640625 113.84375 13.644531 113.8125 13.652344 C 113.78125 13.660156 113.753906 13.667969 113.726562 13.675781 C 113.695312 13.6875 113.664062 13.695312 113.636719 13.707031 C 113.605469 13.714844 113.578125 13.726562 113.546875 13.738281 C 113.519531 13.75 113.492188 13.761719 113.464844 13.773438 C 113.4375 13.789062 113.40625 13.804688 113.375 13.820312 C 113.351562 13.832031 113.328125 13.847656 113.300781 13.859375 C 113.269531 13.878906 113.238281 13.898438 113.210938 13.917969 C 113.1875 13.933594 113.167969 13.949219 113.144531 13.964844 C 113.113281 13.984375 113.085938 14.007812 113.054688 14.035156 C 113.042969 14.042969 113.03125 14.050781 113.019531 14.0625 L 107.015625 19.242188 L 107.015625 17.15625 C 107.015625 16.589844 106.550781 16.128906 105.984375 16.128906 L 102.4375 16.128906 C 101.871094 16.128906 101.40625 16.589844 101.40625 17.15625 L 101.40625 24.085938 L 94.707031 29.871094 C 93.90625 30.558594 93.816406 31.769531 94.507812 32.570312 C 94.886719 33.007812 95.421875 33.234375 95.960938 33.234375 C 96.402344 33.234375 96.847656 33.082031 97.207031 32.769531 L 114.269531 18.039062 L 131.328125 32.769531 C 131.691406 33.082031 132.136719 33.234375 132.582031 33.234375 C 133.117188 33.234375 133.652344 33.007812 134.03125 32.570312 C 134.722656 31.769531 134.632812 30.558594 133.832031 29.871094 " fill-opacity="1" fill-rule="nonzero"/></g><path fill="#00bf63" d="M 121.507812 34.722656 C 121.265625 37.273438 115.636719 42.050781 114.269531 44.511719 C 112.902344 42.050781 107.273438 37.273438 107.027344 34.722656 C 106.785156 32.171875 108.464844 30.566406 110.542969 30.566406 C 112.128906 30.566406 113.679688 31.855469 114.234375 33.363281 C 114.246094 33.402344 114.261719 33.464844 114.269531 33.539062 C 114.28125 33.464844 114.292969 33.402344 114.304688 33.363281 C 114.859375 31.855469 116.410156 30.566406 117.996094 30.566406 C 120.074219 30.566406 121.753906 32.171875 121.507812 34.722656 M 127.441406 31.878906 L 115.382812 21.472656 C 114.769531 20.941406 113.765625 20.941406 113.15625 21.472656 L 101.097656 31.878906 C 100.484375 32.410156 99.984375 33.503906 99.984375 34.316406 L 99.984375 46.390625 C 99.984375 47.203125 100.644531 47.867188 101.457031 47.867188 L 127.082031 47.867188 C 127.890625 47.867188 128.554688 47.203125 128.554688 46.390625 L 128.554688 34.316406 C 128.554688 33.503906 128.054688 32.410156 127.441406 31.878906 " fill-opacity="1" fill-rule="nonzero"/><g clip-path="url(#c8958f8f17)"><path fill="#00bf63" d="M 114.648438 36.15625 C 114.648438 35.769531 114.960938 35.457031 115.347656 35.457031 C 115.734375 35.457031 116.046875 35.769531 116.046875 36.15625 C 116.046875 36.542969 115.734375 36.855469 115.347656 36.855469 C 114.960938 36.855469 114.648438 36.542969 114.648438 36.15625 Z M 114.339844 39.203125 C 114.339844 39.527344 114.078125 39.785156 113.757812 39.785156 C 113.4375 39.785156 113.175781 39.527344 113.175781 39.203125 C 113.175781 38.882812 113.4375 38.625 113.757812 38.625 C 114.078125 38.625 114.339844 38.882812 114.339844 39.203125 Z M 112.960938 33.769531 C 113.40625 33.769531 113.769531 34.132812 113.769531 34.578125 C 113.769531 35.023438 113.40625 35.382812 112.960938 35.382812 C 112.515625 35.382812 112.152344 35.023438 112.152344 34.578125 C 112.152344 34.132812 112.515625 33.769531 112.960938 33.769531 Z M 117.9375 36.019531 C 117.863281 35.910156 117.746094 35.835938 117.617188 35.820312 C 117.488281 35.804688 117.359375 35.84375 117.261719 35.929688 C 116.558594 36.5625 116.269531 36.714844 115.984375 36.777344 C 116.140625 36.617188 116.238281 36.398438 116.238281 36.15625 C 116.238281 35.664062 115.839844 35.265625 115.347656 35.265625 C 114.855469 35.265625 114.457031 35.664062 114.457031 36.15625 C 114.457031 36.507812 114.660156 36.8125 114.953125 36.957031 C 114.941406 36.960938 114.925781 36.960938 114.910156 36.964844 L 114.679688 37.015625 C 114.417969 37.074219 114.226562 37.171875 114.101562 37.308594 L 114.070312 36.457031 C 114.0625 36.117188 113.855469 35.808594 113.542969 35.675781 L 113.226562 35.539062 C 113.648438 35.421875 113.960938 35.035156 113.960938 34.578125 C 113.960938 34.027344 113.511719 33.578125 112.960938 33.578125 C 112.410156 33.578125 111.964844 34.027344 111.964844 34.578125 C 111.964844 34.824219 112.054688 35.046875 112.203125 35.222656 C 111.191406 34.882812 110.5625 34.222656 110.257812 33.832031 C 110.167969 33.714844 110.035156 33.644531 109.890625 33.632812 C 109.742188 33.621094 109.597656 33.675781 109.488281 33.777344 C 109.316406 33.945312 109.28125 34.207031 109.40625 34.410156 C 109.671875 34.863281 110.289062 35.707031 111.414062 36.339844 L 111.414062 42.246094 C 111.414062 42.296875 111.457031 42.339844 111.507812 42.339844 C 111.5625 42.339844 111.605469 42.296875 111.605469 42.246094 L 111.605469 36.285156 C 111.605469 36.25 111.585938 36.21875 111.554688 36.199219 C 110.4375 35.585938 109.832031 34.753906 109.570312 34.3125 C 109.492188 34.183594 109.515625 34.019531 109.621094 33.914062 C 109.691406 33.851562 109.78125 33.816406 109.875 33.824219 C 109.96875 33.832031 110.050781 33.875 110.105469 33.949219 C 110.46875 34.417969 111.277344 35.246094 112.609375 35.53125 C 112.761719 35.566406 112.917969 35.617188 113.074219 35.683594 L 113.464844 35.851562 C 113.710938 35.957031 113.875 36.195312 113.878906 36.464844 L 113.953125 38.457031 C 113.890625 38.441406 113.824219 38.433594 113.757812 38.433594 C 113.332031 38.433594 112.984375 38.777344 112.984375 39.203125 C 112.984375 39.363281 113.03125 39.511719 113.117188 39.636719 C 112.847656 39.503906 112.640625 39.300781 112.496094 39.121094 C 112.414062 39.019531 112.292969 38.957031 112.160156 38.945312 C 112.03125 38.9375 111.90625 38.980469 111.808594 39.066406 C 111.625 39.234375 111.601562 39.507812 111.75 39.703125 C 111.988281 40.015625 112.347656 40.40625 112.726562 40.542969 L 112.691406 42.183594 C 112.6875 42.238281 112.730469 42.28125 112.78125 42.28125 C 112.785156 42.28125 112.785156 42.28125 112.785156 42.28125 C 112.835938 42.28125 112.878906 42.242188 112.878906 42.191406 L 112.917969 40.472656 C 112.921875 40.429688 112.890625 40.390625 112.847656 40.378906 C 112.472656 40.28125 112.09375 39.839844 111.898438 39.585938 C 111.8125 39.46875 111.828125 39.308594 111.9375 39.207031 C 111.992188 39.15625 112.070312 39.128906 112.148438 39.136719 C 112.226562 39.140625 112.296875 39.179688 112.347656 39.242188 C 112.617188 39.578125 113.082031 39.976562 113.757812 39.976562 C 114.433594 39.976562 114.894531 39.578125 115.167969 39.242188 C 115.214844 39.179688 115.289062 39.140625 115.367188 39.136719 C 115.445312 39.128906 115.519531 39.15625 115.578125 39.207031 C 115.6875 39.308594 115.703125 39.46875 115.613281 39.585938 C 115.417969 39.839844 115.039062 40.28125 114.664062 40.378906 C 114.621094 40.390625 114.59375 40.429688 114.59375 40.472656 L 114.632812 42.191406 C 114.632812 42.242188 114.675781 42.28125 114.726562 42.28125 C 114.730469 42.28125 114.730469 42.28125 114.730469 42.28125 C 114.785156 42.28125 114.824219 42.238281 114.824219 42.183594 L 114.785156 40.542969 C 115.167969 40.40625 115.527344 40.015625 115.765625 39.703125 C 115.914062 39.507812 115.886719 39.234375 115.707031 39.066406 C 115.609375 38.980469 115.484375 38.9375 115.351562 38.945312 C 115.222656 38.957031 115.097656 39.019531 115.015625 39.121094 C 114.871094 39.300781 114.667969 39.503906 114.398438 39.636719 C 114.480469 39.511719 114.53125 39.363281 114.53125 39.203125 C 114.53125 38.921875 114.375 38.671875 114.148438 38.539062 C 114.148438 38.535156 114.148438 38.53125 114.148438 38.523438 L 114.121094 37.832031 C 114.125 37.824219 114.128906 37.8125 114.128906 37.800781 C 114.117188 37.476562 114.296875 37.296875 114.722656 37.203125 L 114.953125 37.152344 C 115.179688 37.101562 115.429688 37.058594 115.714844 37.015625 L 115.769531 37.007812 C 116.195312 36.949219 116.449219 36.910156 117.390625 36.074219 C 117.445312 36.023438 117.519531 36 117.59375 36.011719 C 117.667969 36.019531 117.734375 36.0625 117.777344 36.125 C 117.855469 36.242188 117.808594 36.375 117.738281 36.460938 C 117.363281 36.921875 116.605469 37.527344 116.035156 37.703125 C 115.996094 37.71875 115.96875 37.753906 115.96875 37.796875 L 115.96875 38.65625 C 115.96875 38.671875 115.972656 38.6875 115.980469 38.703125 C 115.984375 38.710938 116.476562 39.589844 116.695312 40.898438 L 115.886719 40.898438 C 115.835938 40.898438 115.792969 40.941406 115.792969 40.992188 L 115.792969 42.1875 C 115.792969 42.238281 115.835938 42.28125 115.886719 42.28125 C 115.9375 42.28125 115.980469 42.238281 115.980469 42.1875 L 115.980469 41.085938 L 116.808594 41.085938 C 116.835938 41.085938 116.863281 41.074219 116.882812 41.054688 C 116.898438 41.035156 116.90625 41.003906 116.902344 40.976562 C 116.703125 39.675781 116.242188 38.785156 116.160156 38.632812 L 116.160156 37.863281 C 116.761719 37.652344 117.5 37.054688 117.886719 36.582031 C 118.027344 36.40625 118.046875 36.183594 117.9375 36.019531 " fill-opacity="1" fill-rule="nonzero"/></g><g fill="#0f711e" fill-opacity="1"><g transform="translate(154.826548, 45.182766)"><g><path d="M 14.484375 -33.609375 L 14.484375 -28.6875 C 15.691406 -28.53125 16.859375 -28.238281 17.984375 -27.8125 C 19.117188 -27.394531 19.953125 -27.015625 20.484375 -26.671875 L 21.296875 -26.171875 L 18.75 -21.15625 C 18.539062 -21.289062 18.253906 -21.460938 17.890625 -21.671875 C 17.523438 -21.878906 16.84375 -22.15625 15.84375 -22.5 C 14.84375 -22.851562 13.925781 -23.03125 13.09375 -23.03125 C 12 -23.03125 11.171875 -22.816406 10.609375 -22.390625 C 10.054688 -21.960938 9.78125 -21.351562 9.78125 -20.5625 C 9.78125 -20.1875 9.898438 -19.828125 10.140625 -19.484375 C 10.378906 -19.148438 10.816406 -18.800781 11.453125 -18.4375 C 12.097656 -18.082031 12.640625 -17.804688 13.078125 -17.609375 C 13.523438 -17.410156 14.273438 -17.09375 15.328125 -16.65625 C 15.367188 -16.625 15.40625 -16.601562 15.4375 -16.59375 C 15.476562 -16.582031 15.519531 -16.566406 15.5625 -16.546875 C 17.351562 -15.773438 18.890625 -14.734375 20.171875 -13.421875 C 21.453125 -12.109375 22.09375 -10.613281 22.09375 -8.9375 C 22.09375 -6.375 21.398438 -4.382812 20.015625 -2.96875 C 18.628906 -1.550781 16.785156 -0.644531 14.484375 -0.25 L 14.484375 4.8125 L 10.71875 4.8125 L 10.71875 0 C 9.601562 -0.0703125 8.507812 -0.238281 7.4375 -0.5 C 6.363281 -0.769531 5.46875 -1.078125 4.75 -1.421875 C 4.03125 -1.773438 3.382812 -2.117188 2.8125 -2.453125 C 2.238281 -2.796875 1.8125 -3.082031 1.53125 -3.3125 L 1.15625 -3.671875 L 4.328125 -8.96875 C 4.609375 -8.738281 4.976562 -8.445312 5.4375 -8.09375 C 5.90625 -7.75 6.742188 -7.285156 7.953125 -6.703125 C 9.171875 -6.117188 10.242188 -5.828125 11.171875 -5.828125 C 13.828125 -5.828125 15.15625 -6.734375 15.15625 -8.546875 C 15.15625 -8.941406 15.054688 -9.304688 14.859375 -9.640625 C 14.660156 -9.984375 14.320312 -10.3125 13.84375 -10.625 C 13.363281 -10.9375 12.9375 -11.191406 12.5625 -11.390625 C 12.1875 -11.585938 11.585938 -11.878906 10.765625 -12.265625 C 9.941406 -12.648438 9.320312 -12.945312 8.90625 -13.15625 C 7.226562 -14 5.921875 -15.039062 4.984375 -16.28125 C 4.054688 -17.53125 3.59375 -18.875 3.59375 -20.3125 C 3.59375 -22.382812 4.285156 -24.171875 5.671875 -25.671875 C 7.054688 -27.171875 8.738281 -28.144531 10.71875 -28.59375 L 10.71875 -33.609375 Z M 14.484375 -33.609375 "/></g></g></g></svg>