<svg xmlns="http://www.w3.org/2000/svg" xmlns:xlink="http://www.w3.org/1999/xlink" width="220" zoomAndPan="magnify" viewBox="0 0 165 52.499999" height="70" preserveAspectRatio="xMidYMid meet" version="1.0"><defs><g/><clipPath id="40aced893b"><path d="M 86.203125 10.320312 L 124 10.320312 L 124 29 L 86.203125 29 Z M 86.203125 10.320312 " clip-rule="nonzero"/></clipPath><clipPath id="6deb607fd1"><path d="M 91 17 L 119 17 L 119 41.523438 L 91 41.523438 Z M 91 17 " clip-rule="nonzero"/></clipPath><clipPath id="85934bff36"><path d="M 100.421875 28.671875 L 109.335938 28.671875 L 109.335938 37.589844 L 100.421875 37.589844 Z M 100.421875 28.671875 " clip-rule="nonzero"/></clipPath></defs><g fill="#0c9d57" fill-opacity="1"><g transform="translate(0.900024, 41.589627)"><g><path d="M 2.375 -32.609375 L 14.03125 -32.609375 C 17.164062 -32.609375 19.722656 -31.769531 21.703125 -30.09375 C 23.679688 -28.425781 24.671875 -26.035156 24.671875 -22.921875 C 24.671875 -20.523438 24.066406 -18.515625 22.859375 -16.890625 C 21.660156 -15.273438 20.035156 -14.140625 17.984375 -13.484375 L 29.21875 0 L 19.765625 0 L 9.796875 -12.890625 L 9.796875 0 L 2.375 0 Z M 9.796875 -18.140625 L 10.671875 -18.140625 C 11.359375 -18.140625 11.9375 -18.148438 12.40625 -18.171875 C 12.882812 -18.203125 13.425781 -18.296875 14.03125 -18.453125 C 14.632812 -18.617188 15.117188 -18.84375 15.484375 -19.125 C 15.859375 -19.414062 16.175781 -19.835938 16.4375 -20.390625 C 16.707031 -20.953125 16.84375 -21.625 16.84375 -22.40625 C 16.84375 -23.195312 16.707031 -23.867188 16.4375 -24.421875 C 16.175781 -24.984375 15.859375 -25.40625 15.484375 -25.6875 C 15.117188 -25.976562 14.632812 -26.203125 14.03125 -26.359375 C 13.425781 -26.523438 12.882812 -26.617188 12.40625 -26.640625 C 11.9375 -26.671875 11.359375 -26.6875 10.671875 -26.6875 L 9.796875 -26.6875 Z M 9.796875 -18.140625 "/></g></g></g><g fill="#0c9d57" fill-opacity="1"><g transform="translate(25.478056, 41.589627)"><g><path d="M 22.890625 -9.171875 L 8.1875 -9.171875 C 8.1875 -7.742188 8.644531 -6.6875 9.5625 -6 C 10.488281 -5.320312 11.492188 -4.984375 12.578125 -4.984375 C 13.703125 -4.984375 14.59375 -5.132812 15.25 -5.4375 C 15.914062 -5.738281 16.671875 -6.335938 17.515625 -7.234375 L 22.578125 -4.703125 C 20.460938 -1.171875 16.957031 0.59375 12.0625 0.59375 C 9 0.59375 6.375 -0.453125 4.1875 -2.546875 C 2 -4.640625 0.90625 -7.160156 0.90625 -10.109375 C 0.90625 -13.066406 2 -15.597656 4.1875 -17.703125 C 6.375 -19.816406 9 -20.875 12.0625 -20.875 C 15.269531 -20.875 17.878906 -19.941406 19.890625 -18.078125 C 21.910156 -16.222656 22.921875 -13.570312 22.921875 -10.125 C 22.921875 -9.644531 22.910156 -9.328125 22.890625 -9.171875 Z M 8.375 -13.046875 L 16.09375 -13.046875 C 15.9375 -14.097656 15.519531 -14.90625 14.84375 -15.46875 C 14.164062 -16.039062 13.300781 -16.328125 12.25 -16.328125 C 11.09375 -16.328125 10.171875 -16.023438 9.484375 -15.421875 C 8.796875 -14.816406 8.425781 -14.023438 8.375 -13.046875 Z M 8.375 -13.046875 "/></g></g></g><g fill="#0c9d57" fill-opacity="1"><g transform="translate(45.590751, 41.589627)"><g><path d="M 2.375 0 L 2.375 -20.28125 L 9.375 -20.28125 L 9.375 -18.140625 L 9.453125 -18.140625 C 11.265625 -19.960938 13.203125 -20.875 15.265625 -20.875 C 16.265625 -20.875 17.253906 -20.738281 18.234375 -20.46875 C 19.222656 -20.207031 20.171875 -19.800781 21.078125 -19.25 C 21.992188 -18.695312 22.734375 -17.910156 23.296875 -16.890625 C 23.867188 -15.878906 24.15625 -14.703125 24.15625 -13.359375 L 24.15625 0 L 17.15625 0 L 17.15625 -11.46875 C 17.15625 -12.519531 16.816406 -13.441406 16.140625 -14.234375 C 15.472656 -15.023438 14.597656 -15.421875 13.515625 -15.421875 C 12.460938 -15.421875 11.507812 -15.007812 10.65625 -14.1875 C 9.800781 -13.375 9.375 -12.46875 9.375 -11.46875 L 9.375 0 Z M 2.375 0 "/></g></g></g><g fill="#0c9d57" fill-opacity="1"><g transform="translate(67.995391, 41.589627)"><g><path d="M 0.3125 -26.09375 L 0.3125 -32.609375 L 23.25 -32.609375 L 23.25 -26.09375 L 15.5 -26.09375 L 15.5 0 L 8.0625 0 L 8.0625 -26.09375 Z M 0.3125 -26.09375 "/></g></g></g><g fill="#0c9d57" fill-opacity="1"><g transform="translate(87.837558, 41.589627)"><g/></g></g><g fill="#0c9d57" fill-opacity="1"><g transform="translate(94.909889, 41.589627)"><g/></g></g><g fill="#0c9d57" fill-opacity="1"><g transform="translate(101.982221, 41.589627)"><g/></g></g><g fill="#0c9d57" fill-opacity="1"><g transform="translate(109.054552, 41.589627)"><g/></g></g><g fill="#0c9d57" fill-opacity="1"><g transform="translate(116.126884, 41.589627)"><g/></g></g><g fill="#0c9d57" fill-opacity="1"><g transform="translate(123.202288, 41.589627)"><g><path d="M 9.796875 -32.609375 L 9.796875 -6.515625 L 21.03125 -6.515625 L 21.03125 0 L 2.375 0 L 2.375 -32.609375 Z M 9.796875 -32.609375 "/></g></g></g><g clip-path="url(#40aced893b)"><path fill="#086639" d="M 122.972656 25.269531 L 106.148438 10.746094 C 106.136719 10.738281 106.125 10.730469 106.117188 10.71875 C 106.089844 10.699219 106.0625 10.679688 106.035156 10.660156 C 106.015625 10.644531 105.992188 10.628906 105.972656 10.613281 C 105.945312 10.597656 105.917969 10.578125 105.890625 10.5625 C 105.867188 10.550781 105.84375 10.535156 105.820312 10.523438 C 105.792969 10.511719 105.769531 10.496094 105.742188 10.484375 C 105.714844 10.472656 105.6875 10.460938 105.660156 10.449219 C 105.636719 10.441406 105.609375 10.429688 105.585938 10.421875 C 105.554688 10.410156 105.527344 10.402344 105.496094 10.394531 C 105.472656 10.386719 105.449219 10.378906 105.425781 10.375 C 105.394531 10.367188 105.363281 10.359375 105.332031 10.351562 C 105.308594 10.347656 105.28125 10.34375 105.257812 10.339844 C 105.226562 10.335938 105.195312 10.332031 105.164062 10.328125 C 105.140625 10.328125 105.113281 10.324219 105.089844 10.324219 C 105.058594 10.324219 105.027344 10.320312 105 10.320312 C 104.972656 10.320312 104.945312 10.324219 104.917969 10.324219 C 104.890625 10.324219 104.859375 10.328125 104.832031 10.328125 C 104.804688 10.332031 104.773438 10.335938 104.746094 10.339844 C 104.71875 10.34375 104.695312 10.347656 104.667969 10.351562 C 104.636719 10.359375 104.609375 10.367188 104.578125 10.371094 C 104.554688 10.378906 104.527344 10.386719 104.5 10.394531 C 104.472656 10.402344 104.445312 10.410156 104.417969 10.421875 C 104.390625 10.429688 104.363281 10.441406 104.339844 10.449219 C 104.3125 10.460938 104.289062 10.472656 104.261719 10.484375 C 104.234375 10.496094 104.207031 10.511719 104.179688 10.523438 C 104.15625 10.535156 104.132812 10.550781 104.113281 10.5625 C 104.082031 10.578125 104.054688 10.597656 104.027344 10.617188 C 104.007812 10.628906 103.988281 10.644531 103.964844 10.65625 C 103.9375 10.675781 103.910156 10.699219 103.886719 10.722656 C 103.875 10.730469 103.863281 10.738281 103.851562 10.746094 L 98.335938 15.507812 L 98.335938 13.59375 C 98.335938 13.070312 97.910156 12.644531 97.390625 12.644531 L 94.128906 12.644531 C 93.609375 12.644531 93.183594 13.070312 93.183594 13.59375 L 93.183594 19.957031 L 87.027344 25.269531 C 86.292969 25.90625 86.210938 27.015625 86.84375 27.75 C 87.191406 28.15625 87.683594 28.363281 88.179688 28.363281 C 88.585938 28.363281 88.992188 28.21875 89.328125 27.933594 L 105 14.402344 L 120.675781 27.933594 C 121.007812 28.21875 121.417969 28.363281 121.824219 28.363281 C 122.316406 28.363281 122.808594 28.15625 123.15625 27.75 C 123.789062 27.015625 123.710938 25.90625 122.972656 25.269531 " fill-opacity="1" fill-rule="nonzero"/></g><g clip-path="url(#6deb607fd1)"><path fill="#086639" d="M 111.652344 29.730469 C 111.429688 32.074219 106.257812 36.460938 105 38.722656 C 103.742188 36.460938 98.574219 32.074219 98.347656 29.730469 C 98.125 27.382812 99.667969 25.914062 101.574219 25.914062 C 103.035156 25.914062 104.460938 27.09375 104.96875 28.480469 C 104.980469 28.515625 104.992188 28.574219 105 28.640625 C 105.011719 28.574219 105.023438 28.515625 105.035156 28.480469 C 105.542969 27.09375 106.96875 25.914062 108.425781 25.914062 C 110.332031 25.914062 111.875 27.382812 111.652344 29.730469 M 117.101562 27.117188 L 106.027344 17.554688 C 105.460938 17.070312 104.539062 17.070312 103.976562 17.554688 L 92.898438 27.117188 C 92.335938 27.605469 91.875 28.613281 91.875 29.355469 L 91.875 40.449219 C 91.875 41.195312 92.484375 41.804688 93.230469 41.804688 L 116.773438 41.804688 C 117.515625 41.804688 118.125 41.195312 118.125 40.449219 L 118.125 29.355469 C 118.125 28.613281 117.664062 27.605469 117.101562 27.117188 " fill-opacity="1" fill-rule="nonzero"/></g><g clip-path="url(#85934bff36)"><path fill="#086639" d="M 106.019531 31.367188 C 106.019531 30.964844 106.347656 30.636719 106.75 30.636719 C 107.152344 30.636719 107.480469 30.964844 107.480469 31.367188 C 107.480469 31.769531 107.152344 32.097656 106.75 32.097656 C 106.347656 32.097656 106.019531 31.769531 106.019531 31.367188 Z M 105.699219 34.546875 C 105.699219 34.882812 105.425781 35.152344 105.089844 35.152344 C 104.753906 35.152344 104.484375 34.882812 104.484375 34.546875 C 104.484375 34.210938 104.753906 33.941406 105.089844 33.941406 C 105.425781 33.941406 105.699219 34.210938 105.699219 34.546875 Z M 104.261719 28.875 C 104.726562 28.875 105.105469 29.25 105.105469 29.714844 C 105.105469 30.179688 104.726562 30.558594 104.261719 30.558594 C 103.796875 30.558594 103.417969 30.179688 103.417969 29.714844 C 103.417969 29.25 103.796875 28.875 104.261719 28.875 Z M 109.453125 31.222656 C 109.375 31.109375 109.253906 31.03125 109.117188 31.015625 C 108.984375 31 108.847656 31.039062 108.746094 31.128906 C 108.011719 31.789062 107.710938 31.949219 107.414062 32.015625 C 107.578125 31.847656 107.679688 31.617188 107.679688 31.367188 C 107.679688 30.851562 107.261719 30.4375 106.75 30.4375 C 106.238281 30.4375 105.820312 30.851562 105.820312 31.367188 C 105.820312 31.730469 106.03125 32.046875 106.339844 32.199219 C 106.324219 32.203125 106.308594 32.207031 106.292969 32.210938 L 106.054688 32.261719 C 105.78125 32.324219 105.582031 32.425781 105.453125 32.566406 L 105.417969 31.679688 C 105.410156 31.324219 105.191406 31.003906 104.867188 30.863281 L 104.535156 30.722656 C 104.976562 30.601562 105.304688 30.195312 105.304688 29.714844 C 105.304688 29.140625 104.835938 28.675781 104.261719 28.675781 C 103.6875 28.675781 103.21875 29.140625 103.21875 29.714844 C 103.21875 29.972656 103.3125 30.210938 103.46875 30.390625 C 102.414062 30.035156 101.757812 29.347656 101.4375 28.9375 C 101.347656 28.820312 101.207031 28.742188 101.054688 28.734375 C 100.902344 28.722656 100.75 28.777344 100.636719 28.882812 C 100.457031 29.058594 100.421875 29.328125 100.550781 29.542969 C 100.828125 30.015625 101.472656 30.898438 102.644531 31.558594 L 102.644531 37.71875 C 102.644531 37.773438 102.691406 37.820312 102.746094 37.820312 C 102.800781 37.820312 102.84375 37.773438 102.84375 37.71875 L 102.84375 31.5 C 102.84375 31.460938 102.824219 31.429688 102.792969 31.410156 C 101.628906 30.773438 100.996094 29.902344 100.71875 29.441406 C 100.640625 29.308594 100.664062 29.136719 100.777344 29.027344 C 100.847656 28.960938 100.941406 28.925781 101.039062 28.933594 C 101.136719 28.9375 101.222656 28.984375 101.28125 29.058594 C 101.660156 29.550781 102.5 30.417969 103.894531 30.714844 C 104.054688 30.75 104.214844 30.800781 104.378906 30.871094 L 104.789062 31.046875 C 105.042969 31.15625 105.210938 31.40625 105.21875 31.6875 L 105.296875 33.765625 C 105.230469 33.75 105.160156 33.742188 105.089844 33.742188 C 104.644531 33.742188 104.285156 34.101562 104.285156 34.546875 C 104.285156 34.714844 104.335938 34.867188 104.421875 34.996094 C 104.140625 34.859375 103.925781 34.648438 103.773438 34.460938 C 103.6875 34.355469 103.5625 34.285156 103.425781 34.277344 C 103.289062 34.265625 103.15625 34.3125 103.054688 34.402344 C 102.867188 34.578125 102.839844 34.863281 102.996094 35.066406 C 103.246094 35.394531 103.617188 35.800781 104.015625 35.941406 L 103.976562 37.65625 C 103.976562 37.710938 104.019531 37.757812 104.074219 37.757812 C 104.074219 37.757812 104.074219 37.757812 104.078125 37.757812 C 104.128906 37.757812 104.175781 37.714844 104.175781 37.660156 L 104.21875 35.871094 C 104.21875 35.824219 104.1875 35.785156 104.140625 35.773438 C 103.75 35.671875 103.355469 35.210938 103.152344 34.945312 C 103.0625 34.824219 103.078125 34.65625 103.191406 34.550781 C 103.25 34.496094 103.328125 34.46875 103.410156 34.476562 C 103.492188 34.480469 103.566406 34.519531 103.621094 34.585938 C 103.902344 34.9375 104.386719 35.351562 105.089844 35.351562 C 105.796875 35.351562 106.28125 34.9375 106.5625 34.585938 C 106.613281 34.519531 106.6875 34.480469 106.769531 34.476562 C 106.851562 34.46875 106.929688 34.496094 106.992188 34.550781 C 107.105469 34.65625 107.121094 34.824219 107.027344 34.945312 C 106.824219 35.210938 106.429688 35.671875 106.039062 35.773438 C 105.992188 35.785156 105.964844 35.824219 105.964844 35.871094 L 106.003906 37.660156 C 106.007812 37.714844 106.050781 37.757812 106.105469 37.757812 C 106.160156 37.757812 106.207031 37.710938 106.203125 37.65625 L 106.164062 35.941406 C 106.5625 35.800781 106.9375 35.394531 107.1875 35.066406 C 107.339844 34.863281 107.316406 34.578125 107.125 34.402344 C 107.023438 34.3125 106.890625 34.265625 106.753906 34.277344 C 106.617188 34.285156 106.492188 34.355469 106.40625 34.460938 C 106.253906 34.648438 106.039062 34.859375 105.757812 34.996094 C 105.847656 34.867188 105.898438 34.714844 105.898438 34.546875 C 105.898438 34.25 105.738281 33.992188 105.5 33.851562 C 105.5 33.847656 105.5 33.84375 105.5 33.835938 L 105.472656 33.113281 C 105.476562 33.105469 105.476562 33.09375 105.476562 33.082031 C 105.46875 32.742188 105.652344 32.558594 106.097656 32.457031 L 106.335938 32.40625 C 106.574219 32.351562 106.835938 32.304688 107.132812 32.261719 L 107.191406 32.253906 C 107.632812 32.191406 107.902344 32.152344 108.878906 31.277344 C 108.9375 31.226562 109.015625 31.203125 109.09375 31.214844 C 109.171875 31.222656 109.242188 31.265625 109.285156 31.332031 C 109.367188 31.453125 109.316406 31.59375 109.246094 31.683594 C 108.855469 32.164062 108.0625 32.796875 107.46875 32.980469 C 107.425781 32.992188 107.398438 33.03125 107.398438 33.078125 L 107.398438 33.972656 C 107.398438 33.992188 107.402344 34.007812 107.410156 34.023438 C 107.417969 34.03125 107.929688 34.949219 108.160156 36.3125 L 107.3125 36.3125 C 107.257812 36.3125 107.214844 36.355469 107.214844 36.410156 L 107.214844 37.660156 C 107.214844 37.714844 107.257812 37.757812 107.3125 37.757812 C 107.367188 37.757812 107.414062 37.714844 107.414062 37.660156 L 107.414062 36.511719 L 108.277344 36.511719 C 108.304688 36.511719 108.332031 36.5 108.351562 36.476562 C 108.371094 36.453125 108.378906 36.425781 108.375 36.398438 C 108.164062 35.039062 107.683594 34.109375 107.597656 33.949219 L 107.597656 33.148438 C 108.226562 32.925781 108.996094 32.304688 109.398438 31.808594 C 109.546875 31.625 109.566406 31.394531 109.453125 31.222656 " fill-opacity="1" fill-rule="nonzero"/></g><g fill="#0c9d57" fill-opacity="1"><g transform="translate(140.815791, 41.519249)"><g><path d="M 14.234375 -33.03125 L 14.234375 -28.1875 C 15.421875 -28.03125 16.566406 -27.742188 17.671875 -27.328125 C 18.785156 -26.921875 19.601562 -26.546875 20.125 -26.203125 L 20.921875 -25.71875 L 18.421875 -20.78125 C 18.210938 -20.914062 17.929688 -21.085938 17.578125 -21.296875 C 17.222656 -21.503906 16.550781 -21.78125 15.5625 -22.125 C 14.582031 -22.46875 13.679688 -22.640625 12.859375 -22.640625 C 11.785156 -22.640625 10.972656 -22.425781 10.421875 -22 C 9.878906 -21.570312 9.609375 -20.972656 9.609375 -20.203125 C 9.609375 -19.835938 9.726562 -19.488281 9.96875 -19.15625 C 10.207031 -18.820312 10.640625 -18.476562 11.265625 -18.125 C 11.890625 -17.769531 12.421875 -17.492188 12.859375 -17.296875 C 13.296875 -17.109375 14.03125 -16.796875 15.0625 -16.359375 C 15.101562 -16.335938 15.140625 -16.320312 15.171875 -16.3125 C 15.210938 -16.300781 15.253906 -16.28125 15.296875 -16.25 C 17.054688 -15.5 18.5625 -14.476562 19.8125 -13.1875 C 21.070312 -11.894531 21.703125 -10.425781 21.703125 -8.78125 C 21.703125 -6.257812 21.019531 -4.300781 19.65625 -2.90625 C 18.300781 -1.519531 16.492188 -0.628906 14.234375 -0.234375 L 14.234375 4.734375 L 10.53125 4.734375 L 10.53125 0 C 9.4375 -0.0703125 8.363281 -0.238281 7.3125 -0.5 C 6.257812 -0.757812 5.375 -1.0625 4.65625 -1.40625 C 3.945312 -1.75 3.3125 -2.085938 2.75 -2.421875 C 2.195312 -2.753906 1.785156 -3.035156 1.515625 -3.265625 L 1.125 -3.59375 L 4.25 -8.8125 C 4.53125 -8.582031 4.894531 -8.296875 5.34375 -7.953125 C 5.800781 -7.609375 6.625 -7.148438 7.8125 -6.578125 C 9.007812 -6.015625 10.0625 -5.734375 10.96875 -5.734375 C 13.582031 -5.734375 14.890625 -6.625 14.890625 -8.40625 C 14.890625 -8.789062 14.789062 -9.148438 14.59375 -9.484375 C 14.394531 -9.816406 14.0625 -10.132812 13.59375 -10.4375 C 13.125 -10.75 12.707031 -11 12.34375 -11.1875 C 11.976562 -11.382812 11.390625 -11.671875 10.578125 -12.046875 C 9.765625 -12.429688 9.15625 -12.726562 8.75 -12.9375 C 7.101562 -13.757812 5.820312 -14.78125 4.90625 -16 C 3.988281 -17.21875 3.53125 -18.535156 3.53125 -19.953125 C 3.53125 -21.992188 4.207031 -23.75 5.5625 -25.21875 C 6.925781 -26.695312 8.582031 -27.65625 10.53125 -28.09375 L 10.53125 -33.03125 Z M 14.234375 -33.03125 "/></g></g></g></svg>