<svg xmlns="http://www.w3.org/2000/svg" xmlns:xlink="http://www.w3.org/1999/xlink" width="320" zoomAndPan="magnify" viewBox="0 0 240 74.999997" height="100" preserveAspectRatio="xMidYMid meet" version="1.0"><defs><g/><clipPath id="869ffd06d3"><path d="M 118 10.554688 L 177.90625 10.554688 L 177.90625 40 L 118 40 Z M 118 10.554688 " clip-rule="nonzero"/></clipPath><clipPath id="43f19e4e32"><path d="M 126 21 L 169 21 L 169 60.804688 L 126 60.804688 Z M 126 21 " clip-rule="nonzero"/></clipPath><clipPath id="06f5991c12"><path d="M 139.234375 39.410156 L 154.984375 39.410156 L 154.984375 55.160156 L 139.234375 55.160156 Z M 139.234375 39.410156 " clip-rule="nonzero"/></clipPath></defs><g fill="#068447" fill-opacity="1"><g transform="translate(4.562833, 59.669872)"><g><path d="M 3.140625 -43.125 L 18.546875 -43.125 C 22.703125 -43.125 26.082031 -42.015625 28.6875 -39.796875 C 31.300781 -37.585938 32.609375 -34.425781 32.609375 -30.3125 C 32.609375 -27.144531 31.816406 -24.488281 30.234375 -22.34375 C 28.648438 -20.195312 26.5 -18.691406 23.78125 -17.828125 L 38.625 0 L 26.140625 0 L 12.96875 -17.03125 L 12.96875 0 L 3.140625 0 Z M 12.96875 -23.984375 L 14.109375 -23.984375 C 15.015625 -23.984375 15.78125 -24 16.40625 -24.03125 C 17.039062 -24.070312 17.753906 -24.195312 18.546875 -24.40625 C 19.347656 -24.613281 19.992188 -24.910156 20.484375 -25.296875 C 20.972656 -25.679688 21.390625 -26.238281 21.734375 -26.96875 C 22.085938 -27.695312 22.265625 -28.582031 22.265625 -29.625 C 22.265625 -30.675781 22.085938 -31.566406 21.734375 -32.296875 C 21.390625 -33.023438 20.972656 -33.582031 20.484375 -33.96875 C 19.992188 -34.351562 19.347656 -34.648438 18.546875 -34.859375 C 17.753906 -35.066406 17.039062 -35.1875 16.40625 -35.21875 C 15.78125 -35.257812 15.015625 -35.28125 14.109375 -35.28125 L 12.96875 -35.28125 Z M 12.96875 -23.984375 "/></g></g></g><g fill="#068447" fill-opacity="1"><g transform="translate(37.071672, 59.669872)"><g><path d="M 30.265625 -12.125 L 10.8125 -12.125 C 10.8125 -10.238281 11.421875 -8.84375 12.640625 -7.9375 C 13.867188 -7.03125 15.195312 -6.578125 16.625 -6.578125 C 18.125 -6.578125 19.304688 -6.773438 20.171875 -7.171875 C 21.046875 -7.578125 22.039062 -8.375 23.15625 -9.5625 L 29.84375 -6.21875 C 27.050781 -1.550781 22.414062 0.78125 15.9375 0.78125 C 11.894531 0.78125 8.425781 -0.601562 5.53125 -3.375 C 2.644531 -6.144531 1.203125 -9.476562 1.203125 -13.375 C 1.203125 -17.28125 2.644531 -20.625 5.53125 -23.40625 C 8.425781 -26.195312 11.894531 -27.59375 15.9375 -27.59375 C 20.1875 -27.59375 23.644531 -26.363281 26.3125 -23.90625 C 28.976562 -21.457031 30.3125 -17.945312 30.3125 -13.375 C 30.3125 -12.75 30.296875 -12.332031 30.265625 -12.125 Z M 11.078125 -17.25 L 21.265625 -17.25 C 21.054688 -18.644531 20.507812 -19.710938 19.625 -20.453125 C 18.738281 -21.203125 17.597656 -21.578125 16.203125 -21.578125 C 14.671875 -21.578125 13.453125 -21.175781 12.546875 -20.375 C 11.640625 -19.582031 11.148438 -18.539062 11.078125 -17.25 Z M 11.078125 -17.25 "/></g></g></g><g fill="#068447" fill-opacity="1"><g transform="translate(63.67448, 59.669872)"><g><path d="M 3.140625 0 L 3.140625 -26.8125 L 12.390625 -26.8125 L 12.390625 -23.984375 L 12.484375 -23.984375 C 14.890625 -26.390625 17.453125 -27.59375 20.171875 -27.59375 C 21.492188 -27.59375 22.804688 -27.414062 24.109375 -27.0625 C 25.421875 -26.71875 26.675781 -26.179688 27.875 -25.453125 C 29.082031 -24.722656 30.0625 -23.6875 30.8125 -22.34375 C 31.5625 -21 31.9375 -19.441406 31.9375 -17.671875 L 31.9375 0 L 22.6875 0 L 22.6875 -15.15625 C 22.6875 -16.550781 22.238281 -17.769531 21.34375 -18.8125 C 20.457031 -19.863281 19.300781 -20.390625 17.875 -20.390625 C 16.476562 -20.390625 15.210938 -19.847656 14.078125 -18.765625 C 12.953125 -17.679688 12.390625 -16.476562 12.390625 -15.15625 L 12.390625 0 Z M 3.140625 0 "/></g></g></g><g fill="#068447" fill-opacity="1"><g transform="translate(93.308702, 59.669872)"><g><path d="M 0.421875 -34.5 L 0.421875 -43.125 L 30.734375 -43.125 L 30.734375 -34.5 L 20.484375 -34.5 L 20.484375 0 L 10.65625 0 L 10.65625 -34.5 Z M 0.421875 -34.5 "/></g></g></g><g fill="#068447" fill-opacity="1"><g transform="translate(119.547198, 59.669872)"><g/></g></g><g fill="#068447" fill-opacity="1"><g transform="translate(128.902331, 59.669872)"><g/></g></g><g fill="#068447" fill-opacity="1"><g transform="translate(138.257463, 59.669872)"><g/></g></g><g fill="#068447" fill-opacity="1"><g transform="translate(147.612595, 59.669872)"><g/></g></g><g fill="#068447" fill-opacity="1"><g transform="translate(156.967727, 59.669872)"><g/></g></g><g fill="#068447" fill-opacity="1"><g transform="translate(166.32286, 59.669872)"><g/></g></g><g fill="#068447" fill-opacity="1"><g transform="translate(175.68001, 59.669872)"><g><path d="M 12.96875 -43.125 L 12.96875 -8.625 L 27.8125 -8.625 L 27.8125 0 L 3.140625 0 L 3.140625 -43.125 Z M 12.96875 -43.125 "/></g></g></g><g fill="#068447" fill-opacity="1"><g transform="translate(200.296719, 59.669872)"><g><path d="M 21.6875 -50.328125 L 21.6875 -42.96875 C 23.5 -42.71875 25.25 -42.28125 26.9375 -41.65625 C 28.632812 -41.03125 29.882812 -40.457031 30.6875 -39.9375 L 31.875 -39.203125 L 28.0625 -31.671875 C 27.75 -31.878906 27.320312 -32.140625 26.78125 -32.453125 C 26.238281 -32.765625 25.21875 -33.179688 23.71875 -33.703125 C 22.226562 -34.234375 20.851562 -34.5 19.59375 -34.5 C 17.957031 -34.5 16.722656 -34.175781 15.890625 -33.53125 C 15.054688 -32.882812 14.640625 -31.96875 14.640625 -30.78125 C 14.640625 -30.226562 14.820312 -29.695312 15.1875 -29.1875 C 15.550781 -28.6875 16.210938 -28.164062 17.171875 -27.625 C 18.128906 -27.082031 18.9375 -26.660156 19.59375 -26.359375 C 20.257812 -26.066406 21.375 -25.59375 22.9375 -24.9375 C 23.007812 -24.894531 23.070312 -24.863281 23.125 -24.84375 C 23.175781 -24.832031 23.238281 -24.8125 23.3125 -24.78125 C 25.988281 -23.625 28.285156 -22.0625 30.203125 -20.09375 C 32.117188 -18.125 33.078125 -15.882812 33.078125 -13.375 C 33.078125 -9.539062 32.039062 -6.5625 29.96875 -4.4375 C 27.894531 -2.3125 25.132812 -0.953125 21.6875 -0.359375 L 21.6875 7.21875 L 16.046875 7.21875 L 16.046875 0 C 14.367188 -0.101562 12.726562 -0.351562 11.125 -0.75 C 9.53125 -1.15625 8.191406 -1.617188 7.109375 -2.140625 C 6.023438 -2.660156 5.054688 -3.171875 4.203125 -3.671875 C 3.347656 -4.179688 2.710938 -4.613281 2.296875 -4.96875 L 1.71875 -5.484375 L 6.484375 -13.4375 C 6.898438 -13.082031 7.457031 -12.644531 8.15625 -12.125 C 8.851562 -11.601562 10.109375 -10.90625 11.921875 -10.03125 C 13.734375 -9.164062 15.332031 -8.734375 16.71875 -8.734375 C 20.695312 -8.734375 22.6875 -10.09375 22.6875 -12.8125 C 22.6875 -13.394531 22.535156 -13.9375 22.234375 -14.4375 C 21.941406 -14.945312 21.4375 -15.4375 20.71875 -15.90625 C 20.007812 -16.382812 19.375 -16.769531 18.8125 -17.0625 C 18.257812 -17.363281 17.363281 -17.800781 16.125 -18.375 C 14.882812 -18.945312 13.953125 -19.390625 13.328125 -19.703125 C 10.816406 -20.953125 8.863281 -22.507812 7.46875 -24.375 C 6.082031 -26.238281 5.390625 -28.253906 5.390625 -30.421875 C 5.390625 -33.515625 6.425781 -36.1875 8.5 -38.4375 C 10.570312 -40.6875 13.085938 -42.144531 16.046875 -42.8125 L 16.046875 -50.328125 Z M 21.6875 -50.328125 "/></g></g></g><g clip-path="url(#869ffd06d3)"><path fill="#055b32" d="M 176.558594 34.394531 L 149.722656 11.230469 C 149.707031 11.214844 149.6875 11.203125 149.667969 11.1875 C 149.625 11.152344 149.585938 11.121094 149.542969 11.089844 C 149.507812 11.066406 149.476562 11.042969 149.441406 11.019531 C 149.398438 10.988281 149.355469 10.964844 149.3125 10.9375 C 149.273438 10.914062 149.234375 10.894531 149.195312 10.875 C 149.15625 10.851562 149.113281 10.832031 149.074219 10.8125 C 149.03125 10.792969 148.984375 10.773438 148.941406 10.753906 C 148.902344 10.738281 148.863281 10.726562 148.824219 10.710938 C 148.777344 10.695312 148.730469 10.679688 148.679688 10.664062 C 148.644531 10.652344 148.605469 10.644531 148.566406 10.632812 C 148.519531 10.621094 148.46875 10.609375 148.417969 10.601562 C 148.378906 10.59375 148.339844 10.585938 148.300781 10.582031 C 148.253906 10.574219 148.203125 10.566406 148.152344 10.5625 C 148.113281 10.558594 148.070312 10.558594 148.03125 10.554688 C 147.980469 10.554688 147.9375 10.550781 147.886719 10.550781 C 147.84375 10.550781 147.800781 10.554688 147.757812 10.554688 C 147.714844 10.558594 147.667969 10.558594 147.621094 10.566406 C 147.578125 10.566406 147.53125 10.574219 147.488281 10.582031 C 147.441406 10.585938 147.402344 10.59375 147.355469 10.601562 C 147.3125 10.609375 147.265625 10.621094 147.21875 10.632812 C 147.175781 10.644531 147.136719 10.652344 147.09375 10.667969 C 147.050781 10.679688 147.003906 10.695312 146.960938 10.710938 C 146.917969 10.722656 146.878906 10.738281 146.835938 10.757812 C 146.792969 10.773438 146.753906 10.792969 146.714844 10.8125 C 146.667969 10.832031 146.625 10.851562 146.582031 10.875 C 146.542969 10.894531 146.507812 10.914062 146.472656 10.9375 C 146.425781 10.960938 146.382812 10.992188 146.339844 11.019531 C 146.304688 11.042969 146.273438 11.066406 146.242188 11.085938 C 146.195312 11.121094 146.15625 11.152344 146.113281 11.1875 C 146.09375 11.203125 146.074219 11.214844 146.058594 11.230469 L 137.261719 18.824219 L 137.261719 15.769531 C 137.261719 14.9375 136.582031 14.257812 135.75 14.257812 L 130.550781 14.257812 C 129.722656 14.257812 129.042969 14.9375 129.042969 15.769531 L 129.042969 25.917969 L 119.222656 34.394531 C 118.050781 35.410156 117.917969 37.183594 118.933594 38.355469 C 119.488281 38.996094 120.269531 39.328125 121.058594 39.328125 C 121.707031 39.328125 122.359375 39.101562 122.890625 38.644531 L 147.890625 17.0625 L 172.890625 38.644531 C 173.421875 39.101562 174.074219 39.328125 174.726562 39.328125 C 175.511719 39.328125 176.296875 38.996094 176.851562 38.355469 C 177.863281 37.183594 177.730469 35.410156 176.558594 34.394531 " fill-opacity="1" fill-rule="nonzero"/></g><g clip-path="url(#43f19e4e32)"><path fill="#055b32" d="M 158.5 41.507812 C 158.144531 45.246094 149.894531 52.25 147.890625 55.851562 C 145.886719 52.25 137.636719 45.246094 137.28125 41.507812 C 136.925781 37.769531 139.386719 35.421875 142.429688 35.421875 C 144.753906 35.421875 147.027344 37.304688 147.835938 39.515625 C 147.859375 39.574219 147.878906 39.664062 147.890625 39.773438 C 147.90625 39.664062 147.925781 39.574219 147.945312 39.515625 C 148.753906 37.304688 151.027344 35.421875 153.355469 35.421875 C 156.398438 35.421875 158.855469 37.769531 158.5 41.507812 M 167.191406 37.34375 L 149.527344 22.089844 C 148.625 21.316406 147.15625 21.316406 146.257812 22.089844 L 128.589844 37.34375 C 127.691406 38.117188 126.957031 39.726562 126.957031 40.914062 L 126.957031 58.609375 C 126.957031 59.796875 127.925781 60.769531 129.113281 60.769531 L 166.667969 60.769531 C 167.855469 60.769531 168.828125 59.796875 168.828125 58.609375 L 168.828125 40.914062 C 168.828125 39.726562 168.089844 38.117188 167.191406 37.34375 " fill-opacity="1" fill-rule="nonzero"/></g><g clip-path="url(#06f5991c12)"><path fill="#055b32" d="M 148.882812 44.050781 C 148.882812 43.355469 149.445312 42.789062 150.140625 42.789062 C 150.832031 42.789062 151.398438 43.355469 151.398438 44.050781 C 151.398438 44.742188 150.832031 45.308594 150.140625 45.308594 C 149.445312 45.308594 148.882812 44.742188 148.882812 44.050781 Z M 148.328125 49.53125 C 148.328125 50.105469 147.855469 50.578125 147.28125 50.578125 C 146.703125 50.578125 146.234375 50.105469 146.234375 49.53125 C 146.234375 48.953125 146.703125 48.484375 147.28125 48.484375 C 147.855469 48.484375 148.328125 48.953125 148.328125 49.53125 Z M 145.851562 39.753906 C 146.652344 39.753906 147.300781 40.40625 147.300781 41.207031 C 147.300781 42.007812 146.652344 42.660156 145.851562 42.660156 C 145.050781 42.660156 144.398438 42.007812 144.398438 41.207031 C 144.398438 40.40625 145.050781 39.753906 145.851562 39.753906 Z M 154.792969 43.800781 C 154.664062 43.605469 154.453125 43.476562 154.222656 43.445312 C 153.988281 43.414062 153.757812 43.488281 153.582031 43.644531 C 152.316406 44.777344 151.796875 45.050781 151.285156 45.167969 C 151.566406 44.878906 151.742188 44.484375 151.742188 44.050781 C 151.742188 43.164062 151.023438 42.449219 150.140625 42.449219 C 149.257812 42.449219 148.539062 43.164062 148.539062 44.050781 C 148.539062 44.679688 148.90625 45.226562 149.433594 45.484375 C 149.40625 45.492188 149.378906 45.496094 149.355469 45.503906 L 148.941406 45.59375 C 148.46875 45.699219 148.125 45.875 147.902344 46.117188 L 147.847656 44.589844 C 147.832031 43.976562 147.457031 43.425781 146.894531 43.183594 L 146.324219 42.9375 C 147.085938 42.730469 147.644531 42.03125 147.644531 41.207031 C 147.644531 40.21875 146.839844 39.410156 145.851562 39.410156 C 144.859375 39.410156 144.054688 40.21875 144.054688 41.207031 C 144.054688 41.648438 144.21875 42.054688 144.484375 42.371094 C 142.667969 41.757812 141.535156 40.574219 140.988281 39.867188 C 140.828125 39.660156 140.585938 39.53125 140.324219 39.511719 C 140.0625 39.492188 139.796875 39.589844 139.605469 39.773438 C 139.296875 40.070312 139.234375 40.539062 139.453125 40.910156 C 139.9375 41.722656 141.042969 43.242188 143.066406 44.378906 L 143.066406 54.996094 C 143.066406 55.089844 143.144531 55.167969 143.238281 55.167969 C 143.332031 55.167969 143.410156 55.089844 143.410156 54.996094 L 143.410156 44.277344 C 143.410156 44.214844 143.375 44.15625 143.320312 44.128906 C 141.3125 43.027344 140.222656 41.53125 139.75 40.734375 C 139.613281 40.503906 139.652344 40.207031 139.847656 40.019531 C 139.96875 39.902344 140.132812 39.84375 140.300781 39.855469 C 140.46875 39.867188 140.617188 39.945312 140.714844 40.078125 C 141.367188 40.921875 142.820312 42.414062 145.214844 42.925781 C 145.492188 42.984375 145.773438 43.074219 146.050781 43.195312 L 146.757812 43.5 C 147.199219 43.6875 147.492188 44.121094 147.503906 44.601562 L 147.636719 48.1875 C 147.523438 48.15625 147.402344 48.140625 147.28125 48.140625 C 146.515625 48.140625 145.890625 48.765625 145.890625 49.53125 C 145.890625 49.816406 145.976562 50.085938 146.128906 50.304688 C 145.644531 50.066406 145.273438 49.707031 145.015625 49.382812 C 144.867188 49.199219 144.648438 49.082031 144.414062 49.0625 C 144.175781 49.046875 143.949219 49.125 143.773438 49.285156 C 143.449219 49.582031 143.402344 50.074219 143.667969 50.425781 C 144.097656 50.988281 144.742188 51.695312 145.429688 51.933594 L 145.359375 54.890625 C 145.359375 54.984375 145.433594 55.0625 145.527344 55.0625 C 145.53125 55.066406 145.53125 55.066406 145.53125 55.066406 C 145.625 55.066406 145.703125 54.992188 145.703125 54.898438 L 145.773438 51.8125 C 145.777344 51.730469 145.722656 51.660156 145.644531 51.640625 C 144.972656 51.46875 144.289062 50.675781 143.941406 50.214844 C 143.78125 50.007812 143.8125 49.714844 144.007812 49.539062 C 144.109375 49.441406 144.246094 49.394531 144.386719 49.40625 C 144.527344 49.417969 144.65625 49.484375 144.746094 49.597656 C 145.230469 50.199219 146.0625 50.917969 147.28125 50.917969 C 148.496094 50.917969 149.328125 50.199219 149.816406 49.597656 C 149.90625 49.484375 150.03125 49.417969 150.175781 49.40625 C 150.316406 49.394531 150.449219 49.441406 150.554688 49.539062 C 150.75 49.714844 150.777344 50.007812 150.617188 50.214844 C 150.269531 50.675781 149.585938 51.46875 148.914062 51.640625 C 148.835938 51.660156 148.785156 51.730469 148.785156 51.8125 L 148.855469 54.898438 C 148.859375 54.992188 148.933594 55.066406 149.027344 55.066406 C 149.027344 55.066406 149.03125 55.066406 149.03125 55.0625 C 149.125 55.0625 149.203125 54.984375 149.199219 54.890625 L 149.132812 51.933594 C 149.816406 51.695312 150.460938 50.988281 150.890625 50.425781 C 151.160156 50.074219 151.113281 49.582031 150.785156 49.285156 C 150.609375 49.125 150.382812 49.046875 150.148438 49.0625 C 149.914062 49.082031 149.695312 49.199219 149.546875 49.382812 C 149.285156 49.707031 148.917969 50.066406 148.433594 50.304688 C 148.582031 50.085938 148.667969 49.816406 148.667969 49.53125 C 148.667969 49.019531 148.394531 48.574219 147.984375 48.332031 C 147.984375 48.324219 147.984375 48.316406 147.984375 48.304688 L 147.9375 47.0625 C 147.945312 47.046875 147.945312 47.027344 147.945312 47.007812 C 147.929688 46.421875 148.25 46.101562 149.015625 45.929688 L 149.429688 45.839844 C 149.835938 45.746094 150.285156 45.667969 150.800781 45.59375 L 150.902344 45.578125 C 151.664062 45.472656 152.125 45.40625 153.8125 43.898438 C 153.910156 43.808594 154.042969 43.769531 154.179688 43.785156 C 154.3125 43.804688 154.433594 43.878906 154.507812 43.992188 C 154.648438 44.199219 154.566406 44.441406 154.441406 44.59375 C 153.765625 45.425781 152.402344 46.515625 151.378906 46.832031 C 151.304688 46.855469 151.257812 46.921875 151.257812 46.996094 L 151.257812 48.542969 C 151.257812 48.574219 151.265625 48.601562 151.277344 48.628906 C 151.289062 48.644531 152.171875 50.21875 152.566406 52.574219 L 151.109375 52.574219 C 151.015625 52.574219 150.9375 52.648438 150.9375 52.746094 L 150.9375 54.894531 C 150.9375 54.988281 151.015625 55.066406 151.109375 55.066406 C 151.203125 55.066406 151.28125 54.988281 151.28125 54.894531 L 151.28125 52.914062 L 152.769531 52.914062 C 152.820312 52.914062 152.867188 52.894531 152.898438 52.855469 C 152.933594 52.816406 152.945312 52.765625 152.9375 52.71875 C 152.578125 50.375 151.75 48.773438 151.601562 48.5 L 151.601562 47.121094 C 152.683594 46.738281 154.011719 45.667969 154.707031 44.8125 C 154.960938 44.496094 154.996094 44.101562 154.792969 43.800781 " fill-opacity="1" fill-rule="nonzero"/></g></svg>