<svg xmlns="http://www.w3.org/2000/svg" xmlns:xlink="http://www.w3.org/1999/xlink" width="240" zoomAndPan="magnify" viewBox="0 0 180 60" height="80" preserveAspectRatio="xMidYMid meet" version="1.0"><defs><g/><clipPath id="107fa3a9b8"><path d="M 94 13.597656 L 135 13.597656 L 135 34 L 94 34 Z M 94 13.597656 " clip-rule="nonzero"/></clipPath><clipPath id="ccbdf7e2c6"><path d="M 109.28125 33.578125 L 119.03125 33.578125 L 119.03125 43.328125 L 109.28125 43.328125 Z M 109.28125 33.578125 " clip-rule="nonzero"/></clipPath></defs><g fill="#0c9d57" fill-opacity="1"><g transform="translate(0.941269, 47.637403)"><g><path d="M 2.578125 -35.5 L 15.28125 -35.5 C 18.6875 -35.5 21.460938 -34.585938 23.609375 -32.765625 C 25.765625 -30.941406 26.84375 -28.335938 26.84375 -24.953125 C 26.84375 -22.347656 26.191406 -20.160156 24.890625 -18.390625 C 23.585938 -16.628906 21.816406 -15.390625 19.578125 -14.671875 L 31.796875 0 L 21.515625 0 L 10.671875 -14.03125 L 10.671875 0 L 2.578125 0 Z M 10.671875 -19.75 L 11.625 -19.75 C 12.363281 -19.75 12.988281 -19.765625 13.5 -19.796875 C 14.019531 -19.828125 14.609375 -19.925781 15.265625 -20.09375 C 15.929688 -20.269531 16.460938 -20.515625 16.859375 -20.828125 C 17.265625 -21.140625 17.609375 -21.597656 17.890625 -22.203125 C 18.179688 -22.804688 18.328125 -23.535156 18.328125 -24.390625 C 18.328125 -25.253906 18.179688 -25.988281 17.890625 -26.59375 C 17.609375 -27.195312 17.265625 -27.65625 16.859375 -27.96875 C 16.460938 -28.28125 15.929688 -28.519531 15.265625 -28.6875 C 14.609375 -28.863281 14.019531 -28.96875 13.5 -29 C 12.988281 -29.03125 12.363281 -29.046875 11.625 -29.046875 L 10.671875 -29.046875 Z M 10.671875 -19.75 "/></g></g></g><g fill="#0c9d57" fill-opacity="1"><g transform="translate(27.697415, 47.637403)"><g><path d="M 24.921875 -9.984375 L 8.90625 -9.984375 C 8.90625 -8.429688 9.40625 -7.28125 10.40625 -6.53125 C 11.414062 -5.789062 12.507812 -5.421875 13.6875 -5.421875 C 14.914062 -5.421875 15.890625 -5.582031 16.609375 -5.90625 C 17.328125 -6.238281 18.144531 -6.894531 19.0625 -7.875 L 24.578125 -5.125 C 22.273438 -1.28125 18.457031 0.640625 13.125 0.640625 C 9.800781 0.640625 6.945312 -0.5 4.5625 -2.78125 C 2.175781 -5.0625 0.984375 -7.804688 0.984375 -11.015625 C 0.984375 -14.222656 2.175781 -16.972656 4.5625 -19.265625 C 6.945312 -21.566406 9.800781 -22.71875 13.125 -22.71875 C 16.625 -22.71875 19.46875 -21.707031 21.65625 -19.6875 C 23.851562 -17.664062 24.953125 -14.773438 24.953125 -11.015625 C 24.953125 -10.492188 24.941406 -10.148438 24.921875 -9.984375 Z M 9.125 -14.203125 L 17.515625 -14.203125 C 17.335938 -15.347656 16.882812 -16.226562 16.15625 -16.84375 C 15.425781 -17.457031 14.488281 -17.765625 13.34375 -17.765625 C 12.082031 -17.765625 11.078125 -17.4375 10.328125 -16.78125 C 9.578125 -16.125 9.175781 -15.265625 9.125 -14.203125 Z M 9.125 -14.203125 "/></g></g></g><g fill="#0c9d57" fill-opacity="1"><g transform="translate(49.592504, 47.637403)"><g><path d="M 2.578125 0 L 2.578125 -22.078125 L 10.203125 -22.078125 L 10.203125 -19.75 L 10.28125 -19.75 C 12.257812 -21.726562 14.367188 -22.71875 16.609375 -22.71875 C 17.703125 -22.71875 18.785156 -22.570312 19.859375 -22.28125 C 20.929688 -22 21.960938 -21.554688 22.953125 -20.953125 C 23.941406 -20.347656 24.742188 -19.492188 25.359375 -18.390625 C 25.984375 -17.285156 26.296875 -16.003906 26.296875 -14.546875 L 26.296875 0 L 18.671875 0 L 18.671875 -12.484375 C 18.671875 -13.628906 18.304688 -14.628906 17.578125 -15.484375 C 16.847656 -16.347656 15.894531 -16.78125 14.71875 -16.78125 C 13.570312 -16.78125 12.53125 -16.332031 11.59375 -15.4375 C 10.664062 -14.550781 10.203125 -13.566406 10.203125 -12.484375 L 10.203125 0 Z M 2.578125 0 "/></g></g></g><g fill="#0c9d57" fill-opacity="1"><g transform="translate(73.982651, 47.637403)"><g><path d="M 0.34375 -28.40625 L 0.34375 -35.5 L 25.296875 -35.5 L 25.296875 -28.40625 L 16.875 -28.40625 L 16.875 0 L 8.78125 0 L 8.78125 -28.40625 Z M 0.34375 -28.40625 "/></g></g></g><g fill="#0c9d57" fill-opacity="1"><g transform="translate(95.583238, 47.637403)"><g/></g></g><g fill="#0c9d57" fill-opacity="1"><g transform="translate(103.282322, 47.637403)"><g/></g></g><g fill="#0c9d57" fill-opacity="1"><g transform="translate(110.981406, 47.637403)"><g/></g></g><g fill="#0c9d57" fill-opacity="1"><g transform="translate(118.68049, 47.637403)"><g/></g></g><g fill="#0c9d57" fill-opacity="1"><g transform="translate(126.379574, 47.637403)"><g/></g></g><g fill="#0c9d57" fill-opacity="1"><g transform="translate(134.082002, 47.637403)"><g><path d="M 10.671875 -35.5 L 10.671875 -7.09375 L 22.890625 -7.09375 L 22.890625 0 L 2.578125 0 L 2.578125 -35.5 Z M 10.671875 -35.5 "/></g></g></g><g clip-path="url(#107fa3a9b8)"><path fill="#086639" d="M 133.832031 29.871094 L 115.519531 14.0625 C 115.507812 14.050781 115.496094 14.042969 115.484375 14.03125 C 115.453125 14.007812 115.425781 13.988281 115.394531 13.964844 C 115.375 13.949219 115.351562 13.933594 115.328125 13.917969 C 115.296875 13.898438 115.269531 13.878906 115.238281 13.863281 C 115.214844 13.847656 115.1875 13.832031 115.160156 13.816406 C 115.132812 13.804688 115.105469 13.789062 115.074219 13.777344 C 115.046875 13.761719 115.015625 13.75 114.988281 13.738281 C 114.960938 13.726562 114.933594 13.714844 114.90625 13.707031 C 114.875 13.695312 114.839844 13.683594 114.808594 13.675781 C 114.785156 13.667969 114.757812 13.660156 114.730469 13.65625 C 114.695312 13.644531 114.664062 13.636719 114.628906 13.632812 C 114.601562 13.625 114.578125 13.621094 114.550781 13.617188 C 114.515625 13.613281 114.480469 13.609375 114.449219 13.605469 C 114.421875 13.605469 114.390625 13.601562 114.363281 13.601562 C 114.332031 13.597656 114.300781 13.597656 114.265625 13.597656 C 114.238281 13.597656 114.207031 13.597656 114.179688 13.601562 C 114.148438 13.601562 114.117188 13.605469 114.085938 13.605469 C 114.054688 13.609375 114.023438 13.613281 113.992188 13.617188 C 113.964844 13.621094 113.933594 13.625 113.90625 13.632812 C 113.875 13.640625 113.84375 13.644531 113.8125 13.652344 C 113.78125 13.660156 113.753906 13.667969 113.726562 13.675781 C 113.695312 13.6875 113.664062 13.695312 113.636719 13.707031 C 113.605469 13.714844 113.578125 13.726562 113.546875 13.738281 C 113.519531 13.75 113.492188 13.761719 113.464844 13.773438 C 113.4375 13.789062 113.40625 13.804688 113.375 13.820312 C 113.351562 13.832031 113.328125 13.847656 113.300781 13.859375 C 113.269531 13.878906 113.238281 13.898438 113.210938 13.917969 C 113.1875 13.933594 113.167969 13.949219 113.144531 13.964844 C 113.113281 13.984375 113.085938 14.007812 113.054688 14.035156 C 113.042969 14.042969 113.03125 14.050781 113.019531 14.0625 L 107.015625 19.242188 L 107.015625 17.15625 C 107.015625 16.589844 106.550781 16.128906 105.984375 16.128906 L 102.4375 16.128906 C 101.871094 16.128906 101.40625 16.589844 101.40625 17.15625 L 101.40625 24.085938 L 94.707031 29.871094 C 93.90625 30.558594 93.816406 31.769531 94.507812 32.570312 C 94.886719 33.007812 95.421875 33.234375 95.960938 33.234375 C 96.402344 33.234375 96.847656 33.082031 97.207031 32.769531 L 114.269531 18.039062 L 131.328125 32.769531 C 131.691406 33.082031 132.136719 33.234375 132.582031 33.234375 C 133.117188 33.234375 133.652344 33.007812 134.03125 32.570312 C 134.722656 31.769531 134.632812 30.558594 133.832031 29.871094 " fill-opacity="1" fill-rule="nonzero"/></g><path fill="#086639" d="M 121.507812 34.722656 C 121.265625 37.273438 115.636719 42.050781 114.269531 44.511719 C 112.902344 42.050781 107.273438 37.273438 107.027344 34.722656 C 106.785156 32.171875 108.464844 30.566406 110.542969 30.566406 C 112.128906 30.566406 113.679688 31.855469 114.234375 33.363281 C 114.246094 33.402344 114.261719 33.464844 114.269531 33.539062 C 114.28125 33.464844 114.292969 33.402344 114.304688 33.363281 C 114.859375 31.855469 116.410156 30.566406 117.996094 30.566406 C 120.074219 30.566406 121.753906 32.171875 121.507812 34.722656 M 127.441406 31.878906 L 115.382812 21.472656 C 114.769531 20.941406 113.765625 20.941406 113.15625 21.472656 L 101.097656 31.878906 C 100.484375 32.410156 99.984375 33.503906 99.984375 34.316406 L 99.984375 46.390625 C 99.984375 47.203125 100.644531 47.867188 101.457031 47.867188 L 127.082031 47.867188 C 127.890625 47.867188 128.554688 47.203125 128.554688 46.390625 L 128.554688 34.316406 C 128.554688 33.503906 128.054688 32.410156 127.441406 31.878906 " fill-opacity="1" fill-rule="nonzero"/><g clip-path="url(#ccbdf7e2c6)"><path fill="#086639" d="M 115.378906 36.507812 C 115.378906 36.070312 115.734375 35.714844 116.171875 35.714844 C 116.613281 35.714844 116.96875 36.070312 116.96875 36.507812 C 116.96875 36.945312 116.613281 37.304688 116.171875 37.304688 C 115.734375 37.304688 115.378906 36.945312 115.378906 36.507812 Z M 115.027344 39.972656 C 115.027344 40.335938 114.730469 40.632812 114.367188 40.632812 C 114.003906 40.632812 113.707031 40.335938 113.707031 39.972656 C 113.707031 39.609375 114.003906 39.3125 114.367188 39.3125 C 114.730469 39.3125 115.027344 39.609375 115.027344 39.972656 Z M 113.464844 33.792969 C 113.96875 33.792969 114.382812 34.207031 114.382812 34.710938 C 114.382812 35.21875 113.96875 35.628906 113.464844 35.628906 C 112.957031 35.628906 112.546875 35.21875 112.546875 34.710938 C 112.546875 34.207031 112.957031 33.792969 113.464844 33.792969 Z M 119.117188 36.351562 C 119.035156 36.226562 118.902344 36.144531 118.753906 36.128906 C 118.605469 36.109375 118.460938 36.152344 118.347656 36.253906 C 117.546875 36.96875 117.222656 37.140625 116.898438 37.214844 C 117.074219 37.03125 117.1875 36.785156 117.1875 36.507812 C 117.1875 35.949219 116.730469 35.496094 116.171875 35.496094 C 115.617188 35.496094 115.160156 35.949219 115.160156 36.507812 C 115.160156 36.90625 115.394531 37.25 115.726562 37.417969 C 115.710938 37.421875 115.695312 37.425781 115.675781 37.429688 L 115.417969 37.484375 C 115.117188 37.550781 114.898438 37.660156 114.761719 37.816406 L 114.722656 36.851562 C 114.714844 36.464844 114.476562 36.113281 114.121094 35.960938 L 113.761719 35.808594 C 114.242188 35.675781 114.597656 35.234375 114.597656 34.710938 C 114.597656 34.085938 114.089844 33.578125 113.464844 33.578125 C 112.835938 33.578125 112.328125 34.085938 112.328125 34.710938 C 112.328125 34.992188 112.429688 35.25 112.601562 35.449219 C 111.453125 35.0625 110.734375 34.3125 110.390625 33.867188 C 110.289062 33.734375 110.136719 33.652344 109.972656 33.640625 C 109.804688 33.628906 109.636719 33.6875 109.519531 33.804688 C 109.320312 33.996094 109.28125 34.292969 109.421875 34.523438 C 109.726562 35.039062 110.425781 36 111.703125 36.71875 L 111.703125 43.425781 C 111.703125 43.488281 111.753906 43.535156 111.8125 43.535156 C 111.871094 43.535156 111.921875 43.488281 111.921875 43.425781 L 111.921875 36.652344 C 111.921875 36.613281 111.898438 36.578125 111.863281 36.558594 C 110.59375 35.863281 109.90625 34.917969 109.609375 34.414062 C 109.519531 34.265625 109.546875 34.082031 109.667969 33.960938 C 109.746094 33.886719 109.851562 33.851562 109.957031 33.859375 C 110.0625 33.867188 110.15625 33.914062 110.21875 33.996094 C 110.628906 34.53125 111.546875 35.476562 113.0625 35.800781 C 113.238281 35.835938 113.414062 35.894531 113.589844 35.96875 L 114.035156 36.160156 C 114.316406 36.28125 114.5 36.554688 114.507812 36.855469 L 114.589844 39.125 C 114.519531 39.105469 114.445312 39.09375 114.367188 39.09375 C 113.882812 39.09375 113.488281 39.488281 113.488281 39.972656 C 113.488281 40.152344 113.542969 40.324219 113.640625 40.464844 C 113.332031 40.3125 113.097656 40.082031 112.933594 39.878906 C 112.839844 39.761719 112.703125 39.6875 112.554688 39.679688 C 112.40625 39.667969 112.261719 39.714844 112.152344 39.816406 C 111.945312 40.003906 111.914062 40.316406 112.085938 40.539062 C 112.355469 40.894531 112.761719 41.339844 113.195312 41.492188 L 113.152344 43.359375 C 113.152344 43.417969 113.199219 43.46875 113.261719 43.46875 C 113.320312 43.46875 113.371094 43.421875 113.371094 43.363281 L 113.414062 41.414062 C 113.417969 41.363281 113.382812 41.320312 113.335938 41.304688 C 112.910156 41.195312 112.476562 40.695312 112.257812 40.40625 C 112.15625 40.273438 112.175781 40.089844 112.296875 39.976562 C 112.363281 39.917969 112.449219 39.886719 112.539062 39.894531 C 112.628906 39.902344 112.707031 39.945312 112.765625 40.015625 C 113.070312 40.394531 113.597656 40.851562 114.367188 40.851562 C 115.136719 40.851562 115.660156 40.394531 115.96875 40.015625 C 116.023438 39.945312 116.105469 39.902344 116.195312 39.894531 C 116.285156 39.886719 116.371094 39.917969 116.4375 39.976562 C 116.558594 40.089844 116.578125 40.273438 116.476562 40.40625 C 116.257812 40.695312 115.824219 41.195312 115.398438 41.304688 C 115.351562 41.320312 115.316406 41.363281 115.316406 41.414062 L 115.363281 43.363281 C 115.363281 43.421875 115.414062 43.46875 115.472656 43.46875 C 115.535156 43.46875 115.582031 43.417969 115.578125 43.359375 L 115.535156 41.492188 C 115.96875 41.339844 116.378906 40.894531 116.648438 40.539062 C 116.816406 40.316406 116.789062 40.003906 116.582031 39.816406 C 116.472656 39.714844 116.328125 39.667969 116.179688 39.679688 C 116.03125 39.6875 115.894531 39.761719 115.800781 39.878906 C 115.632812 40.082031 115.402344 40.3125 115.09375 40.464844 C 115.191406 40.324219 115.246094 40.152344 115.246094 39.972656 C 115.246094 39.648438 115.070312 39.367188 114.8125 39.214844 C 114.8125 39.210938 114.8125 39.203125 114.8125 39.199219 L 114.78125 38.414062 C 114.785156 38.402344 114.789062 38.390625 114.789062 38.378906 C 114.777344 38.007812 114.980469 37.804688 115.464844 37.699219 L 115.722656 37.640625 C 115.980469 37.582031 116.265625 37.53125 116.59375 37.484375 L 116.65625 37.476562 C 117.136719 37.40625 117.429688 37.367188 118.492188 36.414062 C 118.558594 36.359375 118.640625 36.332031 118.726562 36.34375 C 118.8125 36.351562 118.886719 36.398438 118.933594 36.472656 C 119.023438 36.605469 118.96875 36.753906 118.890625 36.851562 C 118.464844 37.378906 117.605469 38.066406 116.957031 38.265625 C 116.910156 38.28125 116.878906 38.324219 116.878906 38.371094 L 116.878906 39.347656 C 116.878906 39.367188 116.882812 39.386719 116.894531 39.402344 C 116.898438 39.410156 117.457031 40.410156 117.707031 41.894531 L 116.789062 41.894531 C 116.726562 41.894531 116.679688 41.945312 116.679688 42.003906 L 116.679688 43.363281 C 116.679688 43.421875 116.726562 43.46875 116.789062 43.46875 C 116.847656 43.46875 116.894531 43.421875 116.894531 43.363281 L 116.894531 42.113281 L 117.835938 42.113281 C 117.867188 42.113281 117.898438 42.097656 117.917969 42.074219 C 117.9375 42.050781 117.949219 42.019531 117.941406 41.988281 C 117.714844 40.507812 117.191406 39.496094 117.097656 39.320312 L 117.097656 38.449219 C 117.78125 38.207031 118.621094 37.53125 119.058594 36.988281 C 119.21875 36.792969 119.242188 36.542969 119.117188 36.351562 " fill-opacity="1" fill-rule="nonzero"/></g><g fill="#0c9d57" fill-opacity="1"><g transform="translate(153.256448, 47.560797)"><g><path d="M 15.484375 -35.953125 L 15.484375 -30.6875 C 16.785156 -30.507812 18.035156 -30.195312 19.234375 -29.75 C 20.441406 -29.300781 21.332031 -28.890625 21.90625 -28.515625 L 22.765625 -28 L 20.046875 -22.625 C 19.816406 -22.769531 19.507812 -22.953125 19.125 -23.171875 C 18.738281 -23.398438 18.007812 -23.703125 16.9375 -24.078125 C 15.875 -24.453125 14.894531 -24.640625 14 -24.640625 C 12.832031 -24.640625 11.945312 -24.40625 11.34375 -23.9375 C 10.75 -23.476562 10.453125 -22.828125 10.453125 -21.984375 C 10.453125 -21.585938 10.582031 -21.207031 10.84375 -20.84375 C 11.101562 -20.488281 11.570312 -20.117188 12.25 -19.734375 C 12.9375 -19.347656 13.515625 -19.046875 13.984375 -18.828125 C 14.460938 -18.617188 15.265625 -18.28125 16.390625 -17.8125 C 16.441406 -17.78125 16.484375 -17.757812 16.515625 -17.75 C 16.554688 -17.738281 16.597656 -17.71875 16.640625 -17.6875 C 18.554688 -16.875 20.195312 -15.765625 21.5625 -14.359375 C 22.9375 -12.953125 23.625 -11.351562 23.625 -9.5625 C 23.625 -6.820312 22.882812 -4.691406 21.40625 -3.171875 C 19.925781 -1.648438 17.953125 -0.679688 15.484375 -0.265625 L 15.484375 5.15625 L 11.453125 5.15625 L 11.453125 0 C 10.265625 -0.0703125 9.097656 -0.25 7.953125 -0.53125 C 6.804688 -0.820312 5.847656 -1.15625 5.078125 -1.53125 C 4.304688 -1.90625 3.613281 -2.269531 3 -2.625 C 2.394531 -2.988281 1.941406 -3.296875 1.640625 -3.546875 L 1.234375 -3.921875 L 4.625 -9.59375 C 4.925781 -9.34375 5.320312 -9.03125 5.8125 -8.65625 C 6.3125 -8.28125 7.207031 -7.78125 8.5 -7.15625 C 9.800781 -6.539062 10.945312 -6.234375 11.9375 -6.234375 C 14.78125 -6.234375 16.203125 -7.203125 16.203125 -9.140625 C 16.203125 -9.566406 16.09375 -9.957031 15.875 -10.3125 C 15.664062 -10.675781 15.304688 -11.023438 14.796875 -11.359375 C 14.285156 -11.703125 13.832031 -11.976562 13.4375 -12.1875 C 13.039062 -12.394531 12.398438 -12.703125 11.515625 -13.109375 C 10.628906 -13.523438 9.960938 -13.847656 9.515625 -14.078125 C 7.722656 -14.972656 6.328125 -16.082031 5.328125 -17.40625 C 4.335938 -18.738281 3.84375 -20.175781 3.84375 -21.71875 C 3.84375 -23.9375 4.582031 -25.847656 6.0625 -27.453125 C 7.539062 -29.054688 9.335938 -30.097656 11.453125 -30.578125 L 11.453125 -35.953125 Z M 15.484375 -35.953125 "/></g></g></g></svg>