<svg xmlns="http://www.w3.org/2000/svg" xmlns:xlink="http://www.w3.org/1999/xlink" width="320" zoomAndPan="magnify" viewBox="0 0 240 74.999997" height="100" preserveAspectRatio="xMidYMid meet" version="1.0"><defs><g/><clipPath id="2ad088e236"><path d="M 120 16.679688 L 169.5 16.679688 L 169.5 41 L 120 41 Z M 120 16.679688 " clip-rule="nonzero"/></clipPath><clipPath id="faa292fdf8"><path d="M 127 25 L 163 25 L 163 58.679688 L 127 58.679688 Z M 127 25 " clip-rule="nonzero"/></clipPath><clipPath id="f16543f7b8"><path d="M 138.804688 40.949219 L 150.804688 40.949219 L 150.804688 52.949219 L 138.804688 52.949219 Z M 138.804688 40.949219 " clip-rule="nonzero"/></clipPath></defs><g fill="#0c9d57" fill-opacity="1"><g transform="translate(8.714311, 58.028529)"><g><path d="M 3.140625 -43.125 L 18.546875 -43.125 C 22.703125 -43.125 26.082031 -42.015625 28.6875 -39.796875 C 31.300781 -37.585938 32.609375 -34.425781 32.609375 -30.3125 C 32.609375 -27.144531 31.816406 -24.488281 30.234375 -22.34375 C 28.648438 -20.195312 26.5 -18.691406 23.78125 -17.828125 L 38.625 0 L 26.140625 0 L 12.96875 -17.03125 L 12.96875 0 L 3.140625 0 Z M 12.96875 -23.984375 L 14.109375 -23.984375 C 15.015625 -23.984375 15.78125 -24 16.40625 -24.03125 C 17.039062 -24.070312 17.753906 -24.195312 18.546875 -24.40625 C 19.347656 -24.613281 19.992188 -24.910156 20.484375 -25.296875 C 20.972656 -25.679688 21.390625 -26.238281 21.734375 -26.96875 C 22.085938 -27.695312 22.265625 -28.582031 22.265625 -29.625 C 22.265625 -30.675781 22.085938 -31.566406 21.734375 -32.296875 C 21.390625 -33.023438 20.972656 -33.582031 20.484375 -33.96875 C 19.992188 -34.351562 19.347656 -34.648438 18.546875 -34.859375 C 17.753906 -35.066406 17.039062 -35.1875 16.40625 -35.21875 C 15.78125 -35.257812 15.015625 -35.28125 14.109375 -35.28125 L 12.96875 -35.28125 Z M 12.96875 -23.984375 "/></g></g></g><g fill="#0c9d57" fill-opacity="1"><g transform="translate(41.215483, 58.028529)"><g><path d="M 30.265625 -12.125 L 10.8125 -12.125 C 10.8125 -10.238281 11.421875 -8.84375 12.640625 -7.9375 C 13.867188 -7.03125 15.195312 -6.578125 16.625 -6.578125 C 18.125 -6.578125 19.304688 -6.773438 20.171875 -7.171875 C 21.046875 -7.578125 22.039062 -8.375 23.15625 -9.5625 L 29.84375 -6.21875 C 27.050781 -1.550781 22.414062 0.78125 15.9375 0.78125 C 11.894531 0.78125 8.425781 -0.601562 5.53125 -3.375 C 2.644531 -6.144531 1.203125 -9.476562 1.203125 -13.375 C 1.203125 -17.28125 2.644531 -20.625 5.53125 -23.40625 C 8.425781 -26.195312 11.894531 -27.59375 15.9375 -27.59375 C 20.1875 -27.59375 23.644531 -26.363281 26.3125 -23.90625 C 28.976562 -21.457031 30.3125 -17.945312 30.3125 -13.375 C 30.3125 -12.75 30.296875 -12.332031 30.265625 -12.125 Z M 11.078125 -17.25 L 21.265625 -17.25 C 21.054688 -18.644531 20.507812 -19.710938 19.625 -20.453125 C 18.738281 -21.203125 17.597656 -21.578125 16.203125 -21.578125 C 14.671875 -21.578125 13.453125 -21.175781 12.546875 -20.375 C 11.640625 -19.582031 11.148438 -18.539062 11.078125 -17.25 Z M 11.078125 -17.25 "/></g></g></g><g fill="#0c9d57" fill-opacity="1"><g transform="translate(67.811843, 58.028529)"><g><path d="M 3.140625 0 L 3.140625 -26.8125 L 12.390625 -26.8125 L 12.390625 -23.984375 L 12.484375 -23.984375 C 14.890625 -26.390625 17.453125 -27.59375 20.171875 -27.59375 C 21.492188 -27.59375 22.804688 -27.414062 24.109375 -27.0625 C 25.421875 -26.71875 26.675781 -26.179688 27.875 -25.453125 C 29.082031 -24.722656 30.0625 -23.6875 30.8125 -22.34375 C 31.5625 -21 31.9375 -19.441406 31.9375 -17.671875 L 31.9375 0 L 22.6875 0 L 22.6875 -15.15625 C 22.6875 -16.550781 22.238281 -17.769531 21.34375 -18.8125 C 20.457031 -19.863281 19.300781 -20.390625 17.875 -20.390625 C 16.476562 -20.390625 15.210938 -19.847656 14.078125 -18.765625 C 12.953125 -17.679688 12.390625 -16.476562 12.390625 -15.15625 L 12.390625 0 Z M 3.140625 0 "/></g></g></g><g fill="#0c9d57" fill-opacity="1"><g transform="translate(97.438993, 58.028529)"><g><path d="M 4.703125 -26.8125 L 4.703125 -36.796875 L 13.953125 -36.796875 L 13.953125 -26.8125 L 19.59375 -26.8125 L 19.59375 -19.75 L 13.953125 -19.75 L 13.953125 -11.234375 C 13.953125 -8.765625 14.648438 -7.53125 16.046875 -7.53125 C 16.390625 -7.53125 16.753906 -7.597656 17.140625 -7.734375 C 17.523438 -7.867188 17.820312 -8.007812 18.03125 -8.15625 L 18.34375 -8.359375 L 20.640625 -0.890625 C 18.660156 0.222656 16.394531 0.78125 13.84375 0.78125 C 12.101562 0.78125 10.601562 0.476562 9.34375 -0.125 C 8.09375 -0.738281 7.144531 -1.554688 6.5 -2.578125 C 5.863281 -3.609375 5.40625 -4.691406 5.125 -5.828125 C 4.84375 -6.960938 4.703125 -8.171875 4.703125 -9.453125 L 4.703125 -19.75 L 0.84375 -19.75 L 0.84375 -26.8125 Z M 4.703125 -26.8125 "/></g></g></g><g fill="#0c9d57" fill-opacity="1"><g transform="translate(113.17639, 58.028529)"><g/></g></g><g fill="#0c9d57" fill-opacity="1"><g transform="translate(122.528606, 58.028529)"><g/></g></g><g fill="#0c9d57" fill-opacity="1"><g transform="translate(131.880822, 58.028529)"><g/></g></g><g fill="#0c9d57" fill-opacity="1"><g transform="translate(141.233038, 58.028529)"><g/></g></g><g fill="#0c9d57" fill-opacity="1"><g transform="translate(150.585255, 58.028529)"><g/></g></g><g fill="#0c9d57" fill-opacity="1"><g transform="translate(159.937471, 58.028529)"><g/></g></g><g fill="#0c9d57" fill-opacity="1"><g transform="translate(169.294558, 58.028529)"><g><path d="M 3.140625 0 L 3.140625 -44.953125 L 12.390625 -44.953125 L 12.390625 0 Z M 3.140625 0 "/></g></g></g><g clip-path="url(#2ad088e236)"><path fill="#086639" d="M 168.632812 36.453125 L 146.382812 17.242188 C 146.367188 17.230469 146.351562 17.222656 146.335938 17.207031 C 146.300781 17.179688 146.265625 17.152344 146.230469 17.125 C 146.203125 17.105469 146.175781 17.085938 146.148438 17.070312 C 146.109375 17.042969 146.074219 17.023438 146.039062 17 C 146.007812 16.980469 145.976562 16.964844 145.945312 16.949219 C 145.910156 16.929688 145.875 16.914062 145.839844 16.898438 C 145.804688 16.878906 145.769531 16.863281 145.730469 16.847656 C 145.699219 16.835938 145.667969 16.824219 145.636719 16.8125 C 145.597656 16.796875 145.554688 16.785156 145.515625 16.773438 C 145.484375 16.765625 145.453125 16.757812 145.421875 16.75 C 145.378906 16.738281 145.339844 16.730469 145.296875 16.722656 C 145.265625 16.714844 145.234375 16.710938 145.203125 16.707031 C 145.160156 16.699219 145.121094 16.695312 145.078125 16.691406 C 145.042969 16.6875 145.011719 16.683594 144.976562 16.683594 C 144.9375 16.683594 144.898438 16.679688 144.859375 16.679688 C 144.820312 16.679688 144.785156 16.683594 144.75 16.683594 C 144.714844 16.683594 144.675781 16.6875 144.636719 16.691406 C 144.601562 16.695312 144.5625 16.699219 144.527344 16.703125 C 144.488281 16.710938 144.453125 16.714844 144.417969 16.722656 C 144.382812 16.730469 144.34375 16.738281 144.304688 16.75 C 144.269531 16.757812 144.234375 16.765625 144.199219 16.777344 C 144.164062 16.785156 144.128906 16.796875 144.089844 16.8125 C 144.054688 16.824219 144.019531 16.835938 143.984375 16.851562 C 143.953125 16.863281 143.917969 16.878906 143.882812 16.894531 C 143.847656 16.914062 143.8125 16.929688 143.773438 16.949219 C 143.742188 16.964844 143.714844 16.980469 143.6875 17 C 143.648438 17.019531 143.609375 17.046875 143.574219 17.070312 C 143.546875 17.085938 143.519531 17.105469 143.492188 17.125 C 143.457031 17.152344 143.421875 17.179688 143.386719 17.210938 C 143.371094 17.222656 143.355469 17.230469 143.339844 17.242188 L 136.046875 23.539062 L 136.046875 21.007812 C 136.046875 20.316406 135.484375 19.753906 134.792969 19.753906 L 130.484375 19.753906 C 129.796875 19.753906 129.230469 20.316406 129.230469 21.007812 L 129.230469 29.421875 L 121.089844 36.453125 C 120.117188 37.292969 120.007812 38.761719 120.847656 39.734375 C 121.308594 40.265625 121.957031 40.539062 122.613281 40.539062 C 123.148438 40.539062 123.691406 40.355469 124.128906 39.972656 L 144.859375 22.078125 L 165.589844 39.972656 C 166.03125 40.355469 166.570312 40.539062 167.109375 40.539062 C 167.765625 40.539062 168.414062 40.265625 168.875 39.734375 C 169.710938 38.761719 169.605469 37.292969 168.632812 36.453125 " fill-opacity="1" fill-rule="nonzero"/></g><g clip-path="url(#faa292fdf8)"><path fill="#086639" d="M 153.660156 42.347656 C 153.363281 45.449219 146.523438 51.253906 144.859375 54.242188 C 143.199219 51.253906 136.359375 45.449219 136.0625 42.347656 C 135.769531 39.25 137.808594 37.300781 140.332031 37.300781 C 142.261719 37.300781 144.144531 38.863281 144.816406 40.699219 C 144.835938 40.746094 144.851562 40.820312 144.859375 40.910156 C 144.875 40.820312 144.886719 40.746094 144.90625 40.699219 C 145.578125 38.863281 147.460938 37.300781 149.390625 37.300781 C 151.914062 37.300781 153.953125 39.25 153.660156 42.347656 M 160.867188 38.894531 L 146.214844 26.25 C 145.46875 25.605469 144.25 25.605469 143.507812 26.25 L 128.855469 38.894531 C 128.113281 39.539062 127.5 40.871094 127.5 41.855469 L 127.5 56.53125 C 127.5 57.511719 128.308594 58.320312 129.292969 58.320312 L 160.429688 58.320312 C 161.414062 58.320312 162.21875 57.511719 162.21875 56.53125 L 162.21875 41.855469 C 162.21875 40.871094 161.609375 39.539062 160.867188 38.894531 " fill-opacity="1" fill-rule="nonzero"/></g><g clip-path="url(#f16543f7b8)"><path fill="#086639" d="M 146.210938 44.511719 C 146.210938 43.980469 146.644531 43.546875 147.175781 43.546875 C 147.710938 43.546875 148.144531 43.980469 148.144531 44.511719 C 148.144531 45.042969 147.710938 45.476562 147.175781 45.476562 C 146.644531 45.476562 146.210938 45.042969 146.210938 44.511719 Z M 145.785156 48.722656 C 145.785156 49.164062 145.425781 49.523438 144.980469 49.523438 C 144.539062 49.523438 144.179688 49.164062 144.179688 48.722656 C 144.179688 48.277344 144.539062 47.917969 144.980469 47.917969 C 145.425781 47.917969 145.785156 48.277344 145.785156 48.722656 Z M 143.882812 41.214844 C 144.5 41.214844 145 41.714844 145 42.328125 C 145 42.945312 144.5 43.445312 143.882812 43.445312 C 143.269531 43.445312 142.769531 42.945312 142.769531 42.328125 C 142.769531 41.714844 143.269531 41.214844 143.882812 41.214844 Z M 150.753906 44.320312 C 150.652344 44.171875 150.492188 44.070312 150.3125 44.046875 C 150.132812 44.027344 149.953125 44.082031 149.820312 44.199219 C 148.847656 45.070312 148.453125 45.28125 148.054688 45.371094 C 148.273438 45.148438 148.40625 44.84375 148.40625 44.511719 C 148.40625 43.832031 147.855469 43.28125 147.175781 43.28125 C 146.5 43.28125 145.949219 43.832031 145.949219 44.511719 C 145.949219 44.996094 146.230469 45.414062 146.636719 45.617188 C 146.617188 45.621094 146.59375 45.625 146.574219 45.628906 L 146.257812 45.699219 C 145.894531 45.78125 145.628906 45.914062 145.460938 46.101562 L 145.417969 44.925781 C 145.402344 44.457031 145.117188 44.03125 144.683594 43.847656 L 144.246094 43.660156 C 144.832031 43.5 145.261719 42.964844 145.261719 42.328125 C 145.261719 41.570312 144.644531 40.949219 143.882812 40.949219 C 143.121094 40.949219 142.503906 41.570312 142.503906 42.328125 C 142.503906 42.667969 142.628906 42.980469 142.832031 43.222656 C 141.441406 42.753906 140.570312 41.84375 140.148438 41.300781 C 140.027344 41.140625 139.839844 41.042969 139.640625 41.027344 C 139.4375 41.011719 139.234375 41.085938 139.089844 41.226562 C 138.851562 41.457031 138.800781 41.816406 138.972656 42.101562 C 139.34375 42.726562 140.191406 43.894531 141.746094 44.765625 L 141.746094 52.917969 C 141.746094 52.992188 141.804688 53.050781 141.875 53.050781 C 141.949219 53.050781 142.007812 52.992188 142.007812 52.917969 L 142.007812 44.6875 C 142.007812 44.640625 141.984375 44.59375 141.941406 44.570312 C 140.398438 43.726562 139.558594 42.578125 139.199219 41.96875 C 139.089844 41.789062 139.121094 41.5625 139.269531 41.417969 C 139.363281 41.328125 139.492188 41.28125 139.621094 41.289062 C 139.75 41.300781 139.863281 41.359375 139.941406 41.460938 C 140.441406 42.109375 141.554688 43.253906 143.394531 43.648438 C 143.609375 43.695312 143.824219 43.765625 144.035156 43.855469 L 144.578125 44.089844 C 144.917969 44.234375 145.144531 44.566406 145.152344 44.933594 L 145.253906 47.691406 C 145.167969 47.667969 145.074219 47.65625 144.980469 47.65625 C 144.394531 47.65625 143.914062 48.132812 143.914062 48.722656 C 143.914062 48.941406 143.980469 49.148438 144.097656 49.316406 C 143.722656 49.132812 143.441406 48.855469 143.242188 48.609375 C 143.125 48.464844 142.957031 48.378906 142.777344 48.363281 C 142.597656 48.347656 142.421875 48.410156 142.289062 48.53125 C 142.039062 48.761719 142.003906 49.136719 142.207031 49.40625 C 142.539062 49.84375 143.03125 50.382812 143.558594 50.566406 L 143.507812 52.835938 C 143.503906 52.910156 143.5625 52.96875 143.636719 52.972656 C 143.636719 52.972656 143.636719 52.972656 143.640625 52.972656 C 143.710938 52.972656 143.769531 52.914062 143.769531 52.84375 L 143.824219 50.472656 C 143.828125 50.414062 143.785156 50.359375 143.726562 50.34375 C 143.210938 50.210938 142.683594 49.601562 142.417969 49.25 C 142.296875 49.089844 142.316406 48.863281 142.464844 48.726562 C 142.546875 48.652344 142.648438 48.617188 142.757812 48.625 C 142.867188 48.632812 142.964844 48.6875 143.035156 48.773438 C 143.40625 49.238281 144.046875 49.789062 144.980469 49.789062 C 145.914062 49.789062 146.554688 49.238281 146.925781 48.773438 C 146.996094 48.6875 147.09375 48.632812 147.203125 48.625 C 147.3125 48.617188 147.414062 48.652344 147.496094 48.726562 C 147.644531 48.863281 147.667969 49.089844 147.546875 49.25 C 147.277344 49.601562 146.753906 50.210938 146.234375 50.34375 C 146.175781 50.359375 146.136719 50.414062 146.136719 50.472656 L 146.191406 52.84375 C 146.191406 52.914062 146.25 52.972656 146.324219 52.972656 C 146.324219 52.972656 146.324219 52.972656 146.328125 52.972656 C 146.398438 52.96875 146.457031 52.910156 146.453125 52.835938 L 146.402344 50.566406 C 146.929688 50.382812 147.425781 49.84375 147.753906 49.40625 C 147.960938 49.136719 147.925781 48.761719 147.675781 48.53125 C 147.539062 48.410156 147.367188 48.347656 147.183594 48.363281 C 147.003906 48.378906 146.835938 48.464844 146.722656 48.609375 C 146.523438 48.855469 146.238281 49.132812 145.867188 49.316406 C 145.980469 49.148438 146.046875 48.941406 146.046875 48.722656 C 146.046875 48.328125 145.835938 47.988281 145.519531 47.800781 C 145.519531 47.796875 145.523438 47.789062 145.523438 47.78125 L 145.484375 46.828125 C 145.492188 46.8125 145.492188 46.796875 145.492188 46.785156 C 145.480469 46.335938 145.726562 46.085938 146.3125 45.957031 L 146.632812 45.886719 C 146.945312 45.816406 147.289062 45.753906 147.683594 45.699219 L 147.761719 45.6875 C 148.347656 45.605469 148.703125 45.554688 149.996094 44.398438 C 150.074219 44.328125 150.175781 44.296875 150.277344 44.308594 C 150.382812 44.324219 150.476562 44.378906 150.535156 44.46875 C 150.640625 44.628906 150.574219 44.8125 150.480469 44.929688 C 149.960938 45.566406 148.917969 46.40625 148.128906 46.648438 C 148.074219 46.667969 148.035156 46.71875 148.035156 46.773438 L 148.035156 47.964844 C 148.035156 47.984375 148.039062 48.007812 148.050781 48.027344 C 148.058594 48.039062 148.738281 49.25 149.042969 51.058594 L 147.921875 51.058594 C 147.851562 51.058594 147.792969 51.117188 147.792969 51.191406 L 147.792969 52.839844 C 147.792969 52.914062 147.851562 52.972656 147.921875 52.972656 C 147.996094 52.972656 148.054688 52.914062 148.054688 52.839844 L 148.054688 51.320312 L 149.195312 51.320312 C 149.234375 51.320312 149.273438 51.304688 149.296875 51.277344 C 149.320312 51.246094 149.332031 51.207031 149.328125 51.167969 C 149.050781 49.371094 148.414062 48.140625 148.296875 47.929688 L 148.296875 46.871094 C 149.128906 46.578125 150.152344 45.753906 150.683594 45.097656 C 150.878906 44.855469 150.90625 44.550781 150.753906 44.320312 " fill-opacity="1" fill-rule="nonzero"/></g><g fill="#0c9d57" fill-opacity="1"><g transform="translate(184.143432, 52.414611)"><g><path d="M 16.515625 -38.34375 L 16.515625 -32.71875 C 17.898438 -32.539062 19.234375 -32.210938 20.515625 -31.734375 C 21.804688 -31.253906 22.757812 -30.816406 23.375 -30.421875 L 24.28125 -29.859375 L 21.375 -24.125 C 21.132812 -24.28125 20.804688 -24.476562 20.390625 -24.71875 C 19.984375 -24.957031 19.207031 -25.273438 18.0625 -25.671875 C 16.925781 -26.078125 15.882812 -26.28125 14.9375 -26.28125 C 13.6875 -26.28125 12.738281 -26.03125 12.09375 -25.53125 C 11.457031 -25.039062 11.140625 -24.347656 11.140625 -23.453125 C 11.140625 -23.023438 11.28125 -22.617188 11.5625 -22.234375 C 11.84375 -21.847656 12.347656 -21.445312 13.078125 -21.03125 C 13.804688 -20.625 14.421875 -20.304688 14.921875 -20.078125 C 15.429688 -19.859375 16.285156 -19.492188 17.484375 -18.984375 C 17.535156 -18.960938 17.578125 -18.941406 17.609375 -18.921875 C 17.648438 -18.910156 17.695312 -18.894531 17.75 -18.875 C 19.800781 -18 21.554688 -16.8125 23.015625 -15.3125 C 24.472656 -13.8125 25.203125 -12.101562 25.203125 -10.1875 C 25.203125 -7.269531 24.410156 -5 22.828125 -3.375 C 21.253906 -1.757812 19.148438 -0.726562 16.515625 -0.28125 L 16.515625 5.5 L 12.21875 5.5 L 12.21875 0 C 10.945312 -0.0820312 9.703125 -0.273438 8.484375 -0.578125 C 7.265625 -0.878906 6.242188 -1.226562 5.421875 -1.625 C 4.597656 -2.03125 3.859375 -2.425781 3.203125 -2.8125 C 2.554688 -3.195312 2.070312 -3.519531 1.75 -3.78125 L 1.3125 -4.1875 L 4.9375 -10.234375 C 5.257812 -9.960938 5.679688 -9.628906 6.203125 -9.234375 C 6.734375 -8.835938 7.6875 -8.304688 9.0625 -7.640625 C 10.445312 -6.984375 11.671875 -6.65625 12.734375 -6.65625 C 15.765625 -6.65625 17.28125 -7.6875 17.28125 -9.75 C 17.28125 -10.207031 17.164062 -10.625 16.9375 -11 C 16.71875 -11.382812 16.332031 -11.753906 15.78125 -12.109375 C 15.238281 -12.472656 14.753906 -12.769531 14.328125 -13 C 13.910156 -13.226562 13.226562 -13.5625 12.28125 -14 C 11.34375 -14.4375 10.632812 -14.773438 10.15625 -15.015625 C 8.238281 -15.960938 6.75 -17.144531 5.6875 -18.5625 C 4.625 -19.988281 4.09375 -21.523438 4.09375 -23.171875 C 4.09375 -25.535156 4.882812 -27.570312 6.46875 -29.28125 C 8.050781 -30.988281 9.96875 -32.097656 12.21875 -32.609375 L 12.21875 -38.34375 Z M 16.515625 -38.34375 "/></g></g></g></svg>