<svg xmlns="http://www.w3.org/2000/svg" xmlns:xlink="http://www.w3.org/1999/xlink" width="220" zoomAndPan="magnify" viewBox="0 0 165 52.499999" height="70" preserveAspectRatio="xMidYMid meet" version="1.0"><defs><g/><clipPath id="9389f28961"><path d="M 92.25 11.902344 L 130.136719 11.902344 L 130.136719 31 L 92.25 31 Z M 92.25 11.902344 " clip-rule="nonzero"/></clipPath><clipPath id="49086505a9"><path d="M 97 18 L 125 18 L 125 43.847656 L 97 43.847656 Z M 97 18 " clip-rule="nonzero"/></clipPath><clipPath id="b8b588cdd8"><path d="M 105.445312 29.585938 L 115.105469 29.585938 L 115.105469 39.242188 L 105.445312 39.242188 Z M 105.445312 29.585938 " clip-rule="nonzero"/></clipPath></defs><g fill="#0c9d57" fill-opacity="1"><g transform="translate(3.066059, 43.371841)"><g><path d="M 2.59375 -35.625 L 15.328125 -35.625 C 18.753906 -35.625 21.546875 -34.707031 23.703125 -32.875 C 25.867188 -31.050781 26.953125 -28.441406 26.953125 -25.046875 C 26.953125 -22.429688 26.296875 -20.238281 24.984375 -18.46875 C 23.671875 -16.695312 21.894531 -15.453125 19.65625 -14.734375 L 31.921875 0 L 21.59375 0 L 10.703125 -14.078125 L 10.703125 0 L 2.59375 0 Z M 10.703125 -19.828125 L 11.65625 -19.828125 C 12.40625 -19.828125 13.039062 -19.835938 13.5625 -19.859375 C 14.082031 -19.890625 14.671875 -19.988281 15.328125 -20.15625 C 15.992188 -20.332031 16.523438 -20.578125 16.921875 -20.890625 C 17.328125 -21.210938 17.671875 -21.675781 17.953125 -22.28125 C 18.242188 -22.882812 18.390625 -23.617188 18.390625 -24.484375 C 18.390625 -25.347656 18.242188 -26.082031 17.953125 -26.6875 C 17.671875 -27.289062 17.328125 -27.75 16.921875 -28.0625 C 16.523438 -28.382812 15.992188 -28.628906 15.328125 -28.796875 C 14.671875 -28.972656 14.082031 -29.078125 13.5625 -29.109375 C 13.039062 -29.140625 12.40625 -29.15625 11.65625 -29.15625 L 10.703125 -29.15625 Z M 10.703125 -19.828125 "/></g></g></g><g fill="#0c9d57" fill-opacity="1"><g transform="translate(29.923412, 43.371841)"><g><path d="M 25 -10.015625 L 8.9375 -10.015625 C 8.9375 -8.460938 9.441406 -7.3125 10.453125 -6.5625 C 11.460938 -5.8125 12.554688 -5.4375 13.734375 -5.4375 C 14.972656 -5.4375 15.953125 -5.601562 16.671875 -5.9375 C 17.390625 -6.269531 18.207031 -6.925781 19.125 -7.90625 L 24.65625 -5.140625 C 22.351562 -1.285156 18.523438 0.640625 13.171875 0.640625 C 9.828125 0.640625 6.960938 -0.5 4.578125 -2.78125 C 2.191406 -5.070312 1 -7.828125 1 -11.046875 C 1 -14.273438 2.191406 -17.039062 4.578125 -19.34375 C 6.960938 -21.644531 9.828125 -22.796875 13.171875 -22.796875 C 16.679688 -22.796875 19.535156 -21.78125 21.734375 -19.75 C 23.941406 -17.726562 25.046875 -14.832031 25.046875 -11.0625 C 25.046875 -10.539062 25.03125 -10.191406 25 -10.015625 Z M 9.15625 -14.25 L 17.578125 -14.25 C 17.398438 -15.40625 16.941406 -16.289062 16.203125 -16.90625 C 15.472656 -17.53125 14.535156 -17.84375 13.390625 -17.84375 C 12.117188 -17.84375 11.109375 -17.507812 10.359375 -16.84375 C 9.609375 -16.175781 9.207031 -15.3125 9.15625 -14.25 Z M 9.15625 -14.25 "/></g></g></g><g fill="#0c9d57" fill-opacity="1"><g transform="translate(51.901322, 43.371841)"><g><path d="M 2.59375 0 L 2.59375 -22.15625 L 10.234375 -22.15625 L 10.234375 -19.828125 L 10.328125 -19.828125 C 12.304688 -21.804688 14.421875 -22.796875 16.671875 -22.796875 C 17.765625 -22.796875 18.847656 -22.648438 19.921875 -22.359375 C 21.003906 -22.078125 22.039062 -21.632812 23.03125 -21.03125 C 24.03125 -20.425781 24.835938 -19.566406 25.453125 -18.453125 C 26.078125 -17.347656 26.390625 -16.0625 26.390625 -14.59375 L 26.390625 0 L 18.75 0 L 18.75 -12.53125 C 18.75 -13.675781 18.378906 -14.679688 17.640625 -15.546875 C 16.910156 -16.410156 15.953125 -16.84375 14.765625 -16.84375 C 13.617188 -16.84375 12.578125 -16.394531 11.640625 -15.5 C 10.703125 -14.613281 10.234375 -13.625 10.234375 -12.53125 L 10.234375 0 Z M 2.59375 0 "/></g></g></g><g fill="#0c9d57" fill-opacity="1"><g transform="translate(76.383727, 43.371841)"><g><path d="M 3.890625 -22.15625 L 3.890625 -30.40625 L 11.53125 -30.40625 L 11.53125 -22.15625 L 16.203125 -22.15625 L 16.203125 -16.328125 L 11.53125 -16.328125 L 11.53125 -9.28125 C 11.53125 -7.238281 12.109375 -6.21875 13.265625 -6.21875 C 13.546875 -6.21875 13.84375 -6.273438 14.15625 -6.390625 C 14.476562 -6.503906 14.726562 -6.617188 14.90625 -6.734375 L 15.15625 -6.90625 L 17.0625 -0.734375 C 15.414062 0.179688 13.539062 0.640625 11.4375 0.640625 C 10 0.640625 8.757812 0.390625 7.71875 -0.109375 C 6.6875 -0.609375 5.90625 -1.28125 5.375 -2.125 C 4.84375 -2.976562 4.460938 -3.875 4.234375 -4.8125 C 4.003906 -5.75 3.890625 -6.75 3.890625 -7.8125 L 3.890625 -16.328125 L 0.6875 -16.328125 L 0.6875 -22.15625 Z M 3.890625 -22.15625 "/></g></g></g><g fill="#0c9d57" fill-opacity="1"><g transform="translate(89.388329, 43.371841)"><g/></g></g><g fill="#0c9d57" fill-opacity="1"><g transform="translate(97.116536, 43.371841)"><g/></g></g><g fill="#0c9d57" fill-opacity="1"><g transform="translate(104.844742, 43.371841)"><g/></g></g><g fill="#0c9d57" fill-opacity="1"><g transform="translate(112.572949, 43.371841)"><g/></g></g><g fill="#0c9d57" fill-opacity="1"><g transform="translate(120.301156, 43.371841)"><g/></g></g><g fill="#0c9d57" fill-opacity="1"><g transform="translate(128.032719, 43.371841)"><g><path d="M 2.59375 0 L 2.59375 -37.140625 L 10.234375 -37.140625 L 10.234375 0 Z M 2.59375 0 "/></g></g></g><g clip-path="url(#9389f28961)"><path fill="#086639" d="M 129.453125 27.027344 L 112.429688 12.332031 C 112.417969 12.324219 112.40625 12.316406 112.394531 12.304688 C 112.367188 12.285156 112.34375 12.261719 112.3125 12.242188 C 112.292969 12.226562 112.269531 12.214844 112.25 12.199219 C 112.222656 12.179688 112.195312 12.164062 112.167969 12.148438 C 112.144531 12.132812 112.121094 12.121094 112.09375 12.105469 C 112.070312 12.09375 112.042969 12.082031 112.015625 12.066406 C 111.988281 12.054688 111.960938 12.042969 111.933594 12.03125 C 111.910156 12.023438 111.882812 12.011719 111.859375 12.003906 C 111.828125 11.992188 111.796875 11.984375 111.769531 11.976562 C 111.746094 11.96875 111.71875 11.960938 111.695312 11.953125 C 111.664062 11.945312 111.632812 11.941406 111.601562 11.933594 C 111.578125 11.929688 111.550781 11.925781 111.527344 11.921875 C 111.496094 11.917969 111.464844 11.914062 111.433594 11.910156 C 111.40625 11.90625 111.382812 11.90625 111.355469 11.90625 C 111.324219 11.902344 111.296875 11.902344 111.265625 11.902344 C 111.238281 11.902344 111.210938 11.902344 111.183594 11.90625 C 111.152344 11.90625 111.125 11.90625 111.097656 11.910156 C 111.066406 11.914062 111.039062 11.917969 111.011719 11.921875 C 110.984375 11.925781 110.957031 11.929688 110.929688 11.933594 C 110.898438 11.941406 110.871094 11.945312 110.839844 11.953125 C 110.8125 11.960938 110.789062 11.96875 110.761719 11.976562 C 110.734375 11.984375 110.707031 11.992188 110.675781 12.003906 C 110.652344 12.011719 110.625 12.023438 110.597656 12.035156 C 110.570312 12.042969 110.546875 12.054688 110.519531 12.066406 C 110.492188 12.078125 110.464844 12.09375 110.4375 12.109375 C 110.414062 12.121094 110.390625 12.132812 110.367188 12.144531 C 110.339844 12.164062 110.308594 12.179688 110.28125 12.199219 C 110.261719 12.214844 110.242188 12.226562 110.21875 12.242188 C 110.191406 12.261719 110.164062 12.285156 110.136719 12.308594 C 110.125 12.316406 110.117188 12.324219 110.101562 12.332031 L 104.523438 17.148438 L 104.523438 15.210938 C 104.523438 14.683594 104.09375 14.253906 103.566406 14.253906 L 100.269531 14.253906 C 99.742188 14.253906 99.308594 14.683594 99.308594 15.210938 L 99.308594 21.652344 L 93.082031 27.027344 C 92.335938 27.671875 92.253906 28.796875 92.898438 29.539062 C 93.25 29.945312 93.746094 30.15625 94.246094 30.15625 C 94.65625 30.15625 95.070312 30.011719 95.40625 29.722656 L 111.265625 16.03125 L 127.125 29.722656 C 127.460938 30.011719 127.875 30.15625 128.289062 30.15625 C 128.789062 30.15625 129.285156 29.945312 129.636719 29.539062 C 130.277344 28.796875 130.195312 27.671875 129.453125 27.027344 " fill-opacity="1" fill-rule="nonzero"/></g><g clip-path="url(#49086505a9)"><path fill="#086639" d="M 117.996094 31.539062 C 117.769531 33.910156 112.539062 38.351562 111.265625 40.636719 C 109.996094 38.351562 104.761719 33.910156 104.535156 31.539062 C 104.308594 29.167969 105.871094 27.675781 107.800781 27.675781 C 109.277344 27.675781 110.71875 28.875 111.234375 30.277344 C 111.246094 30.3125 111.257812 30.371094 111.265625 30.4375 C 111.277344 30.371094 111.289062 30.3125 111.300781 30.277344 C 111.8125 28.875 113.257812 27.675781 114.730469 27.675781 C 116.664062 27.675781 118.222656 29.167969 117.996094 31.539062 M 123.511719 28.898438 L 112.304688 19.222656 C 111.734375 18.730469 110.800781 18.730469 110.230469 19.222656 L 99.023438 28.898438 C 98.453125 29.390625 97.988281 30.410156 97.988281 31.160156 L 97.988281 42.386719 C 97.988281 43.140625 98.601562 43.757812 99.355469 43.757812 L 123.175781 43.757812 C 123.929688 43.757812 124.546875 43.140625 124.546875 42.386719 L 124.546875 31.160156 C 124.546875 30.410156 124.082031 29.390625 123.511719 28.898438 " fill-opacity="1" fill-rule="nonzero"/></g><g clip-path="url(#b8b588cdd8)"><path fill="#086639" d="M 111.570312 32.53125 C 111.570312 32.089844 111.929688 31.730469 112.367188 31.730469 C 112.808594 31.730469 113.167969 32.089844 113.167969 32.53125 C 113.167969 32.96875 112.808594 33.328125 112.367188 33.328125 C 111.929688 33.328125 111.570312 32.96875 111.570312 32.53125 Z M 111.21875 36.007812 C 111.21875 36.375 110.917969 36.675781 110.554688 36.675781 C 110.1875 36.675781 109.890625 36.375 109.890625 36.007812 C 109.890625 35.644531 110.1875 35.34375 110.554688 35.34375 C 110.917969 35.34375 111.21875 35.644531 111.21875 36.007812 Z M 109.644531 29.804688 C 110.152344 29.804688 110.566406 30.21875 110.566406 30.726562 C 110.566406 31.234375 110.152344 31.648438 109.644531 31.648438 C 109.136719 31.648438 108.722656 31.234375 108.722656 30.726562 C 108.722656 30.21875 109.136719 29.804688 109.644531 29.804688 Z M 115.324219 32.371094 C 115.242188 32.246094 115.109375 32.164062 114.960938 32.148438 C 114.8125 32.128906 114.664062 32.171875 114.554688 32.273438 C 113.75 32.992188 113.421875 33.167969 113.09375 33.238281 C 113.273438 33.054688 113.386719 32.804688 113.386719 32.53125 C 113.386719 31.96875 112.929688 31.511719 112.367188 31.511719 C 111.808594 31.511719 111.351562 31.96875 111.351562 32.53125 C 111.351562 32.929688 111.585938 33.277344 111.921875 33.441406 C 111.902344 33.445312 111.886719 33.449219 111.871094 33.453125 L 111.609375 33.511719 C 111.308594 33.578125 111.089844 33.6875 110.949219 33.84375 L 110.914062 32.875 C 110.902344 32.484375 110.664062 32.132812 110.308594 31.980469 L 109.945312 31.824219 C 110.429688 31.691406 110.785156 31.25 110.785156 30.726562 C 110.785156 30.097656 110.273438 29.585938 109.644531 29.585938 C 109.015625 29.585938 108.507812 30.097656 108.507812 30.726562 C 108.507812 31.007812 108.609375 31.265625 108.777344 31.464844 C 107.625 31.074219 106.90625 30.324219 106.558594 29.875 C 106.457031 29.742188 106.304688 29.660156 106.136719 29.648438 C 105.96875 29.636719 105.804688 29.699219 105.683594 29.816406 C 105.484375 30.003906 105.445312 30.300781 105.585938 30.539062 C 105.890625 31.054688 106.59375 32.019531 107.878906 32.738281 L 107.878906 39.480469 C 107.878906 39.539062 107.925781 39.589844 107.988281 39.589844 C 108.046875 39.589844 108.097656 39.539062 108.097656 39.480469 L 108.097656 32.675781 C 108.097656 32.636719 108.074219 32.597656 108.039062 32.578125 C 106.765625 31.878906 106.074219 30.929688 105.773438 30.425781 C 105.683594 30.277344 105.710938 30.089844 105.832031 29.972656 C 105.910156 29.898438 106.015625 29.859375 106.121094 29.867188 C 106.226562 29.875 106.320312 29.925781 106.386719 30.007812 C 106.800781 30.542969 107.722656 31.492188 109.242188 31.816406 C 109.417969 31.855469 109.597656 31.910156 109.773438 31.988281 L 110.222656 32.179688 C 110.5 32.300781 110.6875 32.574219 110.695312 32.878906 L 110.777344 35.15625 C 110.707031 35.136719 110.632812 35.128906 110.554688 35.128906 C 110.066406 35.128906 109.671875 35.523438 109.671875 36.007812 C 109.671875 36.191406 109.726562 36.363281 109.820312 36.503906 C 109.515625 36.351562 109.28125 36.121094 109.113281 35.914062 C 109.019531 35.796875 108.882812 35.726562 108.734375 35.714844 C 108.582031 35.703125 108.4375 35.75 108.328125 35.851562 C 108.121094 36.042969 108.089844 36.355469 108.261719 36.578125 C 108.535156 36.9375 108.941406 37.382812 109.378906 37.535156 L 109.335938 39.410156 C 109.332031 39.472656 109.382812 39.523438 109.441406 39.523438 C 109.441406 39.523438 109.441406 39.523438 109.445312 39.523438 C 109.503906 39.523438 109.550781 39.476562 109.554688 39.417969 L 109.597656 37.457031 C 109.597656 37.40625 109.566406 37.363281 109.515625 37.351562 C 109.089844 37.238281 108.65625 36.734375 108.433594 36.445312 C 108.332031 36.3125 108.351562 36.128906 108.476562 36.015625 C 108.539062 35.953125 108.625 35.925781 108.714844 35.929688 C 108.804688 35.9375 108.886719 35.980469 108.945312 36.050781 C 109.253906 36.433594 109.78125 36.890625 110.554688 36.890625 C 111.324219 36.890625 111.855469 36.433594 112.164062 36.050781 C 112.21875 35.980469 112.300781 35.9375 112.390625 35.929688 C 112.480469 35.925781 112.566406 35.953125 112.632812 36.015625 C 112.757812 36.128906 112.773438 36.3125 112.671875 36.445312 C 112.453125 36.734375 112.019531 37.238281 111.589844 37.351562 C 111.542969 37.363281 111.507812 37.40625 111.507812 37.457031 L 111.554688 39.417969 C 111.554688 39.476562 111.605469 39.523438 111.664062 39.523438 C 111.726562 39.523438 111.773438 39.472656 111.773438 39.410156 L 111.730469 37.535156 C 112.164062 37.382812 112.574219 36.9375 112.847656 36.578125 C 113.015625 36.355469 112.988281 36.042969 112.777344 35.851562 C 112.667969 35.75 112.523438 35.703125 112.375 35.714844 C 112.226562 35.726562 112.085938 35.796875 111.992188 35.914062 C 111.828125 36.121094 111.59375 36.351562 111.285156 36.503906 C 111.378906 36.363281 111.433594 36.191406 111.433594 36.007812 C 111.433594 35.6875 111.261719 35.402344 111 35.25 C 111 35.242188 111 35.238281 111 35.234375 L 110.972656 34.441406 C 110.972656 34.433594 110.976562 34.417969 110.976562 34.40625 C 110.964844 34.035156 111.167969 33.832031 111.65625 33.722656 L 111.917969 33.664062 C 112.175781 33.609375 112.460938 33.558594 112.789062 33.511719 L 112.851562 33.5 C 113.335938 33.433594 113.628906 33.390625 114.699219 32.433594 C 114.761719 32.378906 114.847656 32.351562 114.933594 32.363281 C 115.019531 32.375 115.09375 32.421875 115.144531 32.492188 C 115.230469 32.625 115.179688 32.777344 115.097656 32.875 C 114.671875 33.402344 113.804688 34.097656 113.15625 34.296875 C 113.109375 34.3125 113.078125 34.351562 113.078125 34.402344 L 113.078125 35.382812 C 113.078125 35.402344 113.082031 35.421875 113.089844 35.4375 C 113.097656 35.445312 113.660156 36.449219 113.910156 37.941406 L 112.984375 37.941406 C 112.925781 37.941406 112.875 37.988281 112.875 38.050781 L 112.875 39.414062 C 112.875 39.472656 112.925781 39.523438 112.984375 39.523438 C 113.046875 39.523438 113.09375 39.472656 113.09375 39.414062 L 113.09375 38.160156 L 114.039062 38.160156 C 114.070312 38.160156 114.101562 38.144531 114.121094 38.121094 C 114.140625 38.097656 114.152344 38.066406 114.144531 38.035156 C 113.917969 36.546875 113.390625 35.53125 113.296875 35.355469 L 113.296875 34.480469 C 113.984375 34.238281 114.828125 33.558594 115.269531 33.011719 C 115.429688 32.816406 115.449219 32.5625 115.324219 32.371094 " fill-opacity="1" fill-rule="nonzero"/></g><g fill="#0c9d57" fill-opacity="1"><g transform="translate(136.144414, 43.113194)"><g><path d="M 15.546875 -36.078125 L 15.546875 -30.796875 C 16.847656 -30.617188 18.101562 -30.304688 19.3125 -29.859375 C 20.519531 -29.410156 21.414062 -29 22 -28.625 L 22.859375 -28.09375 L 20.125 -22.703125 C 19.894531 -22.859375 19.585938 -23.046875 19.203125 -23.265625 C 18.816406 -23.492188 18.085938 -23.796875 17.015625 -24.171875 C 15.941406 -24.546875 14.953125 -24.734375 14.046875 -24.734375 C 12.878906 -24.734375 11.992188 -24.5 11.390625 -24.03125 C 10.785156 -23.570312 10.484375 -22.914062 10.484375 -22.0625 C 10.484375 -21.664062 10.613281 -21.285156 10.875 -20.921875 C 11.144531 -20.566406 11.625 -20.191406 12.3125 -19.796875 C 13 -19.410156 13.578125 -19.109375 14.046875 -18.890625 C 14.523438 -18.679688 15.328125 -18.34375 16.453125 -17.875 C 16.503906 -17.84375 16.546875 -17.820312 16.578125 -17.8125 C 16.617188 -17.800781 16.664062 -17.785156 16.71875 -17.765625 C 18.632812 -16.941406 20.28125 -15.820312 21.65625 -14.40625 C 23.03125 -13 23.71875 -11.394531 23.71875 -9.59375 C 23.71875 -6.84375 22.972656 -4.707031 21.484375 -3.1875 C 20.003906 -1.664062 18.023438 -0.691406 15.546875 -0.265625 L 15.546875 5.171875 L 11.5 5.171875 L 11.5 0 C 10.300781 -0.0703125 9.125 -0.25 7.96875 -0.53125 C 6.820312 -0.820312 5.863281 -1.15625 5.09375 -1.53125 C 4.320312 -1.90625 3.628906 -2.273438 3.015625 -2.640625 C 2.398438 -3.003906 1.945312 -3.3125 1.65625 -3.5625 L 1.234375 -3.9375 L 4.640625 -9.625 C 4.941406 -9.375 5.34375 -9.0625 5.84375 -8.6875 C 6.34375 -8.3125 7.238281 -7.8125 8.53125 -7.1875 C 9.832031 -6.5625 10.984375 -6.25 11.984375 -6.25 C 14.835938 -6.25 16.265625 -7.226562 16.265625 -9.1875 C 16.265625 -9.601562 16.15625 -9.992188 15.9375 -10.359375 C 15.726562 -10.722656 15.367188 -11.070312 14.859375 -11.40625 C 14.347656 -11.75 13.890625 -12.023438 13.484375 -12.234375 C 13.085938 -12.441406 12.445312 -12.75 11.5625 -13.15625 C 10.675781 -13.570312 10.003906 -13.894531 9.546875 -14.125 C 7.753906 -15.019531 6.359375 -16.132812 5.359375 -17.46875 C 4.359375 -18.8125 3.859375 -20.257812 3.859375 -21.8125 C 3.859375 -24.03125 4.597656 -25.941406 6.078125 -27.546875 C 7.566406 -29.160156 9.375 -30.207031 11.5 -30.6875 L 11.5 -36.078125 Z M 15.546875 -36.078125 "/></g></g></g></svg>