<svg xmlns="http://www.w3.org/2000/svg" xmlns:xlink="http://www.w3.org/1999/xlink" width="100" zoomAndPan="magnify" viewBox="0 0 75 74.999997" height="100" preserveAspectRatio="xMidYMid meet" version="1.0"><defs><clipPath id="98fdcdeda0"><path d="M 1.550781 1.550781 L 75 1.550781 L 75 75 L 1.550781 75 Z M 1.550781 1.550781 " clip-rule="nonzero"/></clipPath></defs><g clip-path="url(#98fdcdeda0)"><path fill="#4caf50" d="M 38.300781 75.050781 C 58.601562 75.050781 75.050781 58.601562 75.050781 38.300781 C 75.050781 17.996094 58.601562 1.550781 38.300781 1.550781 C 17.996094 1.550781 1.550781 17.996094 1.550781 38.300781 C 1.550781 58.601562 17.996094 75.050781 38.300781 75.050781 Z M 38.300781 75.050781 " fill-opacity="1" fill-rule="evenodd"/></g><path fill="#ffffff" d="M 41.125 17.082031 C 41.125 16.316406 40.492188 15.683594 39.699219 15.683594 L 36.902344 15.683594 C 36.078125 15.683594 35.472656 16.316406 35.472656 17.082031 L 35.472656 35.472656 L 17.082031 35.472656 C 16.316406 35.472656 15.683594 36.105469 15.683594 36.902344 L 15.683594 39.699219 C 15.683594 40.523438 16.316406 41.125 17.082031 41.125 L 35.472656 41.125 L 35.472656 59.515625 C 35.472656 60.28125 36.105469 60.914062 36.902344 60.914062 L 39.699219 60.914062 C 40.523438 60.914062 41.125 60.28125 41.125 59.515625 L 41.125 41.125 L 59.515625 41.125 C 60.28125 41.125 60.914062 40.492188 60.914062 39.699219 L 60.914062 36.902344 C 60.914062 36.078125 60.28125 35.472656 59.515625 35.472656 L 41.125 35.472656 Z M 41.125 17.082031 " fill-opacity="1" fill-rule="evenodd"/></svg>