<svg xmlns="http://www.w3.org/2000/svg" xmlns:xlink="http://www.w3.org/1999/xlink" width="100" zoomAndPan="magnify" viewBox="0 0 75 74.999997" height="100" preserveAspectRatio="xMidYMid meet" version="1.0"><defs><clipPath id="ad32f88ec4"><path d="M 18 0.828125 L 57 0.828125 L 57 39 L 18 39 Z M 18 0.828125 " clip-rule="nonzero"/></clipPath><clipPath id="3de3e3224d"><path d="M 6.09375 40 L 69 40 L 69 74.328125 L 6.09375 74.328125 Z M 6.09375 40 " clip-rule="nonzero"/></clipPath></defs><g clip-path="url(#ad32f88ec4)"><path fill="#0f711e" d="M 56.574219 19.894531 C 56.574219 20.519531 56.542969 21.144531 56.480469 21.765625 C 56.421875 22.386719 56.328125 23.003906 56.207031 23.617188 C 56.085938 24.230469 55.933594 24.835938 55.75 25.433594 C 55.570312 26.03125 55.359375 26.617188 55.121094 27.195312 C 54.882812 27.773438 54.617188 28.335938 54.320312 28.886719 C 54.027344 29.4375 53.707031 29.972656 53.359375 30.492188 C 53.011719 31.011719 52.640625 31.511719 52.242188 31.996094 C 51.847656 32.476562 51.429688 32.941406 50.988281 33.382812 C 50.546875 33.824219 50.082031 34.242188 49.601562 34.640625 C 49.117188 35.035156 48.617188 35.40625 48.097656 35.753906 C 47.578125 36.101562 47.042969 36.421875 46.492188 36.714844 C 45.941406 37.011719 45.378906 37.277344 44.800781 37.515625 C 44.222656 37.753906 43.636719 37.964844 43.039062 38.148438 C 42.441406 38.328125 41.835938 38.480469 41.222656 38.601562 C 40.609375 38.722656 39.992188 38.816406 39.371094 38.875 C 38.75 38.9375 38.125 38.96875 37.5 38.96875 C 36.878906 38.96875 36.253906 38.9375 35.632812 38.875 C 35.011719 38.816406 34.394531 38.722656 33.78125 38.601562 C 33.167969 38.480469 32.5625 38.328125 31.964844 38.148438 C 31.367188 37.964844 30.78125 37.753906 30.203125 37.515625 C 29.625 37.277344 29.0625 37.011719 28.511719 36.714844 C 27.960938 36.421875 27.425781 36.101562 26.90625 35.753906 C 26.386719 35.40625 25.886719 35.035156 25.402344 34.640625 C 24.921875 34.242188 24.457031 33.824219 24.015625 33.382812 C 23.574219 32.941406 23.15625 32.476562 22.757812 31.996094 C 22.363281 31.511719 21.992188 31.011719 21.644531 30.492188 C 21.296875 29.972656 20.976562 29.4375 20.683594 28.886719 C 20.386719 28.335938 20.121094 27.773438 19.882812 27.195312 C 19.644531 26.617188 19.433594 26.03125 19.25 25.433594 C 19.070312 24.835938 18.917969 24.230469 18.796875 23.617188 C 18.675781 23.003906 18.582031 22.386719 18.523438 21.765625 C 18.460938 21.144531 18.429688 20.519531 18.429688 19.894531 C 18.429688 19.273438 18.460938 18.648438 18.523438 18.027344 C 18.582031 17.40625 18.675781 16.789062 18.796875 16.175781 C 18.917969 15.5625 19.070312 14.957031 19.25 14.359375 C 19.433594 13.761719 19.644531 13.175781 19.882812 12.597656 C 20.121094 12.019531 20.386719 11.457031 20.683594 10.90625 C 20.976562 10.355469 21.296875 9.820312 21.644531 9.300781 C 21.992188 8.78125 22.363281 8.28125 22.757812 7.796875 C 23.15625 7.316406 23.574219 6.851562 24.015625 6.410156 C 24.457031 5.96875 24.921875 5.550781 25.402344 5.152344 C 25.886719 4.757812 26.386719 4.386719 26.90625 4.039062 C 27.425781 3.691406 27.960938 3.371094 28.511719 3.078125 C 29.0625 2.78125 29.625 2.515625 30.203125 2.277344 C 30.78125 2.039062 31.367188 1.828125 31.964844 1.644531 C 32.5625 1.464844 33.167969 1.3125 33.78125 1.191406 C 34.394531 1.070312 35.011719 0.976562 35.632812 0.917969 C 36.253906 0.855469 36.878906 0.824219 37.5 0.824219 C 38.125 0.824219 38.75 0.855469 39.371094 0.917969 C 39.992188 0.976562 40.609375 1.070312 41.222656 1.191406 C 41.835938 1.3125 42.441406 1.464844 43.039062 1.644531 C 43.636719 1.828125 44.222656 2.039062 44.800781 2.277344 C 45.378906 2.515625 45.941406 2.78125 46.492188 3.078125 C 47.042969 3.371094 47.578125 3.691406 48.097656 4.039062 C 48.617188 4.386719 49.117188 4.757812 49.601562 5.152344 C 50.082031 5.550781 50.546875 5.96875 50.988281 6.410156 C 51.429688 6.851562 51.847656 7.316406 52.242188 7.796875 C 52.640625 8.28125 53.011719 8.78125 53.359375 9.300781 C 53.707031 9.820312 54.027344 10.355469 54.320312 10.90625 C 54.617188 11.457031 54.882812 12.019531 55.121094 12.597656 C 55.359375 13.175781 55.570312 13.761719 55.75 14.359375 C 55.933594 14.957031 56.085938 15.5625 56.207031 16.175781 C 56.328125 16.789062 56.421875 17.40625 56.480469 18.027344 C 56.542969 18.648438 56.574219 19.273438 56.574219 19.894531 Z M 56.574219 19.894531 " fill-opacity="1" fill-rule="nonzero"/></g><g clip-path="url(#3de3e3224d)"><path fill="#0f711e" d="M 37.5 40.289062 C 36.011719 40.289062 34.527344 40.386719 33.050781 40.582031 C 31.574219 40.777344 30.113281 41.070312 28.675781 41.460938 C 27.238281 41.847656 25.832031 42.332031 24.457031 42.90625 C 23.082031 43.480469 21.75 44.144531 20.460938 44.894531 C 19.175781 45.644531 17.941406 46.476562 16.765625 47.390625 C 15.585938 48.304688 14.476562 49.292969 13.429688 50.351562 C 12.382812 51.414062 11.410156 52.539062 10.511719 53.726562 C 9.613281 54.917969 8.796875 56.160156 8.0625 57.457031 C 7.824219 57.882812 7.613281 58.320312 7.429688 58.769531 C 7.25 59.222656 7.097656 59.679688 6.976562 60.152344 C 6.855469 60.625 6.761719 61.101562 6.703125 61.582031 C 6.644531 62.066406 6.617188 62.550781 6.621094 63.035156 C 6.625 63.523438 6.660156 64.007812 6.726562 64.488281 C 6.792969 64.96875 6.890625 65.445312 7.019531 65.914062 C 7.148438 66.382812 7.304688 66.839844 7.496094 67.289062 C 7.683594 67.738281 7.902344 68.171875 8.144531 68.589844 C 8.390625 69.011719 8.664062 69.414062 8.960938 69.796875 C 9.257812 70.183594 9.578125 70.546875 9.925781 70.886719 C 10.269531 71.230469 10.636719 71.550781 11.023438 71.84375 C 11.410156 72.140625 11.8125 72.40625 12.234375 72.648438 C 12.65625 72.890625 13.09375 73.105469 13.542969 73.289062 C 13.992188 73.476562 14.453125 73.628906 14.921875 73.753906 C 15.390625 73.878906 15.867188 73.976562 16.351562 74.039062 C 16.832031 74.101562 17.316406 74.132812 17.804688 74.132812 L 57.207031 74.132812 C 57.695312 74.132812 58.175781 74.101562 58.660156 74.039062 C 59.140625 73.976562 59.617188 73.882812 60.089844 73.757812 C 60.558594 73.632812 61.019531 73.476562 61.46875 73.292969 C 61.917969 73.105469 62.351562 72.894531 62.773438 72.652344 C 63.195312 72.410156 63.601562 72.140625 63.988281 71.84375 C 64.375 71.550781 64.742188 71.230469 65.085938 70.890625 C 65.429688 70.546875 65.753906 70.183594 66.050781 69.796875 C 66.347656 69.414062 66.621094 69.011719 66.863281 68.59375 C 67.109375 68.171875 67.328125 67.738281 67.515625 67.289062 C 67.703125 66.839844 67.863281 66.382812 67.992188 65.914062 C 68.121094 65.445312 68.21875 64.96875 68.285156 64.488281 C 68.351562 64.003906 68.386719 63.519531 68.386719 63.035156 C 68.390625 62.546875 68.363281 62.0625 68.304688 61.582031 C 68.242188 61.097656 68.152344 60.621094 68.03125 60.152344 C 67.90625 59.679688 67.757812 59.21875 67.574219 58.769531 C 67.390625 58.320312 67.179688 57.882812 66.941406 57.457031 C 66.207031 56.160156 65.390625 54.917969 64.492188 53.726562 C 63.59375 52.539062 62.621094 51.414062 61.574219 50.351562 C 60.527344 49.292969 59.417969 48.304688 58.238281 47.390625 C 57.0625 46.476562 55.828125 45.644531 54.542969 44.894531 C 53.253906 44.144531 51.921875 43.480469 50.546875 42.90625 C 49.171875 42.332031 47.765625 41.847656 46.328125 41.460938 C 44.890625 41.070312 43.429688 40.777344 41.953125 40.582031 C 40.476562 40.386719 38.992188 40.289062 37.5 40.289062 Z M 37.5 40.289062 " fill-opacity="1" fill-rule="nonzero"/></g></svg>