<svg xmlns="http://www.w3.org/2000/svg" xmlns:xlink="http://www.w3.org/1999/xlink" width="100" zoomAndPan="magnify" viewBox="0 0 75 74.999997" height="100" preserveAspectRatio="xMidYMid meet" version="1.0"><defs><filter x="0%" y="0%" width="100%" height="100%" id="40b142ba60"><feColorMatrix values="0 0 0 0 1 0 0 0 0 1 0 0 0 0 1 0 0 0 1 0" color-interpolation-filters="sRGB"/></filter><clipPath id="be345c4345"><path d="M 0 5 L 75 5 L 75 71.4375 L 0 71.4375 Z M 0 5 " clip-rule="nonzero"/></clipPath><mask id="b5b501f2fa"><g filter="url(#40b142ba60)"><rect x="-7.5" width="90" fill="#000000" y="-7.5" height="89.999996" fill-opacity="0.35"/></g></mask><clipPath id="ad4dcf7aff"><path d="M 1 0.28125 L 74.878906 0.28125 L 74.878906 66.28125 L 1 66.28125 Z M 1 0.28125 " clip-rule="nonzero"/></clipPath><clipPath id="094a948879"><rect x="0" width="75" y="0" height="67"/></clipPath><clipPath id="736256ce5f"><path d="M 0 3.9375 L 74 3.9375 L 74 70 L 0 70 Z M 0 3.9375 " clip-rule="nonzero"/></clipPath></defs><g clip-path="url(#be345c4345)"><g mask="url(#b5b501f2fa)"><g transform="matrix(1, 0, 0, 1, 0, 5)"><g clip-path="url(#094a948879)"><g clip-path="url(#ad4dcf7aff)"><path fill="#000000" d="M 42 66.0625 C 39.058594 66.0625 36.660156 63.667969 36.660156 60.722656 L 36.660156 50.042969 C 36.660156 47.101562 39.058594 44.703125 42 44.703125 L 46.265625 44.703125 C 50.042969 44.703125 53.257812 41.78125 53.433594 38.1875 C 53.527344 36.289062 52.859375 34.488281 51.546875 33.109375 C 50.234375 31.734375 48.46875 30.972656 46.578125 30.972656 L 29.796875 30.972656 L 29.796875 35.933594 C 29.796875 37.859375 28.664062 39.628906 26.914062 40.433594 C 26.253906 40.738281 25.554688 40.890625 24.835938 40.890625 C 23.660156 40.890625 22.515625 40.46875 21.621094 39.707031 L 3.859375 23.347656 C 2.738281 22.386719 1.558594 21.710938 1.574219 20.238281 C 1.59375 18.757812 2.257812 17.378906 3.402344 16.449219 L 21.710938 1.574219 C 22.589844 0.859375 23.703125 0.464844 24.835938 0.464844 C 25.566406 0.464844 26.304688 0.628906 26.964844 0.941406 C 28.6875 1.761719 29.796875 3.519531 29.796875 5.421875 L 29.796875 9.617188 L 46.578125 9.617188 C 61.878906 9.617188 74.535156 22.058594 74.796875 37.351562 C 74.921875 44.835938 72.050781 51.949219 66.703125 57.386719 C 61.285156 62.902344 53.773438 66.0625 46.089844 66.0625 Z M 42 66.0625 " fill-opacity="1" fill-rule="nonzero"/></g></g></g></g></g><g clip-path="url(#736256ce5f)"><path fill="#f2f2f2" d="M 40.476562 69.535156 C 37.53125 69.535156 35.136719 67.140625 35.136719 64.199219 L 35.136719 53.519531 C 35.136719 50.574219 37.53125 48.179688 40.476562 48.179688 L 44.742188 48.179688 C 48.515625 48.179688 51.730469 45.257812 51.910156 41.664062 C 52.003906 39.765625 51.332031 37.960938 50.023438 36.585938 C 48.710938 35.207031 46.945312 34.449219 45.050781 34.449219 L 28.269531 34.449219 L 28.269531 39.40625 C 28.269531 41.335938 27.140625 43.101562 25.390625 43.910156 C 24.726562 44.210938 24.03125 44.363281 23.3125 44.363281 C 22.132812 44.363281 20.992188 43.945312 20.09375 43.179688 L 1.785156 27.539062 C 0.664062 26.582031 0.03125 25.1875 0.046875 23.714844 C 0.0664062 22.234375 0.734375 20.855469 1.875 19.925781 L 20.183594 5.046875 C 21.066406 4.332031 22.175781 3.9375 23.3125 3.9375 C 24.042969 3.9375 24.777344 4.105469 25.441406 4.417969 C 27.160156 5.238281 28.269531 6.996094 28.269531 8.894531 L 28.269531 13.089844 L 45.050781 13.089844 C 60.351562 13.089844 73.011719 25.535156 73.269531 40.828125 C 73.398438 48.308594 70.523438 55.425781 65.179688 60.863281 C 59.757812 66.375 52.246094 69.535156 44.566406 69.535156 Z M 40.476562 69.535156 " fill-opacity="1" fill-rule="nonzero"/></g><path fill="#00bf63" d="M 45.050781 16.90625 L 24.457031 16.90625 L 24.457031 8.894531 C 24.457031 8.453125 24.203125 8.050781 23.804688 7.863281 C 23.40625 7.671875 22.933594 7.730469 22.589844 8.007812 L 4.285156 22.882812 C 4.019531 23.097656 3.867188 23.414062 3.859375 23.757812 C 3.855469 24.09375 4.003906 24.417969 4.261719 24.640625 L 22.570312 40.277344 C 22.78125 40.457031 23.042969 40.550781 23.3125 40.550781 C 23.476562 40.550781 23.636719 40.515625 23.792969 40.445312 C 24.195312 40.257812 24.457031 39.851562 24.457031 39.40625 L 24.457031 30.636719 L 45.050781 30.636719 C 51.117188 30.636719 56.019531 35.71875 55.71875 41.851562 C 55.433594 47.589844 50.484375 51.992188 44.742188 51.992188 L 40.476562 51.992188 C 39.632812 51.992188 38.949219 52.675781 38.949219 53.519531 L 38.949219 64.199219 C 38.949219 65.039062 39.632812 65.722656 40.476562 65.722656 L 44.566406 65.722656 C 58.222656 65.722656 69.691406 54.546875 69.457031 40.890625 C 69.230469 27.625 58.371094 16.90625 45.050781 16.90625 Z M 45.050781 16.90625 " fill-opacity="1" fill-rule="nonzero"/><path fill="#40396e" d="M 22.167969 11.300781 L 22.167969 17.667969 C 22.167969 18.511719 22.851562 19.191406 23.691406 19.191406 L 44.585938 19.191406 C 55.363281 19.191406 64.875 26.730469 66.808594 37.332031 C 68.105469 44.441406 65.871094 51.453125 60.824219 56.585938 C 56.546875 60.9375 50.617188 63.433594 44.5625 63.433594 L 41.234375 63.433594 L 41.234375 54.28125 L 44.742188 54.28125 C 51.835938 54.28125 57.660156 48.871094 58 41.964844 C 58.179688 38.382812 56.914062 34.976562 54.441406 32.378906 C 52.003906 29.816406 48.578125 28.347656 45.050781 28.347656 L 23.691406 28.347656 C 22.851562 28.347656 22.167969 29.027344 22.167969 29.871094 L 22.167969 36.925781 L 6.792969 23.792969 L 22.167969 11.300781 M 23.3125 7.75 C 23.054688 7.75 22.796875 7.839844 22.589844 8.007812 L 4.28125 22.882812 C 4.019531 23.097656 3.863281 23.414062 3.859375 23.757812 C 3.855469 24.09375 4.003906 24.417969 4.261719 24.640625 L 22.566406 40.277344 C 22.777344 40.457031 23.042969 40.550781 23.3125 40.550781 C 23.472656 40.550781 23.636719 40.515625 23.789062 40.445312 C 24.195312 40.257812 24.457031 39.851562 24.457031 39.40625 L 24.457031 30.636719 L 45.050781 30.636719 C 51.117188 30.636719 56.019531 35.71875 55.71875 41.851562 C 55.433594 47.589844 50.484375 51.992188 44.742188 51.992188 L 40.472656 51.992188 C 39.632812 51.992188 38.949219 52.675781 38.949219 53.519531 L 38.949219 64.199219 C 38.949219 65.039062 39.632812 65.722656 40.472656 65.722656 L 44.566406 65.722656 C 58.222656 65.722656 69.691406 54.546875 69.457031 40.890625 C 69.230469 27.625 58.367188 16.90625 45.050781 16.90625 L 24.457031 16.90625 L 24.457031 8.894531 C 24.457031 8.453125 24.203125 8.050781 23.804688 7.863281 C 23.644531 7.789062 23.476562 7.75 23.3125 7.75 Z M 23.3125 7.75 " fill-opacity="1" fill-rule="nonzero"/></svg>