<svg xmlns="http://www.w3.org/2000/svg" xmlns:xlink="http://www.w3.org/1999/xlink" width="100" zoomAndPan="magnify" viewBox="0 0 75 74.999997" height="100" preserveAspectRatio="xMidYMid meet" version="1.0"><path fill="#ea2d40" d="M 33.550781 19.738281 L 41.449219 19.738281 L 41.449219 21.710938 L 33.550781 21.710938 Z M 33.550781 19.738281 " fill-opacity="1" fill-rule="nonzero"/><path fill="#ea2d40" d="M 37.5 0 C 36.273438 0 35.046875 0.0585938 33.824219 0.179688 C 32.601562 0.300781 31.390625 0.480469 30.183594 0.71875 C 28.980469 0.960938 27.789062 1.257812 26.613281 1.613281 C 25.4375 1.972656 24.285156 2.382812 23.148438 2.855469 C 22.015625 3.324219 20.90625 3.847656 19.824219 4.429688 C 18.738281 5.007812 17.6875 5.636719 16.667969 6.320312 C 15.644531 7.003906 14.660156 7.734375 13.710938 8.511719 C 12.761719 9.292969 11.851562 10.113281 10.984375 10.984375 C 10.113281 11.851562 9.292969 12.761719 8.511719 13.710938 C 7.734375 14.660156 7.003906 15.644531 6.320312 16.667969 C 5.636719 17.6875 5.007812 18.738281 4.429688 19.824219 C 3.847656 20.90625 3.324219 22.015625 2.855469 23.148438 C 2.382812 24.285156 1.972656 25.4375 1.613281 26.613281 C 1.257812 27.789062 0.960938 28.980469 0.71875 30.183594 C 0.480469 31.390625 0.300781 32.601562 0.179688 33.824219 C 0.0585938 35.046875 0 36.273438 0 37.5 C 0 38.726562 0.0585938 39.953125 0.179688 41.175781 C 0.300781 42.398438 0.480469 43.609375 0.71875 44.816406 C 0.960938 46.019531 1.257812 47.210938 1.613281 48.386719 C 1.972656 49.5625 2.382812 50.714844 2.855469 51.851562 C 3.324219 52.984375 3.847656 54.09375 4.429688 55.175781 C 5.007812 56.261719 5.636719 57.3125 6.320312 58.332031 C 7.003906 59.355469 7.734375 60.339844 8.511719 61.289062 C 9.292969 62.238281 10.113281 63.148438 10.984375 64.015625 C 11.851562 64.886719 12.761719 65.707031 13.710938 66.488281 C 14.660156 67.265625 15.644531 67.996094 16.667969 68.679688 C 17.6875 69.363281 18.738281 69.992188 19.824219 70.570312 C 20.90625 71.152344 22.015625 71.675781 23.148438 72.144531 C 24.285156 72.617188 25.4375 73.027344 26.613281 73.386719 C 27.789062 73.742188 28.980469 74.039062 30.183594 74.28125 C 31.390625 74.519531 32.601562 74.699219 33.824219 74.820312 C 35.046875 74.941406 36.273438 75 37.5 75 C 38.726562 75 39.953125 74.941406 41.175781 74.820312 C 42.398438 74.699219 43.609375 74.519531 44.816406 74.28125 C 46.019531 74.039062 47.210938 73.742188 48.386719 73.386719 C 49.5625 73.027344 50.714844 72.617188 51.851562 72.144531 C 52.984375 71.675781 54.09375 71.152344 55.175781 70.570312 C 56.261719 69.992188 57.3125 69.363281 58.332031 68.679688 C 59.355469 67.996094 60.339844 67.265625 61.289062 66.488281 C 62.238281 65.707031 63.148438 64.886719 64.015625 64.015625 C 64.886719 63.148438 65.707031 62.238281 66.488281 61.289062 C 67.265625 60.339844 67.996094 59.355469 68.679688 58.332031 C 69.363281 57.3125 69.992188 56.261719 70.570312 55.175781 C 71.152344 54.09375 71.675781 52.984375 72.144531 51.851562 C 72.617188 50.714844 73.027344 49.5625 73.386719 48.386719 C 73.742188 47.210938 74.039062 46.019531 74.28125 44.816406 C 74.519531 43.609375 74.699219 42.398438 74.820312 41.175781 C 74.941406 39.953125 75 38.726562 75 37.5 C 75 36.273438 74.9375 35.046875 74.816406 33.824219 C 74.695312 32.605469 74.511719 31.390625 74.273438 30.1875 C 74.03125 28.984375 73.734375 27.792969 73.375 26.617188 C 73.019531 25.445312 72.605469 24.289062 72.132812 23.15625 C 71.664062 22.023438 71.140625 20.914062 70.558594 19.832031 C 69.980469 18.75 69.351562 17.695312 68.667969 16.675781 C 67.984375 15.65625 67.253906 14.671875 66.476562 13.722656 C 65.695312 12.773438 64.871094 11.863281 64.003906 10.996094 C 63.136719 10.128906 62.226562 9.304688 61.277344 8.523438 C 60.328125 7.746094 59.34375 7.015625 58.324219 6.332031 C 57.304688 5.648438 56.25 5.019531 55.167969 4.441406 C 54.085938 3.859375 52.976562 3.335938 51.84375 2.867188 C 50.710938 2.394531 49.554688 1.980469 48.382812 1.625 C 47.207031 1.265625 46.015625 0.96875 44.8125 0.726562 C 43.609375 0.488281 42.394531 0.304688 41.175781 0.183594 C 39.953125 0.0625 38.726562 0 37.5 0 Z M 53.289062 51.691406 C 53.277344 52.199219 53.210938 52.699219 53.101562 53.191406 C 52.988281 53.6875 52.828125 54.164062 52.621094 54.628906 C 52.417969 55.089844 52.167969 55.527344 51.875 55.941406 C 51.582031 56.355469 51.253906 56.738281 50.886719 57.085938 C 50.519531 57.433594 50.121094 57.746094 49.691406 58.015625 C 49.265625 58.285156 48.8125 58.511719 48.339844 58.695312 C 47.867188 58.878906 47.382812 59.011719 46.882812 59.097656 C 46.382812 59.183594 45.882812 59.222656 45.375 59.210938 L 29.625 59.210938 C 29.117188 59.222656 28.617188 59.183594 28.117188 59.097656 C 27.617188 59.011719 27.132812 58.878906 26.660156 58.695312 C 26.1875 58.511719 25.734375 58.285156 25.308594 58.015625 C 24.878906 57.746094 24.480469 57.433594 24.113281 57.085938 C 23.746094 56.738281 23.417969 56.355469 23.125 55.941406 C 22.832031 55.527344 22.582031 55.089844 22.378906 54.628906 C 22.171875 54.164062 22.011719 53.6875 21.898438 53.191406 C 21.789062 52.699219 21.722656 52.199219 21.710938 51.691406 L 21.710938 29.605469 C 21.710938 29.34375 21.761719 29.089844 21.859375 28.851562 C 21.960938 28.609375 22.105469 28.394531 22.289062 28.210938 C 22.472656 28.023438 22.6875 27.882812 22.929688 27.78125 C 23.171875 27.683594 23.421875 27.632812 23.683594 27.632812 C 23.945312 27.632812 24.199219 27.683594 24.441406 27.78125 C 24.679688 27.882812 24.894531 28.023438 25.078125 28.210938 C 25.265625 28.394531 25.40625 28.609375 25.507812 28.851562 C 25.609375 29.089844 25.65625 29.34375 25.65625 29.605469 L 25.65625 51.691406 C 25.6875 52.191406 25.808594 52.667969 26.023438 53.117188 C 26.242188 53.566406 26.535156 53.960938 26.90625 54.292969 C 27.277344 54.628906 27.699219 54.878906 28.167969 55.046875 C 28.640625 55.214844 29.125 55.289062 29.625 55.261719 L 45.375 55.261719 C 45.875 55.289062 46.359375 55.214844 46.832031 55.046875 C 47.300781 54.878906 47.722656 54.628906 48.09375 54.292969 C 48.464844 53.960938 48.757812 53.566406 48.976562 53.117188 C 49.191406 52.667969 49.3125 52.191406 49.34375 51.691406 L 49.34375 29.605469 C 49.34375 29.34375 49.390625 29.089844 49.492188 28.851562 C 49.59375 28.609375 49.734375 28.394531 49.921875 28.210938 C 50.105469 28.023438 50.320312 27.882812 50.558594 27.78125 C 50.800781 27.683594 51.054688 27.632812 51.316406 27.632812 C 51.578125 27.632812 51.828125 27.683594 52.070312 27.78125 C 52.3125 27.882812 52.527344 28.023438 52.710938 28.210938 C 52.894531 28.394531 53.039062 28.609375 53.140625 28.851562 C 53.238281 29.089844 53.289062 29.34375 53.289062 29.605469 Z M 31.578125 47.367188 L 31.578125 33.550781 C 31.578125 33.289062 31.628906 33.039062 31.730469 32.796875 C 31.828125 32.554688 31.972656 32.34375 32.15625 32.15625 C 32.34375 31.972656 32.554688 31.828125 32.796875 31.730469 C 33.039062 31.628906 33.289062 31.578125 33.550781 31.578125 C 33.8125 31.578125 34.066406 31.628906 34.308594 31.730469 C 34.550781 31.828125 34.761719 31.972656 34.949219 32.15625 C 35.132812 32.34375 35.277344 32.554688 35.375 32.796875 C 35.476562 33.039062 35.527344 33.289062 35.527344 33.550781 L 35.527344 47.367188 C 35.527344 47.628906 35.476562 47.882812 35.375 48.125 C 35.277344 48.367188 35.132812 48.578125 34.949219 48.765625 C 34.761719 48.949219 34.550781 49.089844 34.308594 49.191406 C 34.066406 49.292969 33.8125 49.34375 33.550781 49.34375 C 33.289062 49.34375 33.039062 49.292969 32.796875 49.191406 C 32.554688 49.089844 32.34375 48.949219 32.15625 48.765625 C 31.972656 48.578125 31.828125 48.367188 31.730469 48.125 C 31.628906 47.882812 31.578125 47.628906 31.578125 47.367188 Z M 39.472656 47.367188 L 39.472656 33.550781 C 39.472656 33.289062 39.523438 33.039062 39.625 32.796875 C 39.722656 32.554688 39.867188 32.34375 40.050781 32.15625 C 40.238281 31.972656 40.449219 31.828125 40.691406 31.730469 C 40.933594 31.628906 41.1875 31.578125 41.449219 31.578125 C 41.710938 31.578125 41.960938 31.628906 42.203125 31.730469 C 42.445312 31.828125 42.65625 31.972656 42.84375 32.15625 C 43.027344 32.34375 43.171875 32.554688 43.269531 32.796875 C 43.371094 33.039062 43.421875 33.289062 43.421875 33.550781 L 43.421875 47.367188 C 43.421875 47.628906 43.371094 47.882812 43.269531 48.125 C 43.171875 48.367188 43.027344 48.578125 42.84375 48.765625 C 42.65625 48.949219 42.445312 49.089844 42.203125 49.191406 C 41.960938 49.292969 41.710938 49.34375 41.449219 49.34375 C 41.1875 49.34375 40.933594 49.292969 40.691406 49.191406 C 40.449219 49.089844 40.238281 48.949219 40.050781 48.765625 C 39.867188 48.578125 39.722656 48.367188 39.625 48.125 C 39.523438 47.882812 39.472656 47.628906 39.472656 47.367188 Z M 53.289062 25.65625 L 21.710938 25.65625 C 21.449219 25.65625 21.195312 25.609375 20.957031 25.507812 C 20.714844 25.40625 20.5 25.265625 20.316406 25.078125 C 20.128906 24.894531 19.988281 24.679688 19.886719 24.441406 C 19.785156 24.199219 19.738281 23.945312 19.738281 23.683594 C 19.738281 23.421875 19.785156 23.171875 19.886719 22.929688 C 19.988281 22.6875 20.128906 22.472656 20.316406 22.289062 C 20.5 22.105469 20.714844 21.960938 20.957031 21.859375 C 21.195312 21.761719 21.449219 21.710938 21.710938 21.710938 L 29.605469 21.710938 L 29.605469 17.761719 C 29.605469 17.5 29.65625 17.25 29.753906 17.007812 C 29.855469 16.765625 30 16.550781 30.183594 16.367188 C 30.367188 16.183594 30.582031 16.039062 30.824219 15.941406 C 31.066406 15.839844 31.316406 15.789062 31.578125 15.789062 L 43.421875 15.789062 C 43.683594 15.789062 43.933594 15.839844 44.175781 15.941406 C 44.417969 16.039062 44.632812 16.183594 44.816406 16.367188 C 45 16.550781 45.144531 16.765625 45.246094 17.007812 C 45.34375 17.25 45.394531 17.5 45.394531 17.761719 L 45.394531 21.710938 L 53.289062 21.710938 C 53.550781 21.710938 53.804688 21.761719 54.042969 21.859375 C 54.285156 21.960938 54.5 22.105469 54.683594 22.289062 C 54.871094 22.472656 55.011719 22.6875 55.113281 22.929688 C 55.214844 23.171875 55.261719 23.421875 55.261719 23.683594 C 55.261719 23.945312 55.214844 24.199219 55.113281 24.441406 C 55.011719 24.679688 54.871094 24.894531 54.683594 25.078125 C 54.5 25.265625 54.285156 25.40625 54.042969 25.507812 C 53.804688 25.609375 53.550781 25.65625 53.289062 25.65625 Z M 53.289062 25.65625 " fill-opacity="1" fill-rule="nonzero"/></svg>