<svg xmlns="http://www.w3.org/2000/svg" xmlns:xlink="http://www.w3.org/1999/xlink" width="100" zoomAndPan="magnify" viewBox="0 0 75 74.999997" height="100" preserveAspectRatio="xMidYMid meet" version="1.0"><defs><clipPath id="607727a61f"><path d="M 0 5.96875 L 75 5.96875 L 75 70.46875 L 0 70.46875 Z M 0 5.96875 " clip-rule="nonzero"/></clipPath></defs><g clip-path="url(#607727a61f)"><path fill="#7ed957" d="M 15.738281 70.53125 C 15.265625 70.53125 14.789062 70.421875 14.351562 70.195312 C 13.246094 69.628906 12.59375 68.441406 12.710938 67.207031 L 13.597656 57.738281 L 9.332031 57.738281 C 4.191406 57.738281 0.0117188 53.464844 0.0117188 48.214844 L 0.0117188 15.492188 C 0.0117188 10.242188 4.191406 5.96875 9.332031 5.96875 L 65.667969 5.96875 C 70.808594 5.96875 74.988281 10.242188 74.988281 15.492188 L 74.988281 48.214844 C 74.988281 53.464844 70.808594 57.738281 65.667969 57.738281 L 31.585938 57.738281 L 17.734375 69.785156 C 17.167969 70.277344 16.457031 70.53125 15.738281 70.53125 Z M 15.738281 70.53125 " fill-opacity="1" fill-rule="nonzero"/></g><path fill="#51707a" d="M 46.640625 27.265625 L 15.003906 27.265625 C 13.324219 27.265625 11.964844 25.902344 11.964844 24.222656 C 11.964844 22.542969 13.324219 21.183594 15.003906 21.183594 L 46.640625 21.183594 C 48.320312 21.183594 49.683594 22.542969 49.683594 24.222656 C 49.683594 25.902344 48.320312 27.265625 46.640625 27.265625 Z M 46.640625 27.265625 " fill-opacity="1" fill-rule="nonzero"/><path fill="#51707a" d="M 36.59375 38.644531 L 15.007812 38.644531 C 13.328125 38.644531 11.964844 37.28125 11.964844 35.601562 C 11.964844 33.921875 13.328125 32.5625 15.007812 32.5625 L 36.59375 32.5625 C 38.273438 32.5625 39.636719 33.921875 39.636719 35.601562 C 39.636719 37.28125 38.273438 38.644531 36.59375 38.644531 Z M 36.59375 38.644531 " fill-opacity="1" fill-rule="nonzero"/></svg>