<svg xmlns="http://www.w3.org/2000/svg" xmlns:xlink="http://www.w3.org/1999/xlink" width="100" zoomAndPan="magnify" viewBox="0 0 75 74.999997" height="100" preserveAspectRatio="xMidYMid meet" version="1.0"><defs><clipPath id="a1cb53c8bd"><path d="M 1.199219 1.574219 L 73.199219 1.574219 L 73.199219 73.574219 L 1.199219 73.574219 Z M 1.199219 1.574219 " clip-rule="nonzero"/></clipPath></defs><g clip-path="url(#a1cb53c8bd)"><path fill="#a40505" d="M 37.09375 1.554688 C 17.257812 1.554688 1.179688 17.632812 1.179688 37.46875 C 1.179688 57.300781 17.257812 73.382812 37.09375 73.382812 C 56.925781 73.382812 73.007812 57.300781 73.007812 37.46875 C 73.007812 17.632812 56.925781 1.554688 37.09375 1.554688 Z M 54.957031 55.316406 C 53.066406 57.207031 50.003906 57.207031 48.113281 55.316406 L 37.335938 44.542969 L 26.070312 55.808594 C 24.183594 57.695312 21.121094 57.695312 19.230469 55.808594 C 17.339844 53.917969 17.339844 50.855469 19.230469 48.964844 L 30.496094 37.699219 L 20.007812 27.210938 C 18.117188 25.320312 18.117188 22.257812 20.007812 20.367188 C 21.894531 18.480469 24.960938 18.480469 26.851562 20.367188 L 37.335938 30.855469 L 47.335938 20.859375 C 49.226562 18.96875 52.289062 18.96875 54.179688 20.859375 C 56.070312 22.75 56.070312 25.8125 54.179688 27.703125 L 44.179688 37.699219 L 54.957031 48.476562 C 56.84375 50.363281 56.84375 53.425781 54.957031 55.316406 Z M 54.957031 55.316406 " fill-opacity="1" fill-rule="nonzero"/></g></svg>