<svg xmlns="http://www.w3.org/2000/svg" xmlns:xlink="http://www.w3.org/1999/xlink" width="100" zoomAndPan="magnify" viewBox="0 0 75 74.999997" height="100" preserveAspectRatio="xMidYMid meet" version="1.0"><defs><clipPath id="a853495bda"><path d="M 1.574219 7 L 68 7 L 68 73.574219 L 1.574219 73.574219 Z M 1.574219 7 " clip-rule="nonzero"/></clipPath></defs><g clip-path="url(#a853495bda)"><path fill="#545454" d="M 61.90625 67.9375 L 7.058594 67.9375 L 7.058594 13.09375 L 39.96875 13.09375 L 39.96875 7.609375 L 7.058594 7.609375 C 4.03125 7.609375 1.574219 10.066406 1.574219 13.09375 L 1.574219 67.9375 C 1.574219 70.964844 4.03125 73.421875 7.058594 73.421875 L 61.90625 73.421875 C 64.933594 73.421875 67.390625 70.964844 67.390625 67.9375 L 67.390625 35.03125 L 61.90625 35.03125 Z M 61.90625 67.9375 " fill-opacity="1" fill-rule="nonzero"/></g><path fill="#545454" d="M 23.511719 51.570312 L 35.058594 51.570312 L 63.039062 23.589844 L 51.40625 11.957031 L 23.511719 39.851562 Z M 23.511719 51.570312 " fill-opacity="1" fill-rule="nonzero"/><path fill="#545454" d="M 71.265625 7.609375 L 67.390625 3.730469 C 65.246094 1.585938 61.773438 1.585938 59.632812 3.730469 L 55.285156 8.078125 L 66.917969 19.710938 L 71.265625 15.363281 C 73.410156 13.21875 73.410156 9.746094 71.265625 7.609375 Z M 71.265625 7.609375 " fill-opacity="1" fill-rule="nonzero"/></svg>