<svg xmlns="http://www.w3.org/2000/svg" xmlns:xlink="http://www.w3.org/1999/xlink" width="100" zoomAndPan="magnify" viewBox="0 0 75 74.999997" height="100" preserveAspectRatio="xMidYMid meet" version="1.0"><defs><clipPath id="d49c6ab03f"><path d="M 1 2 L 75 2 L 75 72.339844 L 1 72.339844 Z M 1 2 " clip-rule="nonzero"/></clipPath></defs><g clip-path="url(#d49c6ab03f)"><path fill="#7d7f88" d="M 70.300781 38.734375 L 67.320312 38.734375 L 67.320312 69.300781 C 67.292969 69.71875 67.191406 70.113281 67.007812 70.488281 C 66.824219 70.863281 66.578125 71.191406 66.269531 71.46875 C 65.957031 71.746094 65.605469 71.953125 65.210938 72.09375 C 64.820312 72.234375 64.414062 72.292969 63.996094 72.269531 L 46.386719 72.269531 L 46.386719 51.425781 C 46.386719 51.136719 46.332031 50.859375 46.21875 50.59375 C 46.109375 50.328125 45.953125 50.089844 45.75 49.886719 C 45.542969 49.683594 45.308594 49.527344 45.042969 49.414062 C 44.777344 49.304688 44.5 49.25 44.210938 49.25 L 31.433594 49.25 C 31.144531 49.25 30.867188 49.304688 30.597656 49.414062 C 30.332031 49.527344 30.097656 49.683594 29.894531 49.886719 C 29.6875 50.089844 29.53125 50.328125 29.421875 50.59375 C 29.3125 50.859375 29.253906 51.136719 29.253906 51.425781 L 29.253906 72.269531 L 11.644531 72.269531 C 11.226562 72.292969 10.824219 72.234375 10.433594 72.09375 C 10.039062 71.957031 9.6875 71.75 9.378906 71.472656 C 9.070312 71.195312 8.824219 70.871094 8.644531 70.496094 C 8.460938 70.121094 8.359375 69.726562 8.335938 69.3125 L 8.335938 38.734375 L 5.339844 38.734375 C 2.023438 38.734375 0.222656 35.609375 2.398438 33.605469 L 35.164062 3.3125 C 35.578125 2.960938 36.039062 2.695312 36.546875 2.507812 C 37.054688 2.324219 37.582031 2.230469 38.121094 2.230469 C 38.664062 2.234375 39.1875 2.328125 39.695312 2.515625 C 40.203125 2.703125 40.664062 2.972656 41.074219 3.324219 C 51.800781 13.421875 62.535156 23.515625 73.269531 33.613281 C 75.402344 35.640625 73.605469 38.734375 70.300781 38.734375 Z M 70.300781 38.734375 " fill-opacity="1" fill-rule="nonzero"/></g></svg>