<svg xmlns="http://www.w3.org/2000/svg" xmlns:xlink="http://www.w3.org/1999/xlink" width="100" zoomAndPan="magnify" viewBox="0 0 75 74.999997" height="100" preserveAspectRatio="xMidYMid meet" version="1.0"><defs><clipPath id="00fe3b92eb"><path d="M 1.5 1.238281 L 74.25 1.238281 L 74.25 73.988281 L 1.5 73.988281 Z M 1.5 1.238281 " clip-rule="nonzero"/></clipPath></defs><g clip-path="url(#00fe3b92eb)"><path fill="#ffffff" d="M 37.757812 1.171875 C 17.761719 1.171875 1.5 17.433594 1.5 37.429688 C 1.5 57.425781 17.761719 73.6875 37.757812 73.6875 C 57.753906 73.6875 74.015625 57.425781 74.015625 37.429688 C 74.015625 17.433594 57.753906 1.171875 37.757812 1.171875 Z M 37.757812 69.839844 C 19.851562 69.839844 5.351562 55.335938 5.351562 37.429688 C 5.351562 19.527344 19.851562 5.023438 37.757812 5.023438 C 55.664062 5.023438 70.164062 19.527344 70.164062 37.429688 C 70.164062 55.335938 55.664062 69.839844 37.757812 69.839844 Z M 37.757812 69.839844 " fill-opacity="1" fill-rule="nonzero"/></g><path fill="#ffffff" d="M 27.398438 32.21875 L 20.597656 32.21875 C 19.328125 32.21875 18.289062 33.261719 18.289062 34.53125 L 18.289062 49.789062 C 18.289062 51.0625 19.328125 52.101562 20.597656 52.101562 L 27.398438 52.101562 C 28.671875 52.101562 29.710938 51.0625 29.710938 49.789062 L 29.710938 34.519531 C 29.699219 33.246094 28.671875 32.21875 27.398438 32.21875 Z M 27.324219 49.726562 L 20.648438 49.789062 L 20.585938 34.59375 L 27.324219 34.53125 Z M 27.324219 49.726562 " fill-opacity="1" fill-rule="nonzero"/><path fill="#ffffff" d="M 49.285156 30.101562 L 44.265625 30.101562 C 45.433594 27.203125 45.484375 26.726562 45.511719 26.46875 C 45.546875 26.175781 45.691406 23.492188 45.484375 22.402344 C 44.792969 18.808594 42.546875 17.539062 40.839844 17.539062 C 39.167969 17.539062 37.785156 18.640625 37.460938 20.21875 C 37.191406 21.566406 37.167969 21.8125 37.15625 22.851562 L 37.140625 23.378906 C 37.140625 23.609375 37.027344 23.773438 36.21875 24.558594 C 35.910156 24.851562 35.5625 25.199219 35.203125 25.597656 C 30.507812 30.140625 30.507812 31.285156 30.507812 32.054688 L 30.507812 47.917969 C 30.507812 49.585938 31.867188 50.957031 33.546875 50.957031 L 47.921875 50.957031 C 50.308594 50.957031 52.25 49.019531 52.25 46.632812 C 52.25 46.144531 52.171875 45.671875 52.015625 45.234375 C 52.503906 44.554688 52.789062 43.734375 52.789062 42.835938 C 52.789062 42.347656 52.699219 41.871094 52.542969 41.421875 C 53.003906 40.730469 53.273438 39.910156 53.273438 39.023438 C 53.273438 38.472656 53.171875 37.945312 52.980469 37.46875 C 53.558594 36.699219 53.890625 35.75 53.890625 34.722656 C 53.902344 32.167969 51.824219 30.101562 49.285156 30.101562 Z M 49.285156 37.007812 L 48.9375 37.007812 C 50.054688 37.007812 50.953125 37.917969 50.953125 39.023438 C 50.953125 40.125 50.039062 41.039062 48.9375 41.039062 L 48.691406 41.039062 C 49.679688 41.039062 50.476562 41.847656 50.476562 42.820312 C 50.476562 43.808594 49.667969 44.605469 48.691406 44.605469 L 48.011719 44.605469 L 48.011719 44.617188 C 49.078125 44.65625 49.9375 45.542969 49.9375 46.621094 C 49.9375 47.722656 49.027344 48.636719 47.921875 48.636719 L 33.5625 48.636719 C 33.164062 48.636719 32.84375 48.316406 32.84375 47.917969 L 32.84375 32.054688 C 32.84375 31.117188 36.898438 27.203125 36.898438 27.203125 C 38.128906 25.804688 39.4375 25.109375 39.476562 23.429688 C 39.503906 21.992188 39.464844 22.105469 39.746094 20.667969 C 39.851562 20.179688 40.300781 19.847656 40.851562 19.847656 C 41.699219 19.847656 42.789062 20.628906 43.226562 22.839844 C 43.355469 23.492188 43.277344 25.777344 43.226562 26.214844 C 43.175781 26.648438 42.070312 29.398438 42.070312 29.398438 C 41.851562 30.089844 41.558594 31.347656 41.132812 32.414062 L 47.308594 32.414062 C 47.320312 32.414062 47.34375 32.425781 47.359375 32.425781 C 47.398438 32.425781 47.421875 32.414062 47.460938 32.414062 L 49.308594 32.414062 C 50.566406 32.414062 51.605469 33.441406 51.605469 34.710938 C 51.582031 35.96875 50.554688 37.007812 49.285156 37.007812 Z M 49.285156 37.007812 " fill-opacity="1" fill-rule="nonzero"/></svg>