<svg xmlns="http://www.w3.org/2000/svg" xmlns:xlink="http://www.w3.org/1999/xlink" width="100" zoomAndPan="magnify" viewBox="0 0 75 74.999997" height="100" preserveAspectRatio="xMidYMid meet" version="1.0"><defs><clipPath id="82ad5caccc"><path d="M 1.050781 1.050781 L 75 1.050781 L 75 75 L 1.050781 75 Z M 1.050781 1.050781 " clip-rule="nonzero"/></clipPath></defs><g clip-path="url(#82ad5caccc)"><path fill="#ffffff" d="M 57.859375 59.582031 L 18.1875 59.582031 C 14.558594 59.582031 11.605469 56.628906 11.605469 53 L 11.605469 26.550781 C 11.605469 22.925781 14.558594 19.972656 18.1875 19.972656 L 28.390625 19.972656 L 29.652344 18.078125 C 30.289062 17.125 31.527344 16.460938 32.667969 16.460938 L 43.375 16.460938 C 44.5 16.460938 45.769531 17.140625 46.390625 18.078125 L 47.652344 19.972656 L 57.859375 19.972656 C 61.488281 19.972656 64.441406 22.925781 64.441406 26.550781 L 64.441406 53 C 64.441406 56.628906 61.488281 59.582031 57.859375 59.582031 Z M 38.023438 1.050781 C 17.601562 1.050781 1.050781 17.601562 1.050781 38.023438 C 1.050781 58.441406 17.601562 74.996094 38.023438 74.996094 C 58.441406 74.996094 74.996094 58.441406 74.996094 38.023438 C 74.996094 17.601562 58.441406 1.050781 38.023438 1.050781 " fill-opacity="1" fill-rule="nonzero"/></g><path fill="#ffffff" d="M 38.023438 54.125 C 30.109375 54.125 23.671875 47.691406 23.671875 39.777344 C 23.671875 31.867188 30.109375 25.425781 38.023438 25.425781 C 45.9375 25.425781 52.375 31.867188 52.375 39.777344 C 52.375 47.691406 45.9375 54.125 38.023438 54.125 Z M 20.921875 31.277344 C 19.382812 31.277344 18.128906 30.027344 18.128906 28.484375 C 18.128906 26.941406 19.382812 25.691406 20.921875 25.691406 C 22.464844 25.691406 23.714844 26.941406 23.714844 28.484375 C 23.714844 30.027344 22.464844 31.277344 20.921875 31.277344 Z M 57.859375 23.21875 L 45.917969 23.21875 L 43.6875 19.875 C 43.636719 19.820312 43.449219 19.71875 43.355469 19.707031 L 32.667969 19.707031 C 32.59375 19.71875 32.402344 19.820312 32.34375 19.894531 L 30.128906 23.21875 L 18.1875 23.21875 C 16.347656 23.21875 14.851562 24.714844 14.851562 26.550781 L 14.851562 53 C 14.851562 54.839844 16.347656 56.335938 18.1875 56.335938 L 57.859375 56.335938 C 59.699219 56.335938 61.195312 54.839844 61.195312 53 L 61.195312 26.550781 C 61.195312 24.714844 59.699219 23.21875 57.859375 23.21875 " fill-opacity="1" fill-rule="nonzero"/><path fill="#ffffff" d="M 38.023438 47.113281 C 33.976562 47.113281 30.683594 43.824219 30.683594 39.777344 C 30.683594 35.730469 33.976562 32.441406 38.023438 32.441406 C 42.070312 32.441406 45.359375 35.730469 45.359375 39.777344 C 45.359375 43.824219 42.070312 47.113281 38.023438 47.113281 Z M 38.023438 28.671875 C 31.898438 28.671875 26.917969 33.65625 26.917969 39.777344 C 26.917969 45.898438 31.898438 50.878906 38.023438 50.878906 C 44.144531 50.878906 49.128906 45.898438 49.128906 39.777344 C 49.128906 33.65625 44.144531 28.671875 38.023438 28.671875 " fill-opacity="1" fill-rule="nonzero"/></svg>