<svg xmlns="http://www.w3.org/2000/svg" xmlns:xlink="http://www.w3.org/1999/xlink" width="100" zoomAndPan="magnify" viewBox="0 0 75 74.999997" height="100" preserveAspectRatio="xMidYMid meet" version="1.0"><defs><clipPath id="9ea0b5550f"><path d="M 0.863281 0.824219 L 74.363281 0.824219 L 74.363281 74.324219 L 0.863281 74.324219 Z M 0.863281 0.824219 " clip-rule="nonzero"/></clipPath></defs><g clip-path="url(#9ea0b5550f)"><path fill="#ffffff" d="M 74.128906 37.457031 C 74.128906 38.65625 74.070312 39.855469 73.953125 41.046875 C 73.835938 42.242188 73.660156 43.429688 73.425781 44.605469 C 73.191406 45.78125 72.898438 46.945312 72.550781 48.089844 C 72.203125 49.238281 71.796875 50.367188 71.339844 51.476562 C 70.878906 52.585938 70.367188 53.667969 69.800781 54.726562 C 69.238281 55.785156 68.621094 56.8125 67.953125 57.808594 C 67.289062 58.808594 66.574219 59.769531 65.8125 60.699219 C 65.050781 61.625 64.246094 62.511719 63.398438 63.359375 C 62.550781 64.210938 61.664062 65.015625 60.734375 65.773438 C 59.808594 66.535156 58.84375 67.25 57.847656 67.917969 C 56.851562 68.582031 55.820312 69.199219 54.765625 69.765625 C 53.707031 70.332031 52.621094 70.84375 51.515625 71.300781 C 50.40625 71.761719 49.277344 72.164062 48.128906 72.511719 C 46.980469 72.863281 45.820312 73.152344 44.640625 73.386719 C 43.464844 73.621094 42.28125 73.796875 41.085938 73.914062 C 39.890625 74.03125 38.695312 74.089844 37.496094 74.089844 C 36.296875 74.089844 35.097656 74.03125 33.90625 73.914062 C 32.710938 73.796875 31.523438 73.621094 30.347656 73.386719 C 29.171875 73.152344 28.007812 72.863281 26.863281 72.511719 C 25.714844 72.164062 24.585938 71.761719 23.476562 71.300781 C 22.367188 70.84375 21.285156 70.332031 20.226562 69.765625 C 19.167969 69.199219 18.140625 68.582031 17.144531 67.917969 C 16.144531 67.25 15.183594 66.535156 14.253906 65.773438 C 13.328125 65.015625 12.441406 64.210938 11.59375 63.359375 C 10.742188 62.511719 9.9375 61.625 9.179688 60.699219 C 8.417969 59.769531 7.703125 58.808594 7.035156 57.808594 C 6.371094 56.8125 5.753906 55.785156 5.1875 54.726562 C 4.621094 53.667969 4.109375 52.585938 3.652344 51.476562 C 3.191406 50.367188 2.789062 49.238281 2.441406 48.089844 C 2.089844 46.945312 1.800781 45.78125 1.566406 44.605469 C 1.332031 43.429688 1.15625 42.242188 1.039062 41.046875 C 0.921875 39.855469 0.863281 38.65625 0.863281 37.457031 C 0.863281 36.257812 0.921875 35.0625 1.039062 33.867188 C 1.15625 32.671875 1.332031 31.488281 1.566406 30.3125 C 1.800781 29.132812 2.089844 27.972656 2.441406 26.824219 C 2.789062 25.675781 3.191406 24.546875 3.652344 23.4375 C 4.109375 22.332031 4.621094 21.246094 5.1875 20.1875 C 5.753906 19.132812 6.371094 18.101562 7.035156 17.105469 C 7.703125 16.109375 8.417969 15.144531 9.179688 14.21875 C 9.9375 13.289062 10.742188 12.402344 11.59375 11.554688 C 12.441406 10.707031 13.328125 9.902344 14.253906 9.140625 C 15.183594 8.378906 16.144531 7.664062 17.144531 7 C 18.140625 6.332031 19.167969 5.714844 20.226562 5.152344 C 21.285156 4.585938 22.367188 4.074219 23.476562 3.613281 C 24.585938 3.15625 25.714844 2.75 26.863281 2.402344 C 28.007812 2.054688 29.171875 1.761719 30.347656 1.527344 C 31.523438 1.292969 32.710938 1.117188 33.90625 1 C 35.097656 0.882812 36.296875 0.824219 37.496094 0.824219 C 38.695312 0.824219 39.890625 0.882812 41.085938 1 C 42.28125 1.117188 43.464844 1.292969 44.640625 1.527344 C 45.820312 1.761719 46.980469 2.054688 48.128906 2.402344 C 49.277344 2.75 50.40625 3.15625 51.515625 3.613281 C 52.621094 4.074219 53.707031 4.585938 54.765625 5.152344 C 55.820312 5.714844 56.851562 6.332031 57.847656 7 C 58.84375 7.664062 59.808594 8.378906 60.734375 9.140625 C 61.664062 9.902344 62.550781 10.707031 63.398438 11.554688 C 64.246094 12.402344 65.050781 13.289062 65.8125 14.21875 C 66.574219 15.144531 67.289062 16.109375 67.953125 17.105469 C 68.621094 18.101562 69.238281 19.132812 69.800781 20.1875 C 70.367188 21.246094 70.878906 22.332031 71.339844 23.4375 C 71.796875 24.546875 72.203125 25.675781 72.550781 26.824219 C 72.898438 27.972656 73.191406 29.132812 73.425781 30.3125 C 73.660156 31.488281 73.835938 32.671875 73.953125 33.867188 C 74.070312 35.0625 74.128906 36.257812 74.128906 37.457031 Z M 74.128906 37.457031 " fill-opacity="1" fill-rule="nonzero"/></g><path fill="#2beae4" d="M 22.796875 36.582031 L 22.796875 19.492188 C 22.796875 17.390625 25.070312 16.050781 26.9375 17.101562 L 56.570312 34.25 C 58.378906 35.300781 58.378906 37.984375 56.570312 39.03125 L 41.753906 47.550781 L 26.9375 56.066406 C 25.128906 57.117188 22.796875 55.773438 22.796875 53.675781 Z M 22.796875 36.582031 " fill-opacity="1" fill-rule="nonzero"/><path fill="#f23358" d="M 25.128906 38.332031 L 25.128906 21.242188 C 25.128906 19.140625 27.402344 17.800781 29.269531 18.851562 L 58.902344 36 C 60.710938 37.050781 60.710938 39.734375 58.902344 40.78125 L 44.085938 49.300781 L 29.269531 57.816406 C 27.460938 58.867188 25.128906 57.523438 25.128906 55.425781 Z M 25.128906 38.332031 " fill-opacity="1" fill-rule="nonzero"/><path fill="#0f711e" d="M 24.136719 37.339844 L 24.136719 20.191406 C 24.136719 18.089844 26.414062 16.75 28.277344 17.800781 L 57.910156 34.949219 C 59.71875 36 59.71875 38.683594 57.910156 39.734375 L 43.09375 48.25 L 28.277344 56.824219 C 26.46875 57.875 24.136719 56.53125 24.136719 54.433594 Z M 24.136719 37.339844 " fill-opacity="1" fill-rule="nonzero"/></svg>