<svg xmlns="http://www.w3.org/2000/svg" xmlns:xlink="http://www.w3.org/1999/xlink" width="100" zoomAndPan="magnify" viewBox="0 0 75 74.999997" height="100" preserveAspectRatio="xMidYMid meet" version="1.0"><defs><clipPath id="2697409bcd"><path d="M 0.675781 1.351562 L 74.175781 1.351562 L 74.175781 74.851562 L 0.675781 74.851562 Z M 0.675781 1.351562 " clip-rule="nonzero"/></clipPath></defs><g clip-path="url(#2697409bcd)"><path fill="#ffffff" d="M 37.496094 1.351562 C 17.160156 1.351562 0.675781 17.835938 0.675781 38.171875 C 0.675781 58.503906 17.160156 74.992188 37.496094 74.992188 C 57.832031 74.992188 74.316406 58.503906 74.316406 38.171875 C 74.316406 17.835938 57.832031 1.351562 37.496094 1.351562 Z M 59.585938 55.253906 L 44.472656 55.253906 L 37.496094 47.046875 L 30.515625 55.253906 L 15.402344 55.253906 L 29.9375 38.171875 L 15.402344 21.085938 L 30.515625 21.085938 L 37.496094 29.292969 L 44.472656 21.085938 L 59.585938 21.085938 L 45.050781 38.171875 Z M 59.585938 55.253906 " fill-opacity="1" fill-rule="nonzero"/></g></svg>