<svg width="228" height="73" viewBox="0 0 228 73" fill="none" xmlns="http://www.w3.org/2000/svg">
<g filter="url(#filter0_d_325_1168)">
<g clip-path="url(#clip0_325_1168)">
<rect x="16" y="12.5" width="40" height="40" rx="10" fill="#FDFDFD"/>
<path d="M35.4249 21.9517C33.7658 21.9517 33.0874 20.7783 33.9124 19.3392C34.3891 18.505 34.1049 17.4417 33.2708 16.965L31.6849 16.0575C30.9608 15.6267 30.0258 15.8833 29.5949 16.6075L29.4941 16.7817C28.6691 18.2208 27.3124 18.2208 26.4783 16.7817L26.3774 16.6075C25.9649 15.8833 25.0299 15.6267 24.3058 16.0575L22.7199 16.965C21.8858 17.4417 21.6016 18.5142 22.0783 19.3483C22.9124 20.7783 22.2341 21.9517 20.5749 21.9517C19.6216 21.9517 18.8333 22.7308 18.8333 23.6933V25.3067C18.8333 26.26 19.6124 27.0483 20.5749 27.0483C22.2341 27.0483 22.9124 28.2217 22.0783 29.6608C21.6016 30.495 21.8858 31.5583 22.7199 32.035L24.3058 32.9425C25.0299 33.3733 25.9649 33.1167 26.3958 32.3925L26.4966 32.2183C27.3216 30.7792 28.6783 30.7792 29.5124 32.2183L29.6133 32.3925C30.0441 33.1167 30.9791 33.3733 31.7033 32.9425L33.2891 32.035C34.1233 31.5583 34.4074 30.4858 33.9307 29.6608C33.0966 28.2217 33.7749 27.0483 35.4341 27.0483C36.3874 27.0483 37.1758 26.2692 37.1758 25.3067V23.6933C37.1666 22.74 36.3874 21.9517 35.4249 21.9517ZM27.9999 27.4792C26.3591 27.4792 25.0208 26.1408 25.0208 24.5C25.0208 22.8592 26.3591 21.5208 27.9999 21.5208C29.6408 21.5208 30.9791 22.8592 30.9791 24.5C30.9791 26.1408 29.6408 27.4792 27.9999 27.4792Z" fill="#292D32"/>
<g filter="url(#filter1_d_325_1168)">
<rect x="17" y="13.5" width="40" height="40" rx="10" fill="#FDFDFD"/>
<rect x="17.25" y="13.75" width="39.5" height="39.5" rx="9.75" stroke="#E3E3E7" stroke-width="0.5"/>
<path d="M41.5833 24.7275H32.4166C29.6666 24.7275 27.8333 26.5608 27.8333 29.3108V34.8108C27.8333 37.5608 29.6666 39.3942 32.4166 39.3942V41.3467C32.4166 42.08 33.2324 42.52 33.8374 42.1075L37.9166 39.3942H41.5833C44.3333 39.3942 46.1666 37.5608 46.1666 34.8108V29.3108C46.1666 26.5608 44.3333 24.7275 41.5833 24.7275ZM36.9999 35.8833C36.6149 35.8833 36.3124 35.5717 36.3124 35.1958C36.3124 34.82 36.6149 34.5083 36.9999 34.5083C37.3849 34.5083 37.6874 34.82 37.6874 35.1958C37.6874 35.5717 37.3849 35.8833 36.9999 35.8833ZM38.1549 32.0792C37.7974 32.3175 37.6874 32.4733 37.6874 32.73V32.9225C37.6874 33.2983 37.3758 33.61 36.9999 33.61C36.6241 33.61 36.3124 33.2983 36.3124 32.9225V32.73C36.3124 31.6667 37.0916 31.1442 37.3849 30.9425C37.7241 30.7133 37.8341 30.5575 37.8341 30.3192C37.8341 29.8608 37.4583 29.485 36.9999 29.485C36.5416 29.485 36.1658 29.8608 36.1658 30.3192C36.1658 30.695 35.8541 31.0067 35.4783 31.0067C35.1024 31.0067 34.7908 30.695 34.7908 30.3192C34.7908 29.1 35.7808 28.11 36.9999 28.11C38.2191 28.11 39.2091 29.1 39.2091 30.3192C39.2091 31.3642 38.4391 31.8867 38.1549 32.0792Z" fill="#1A1E25"/>
</g>
</g>
<rect x="16.25" y="12.75" width="39.5" height="39.5" rx="9.75" stroke="#E3E3E7" stroke-width="0.5"/>
</g>
<path d="M75.664 25.716H77.312V36.5H75.664V31.78H70.816V36.5H69.168V25.716H70.816V30.356H75.664V25.716ZM84.196 32.884H82.98C82.3827 32.884 81.9293 33.0013 81.62 33.236C81.3213 33.4707 81.172 33.7693 81.172 34.132C81.172 34.5053 81.2893 34.7987 81.524 35.012C81.7587 35.2253 82.1 35.332 82.548 35.332C83.06 35.332 83.46 35.1933 83.748 34.916C84.0467 34.628 84.196 34.2547 84.196 33.796V32.884ZM80.116 30.324V28.804C80.7453 28.4413 81.5773 28.26 82.612 28.26C84.7347 28.26 85.796 29.2893 85.796 31.348V36.5H84.244V35.54C83.828 36.2227 83.0973 36.564 82.052 36.564C81.284 36.564 80.6653 36.3453 80.196 35.908C79.7373 35.46 79.508 34.8947 79.508 34.212C79.508 33.4333 79.8013 32.8307 80.388 32.404C80.9747 31.9667 81.796 31.748 82.852 31.748H84.196V31.284C84.196 30.7293 84.0627 30.3133 83.796 30.036C83.5293 29.748 83.0867 29.604 82.468 29.604C81.604 29.604 80.82 29.844 80.116 30.324ZM89.7964 28.388V29.78C90.2764 28.7773 91.119 28.276 92.3244 28.276C93.1244 28.276 93.759 28.5213 94.2284 29.012C94.6977 29.5027 94.9324 30.1693 94.9324 31.012V36.5H93.3644V31.38C93.3644 30.8147 93.2204 30.3827 92.9324 30.084C92.655 29.7853 92.2817 29.636 91.8124 29.636C91.2577 29.636 90.783 29.8547 90.3884 30.292C89.9937 30.7187 89.7964 31.3213 89.7964 32.1V36.5H88.2284V28.388H89.7964ZM100.641 35.236C101.26 35.236 101.782 35.0013 102.209 34.532C102.636 34.0627 102.849 33.348 102.849 32.388C102.849 31.46 102.625 30.772 102.177 30.324C101.74 29.876 101.244 29.652 100.689 29.652C100.06 29.652 99.5422 29.9027 99.1369 30.404C98.7315 30.8947 98.5289 31.5987 98.5289 32.516C98.5289 33.3267 98.7262 33.9827 99.1209 34.484C99.5262 34.9853 100.033 35.236 100.641 35.236ZM102.849 25.188H104.433V36.5H102.849V35.268C102.284 36.164 101.457 36.612 100.369 36.612C99.3022 36.612 98.4595 36.212 97.8409 35.412C97.2222 34.6013 96.9129 33.6253 96.9129 32.484C96.9129 31.2147 97.2382 30.196 97.8889 29.428C98.5395 28.66 99.3769 28.276 100.401 28.276C101.457 28.276 102.273 28.724 102.849 29.62V25.188ZM109.202 36.324L105.97 28.388H107.714L108.722 31.028L109.986 34.452C110.082 34.132 110.466 32.9907 111.138 31.028L112.05 28.388H113.714L110.786 36.276C110.007 38.356 108.818 39.396 107.218 39.396C106.93 39.396 106.685 39.3693 106.482 39.316V37.972C106.653 38.0147 106.834 38.036 107.026 38.036C108.061 38.036 108.786 37.4653 109.202 36.324ZM116.913 28.388V29.684C117.371 28.7453 118.134 28.276 119.201 28.276C120.417 28.276 121.195 28.7987 121.537 29.844C121.761 29.3427 122.086 28.9587 122.513 28.692C122.939 28.4147 123.419 28.276 123.953 28.276C124.785 28.276 125.414 28.5213 125.841 29.012C126.278 29.5027 126.497 30.18 126.497 31.044V36.5H124.929V31.38C124.929 30.2173 124.459 29.636 123.521 29.636C123.051 29.636 122.63 29.844 122.257 30.26C121.894 30.676 121.713 31.2893 121.713 32.1V36.5H120.145V31.38C120.145 30.2173 119.67 29.636 118.721 29.636C118.262 29.636 117.846 29.844 117.473 30.26C117.099 30.676 116.913 31.2893 116.913 32.1V36.5H115.345V28.388H116.913ZM133.218 32.884H132.002C131.405 32.884 130.951 33.0013 130.642 33.236C130.343 33.4707 130.194 33.7693 130.194 34.132C130.194 34.5053 130.311 34.7987 130.546 35.012C130.781 35.2253 131.122 35.332 131.57 35.332C132.082 35.332 132.482 35.1933 132.77 34.916C133.069 34.628 133.218 34.2547 133.218 33.796V32.884ZM129.138 30.324V28.804C129.767 28.4413 130.599 28.26 131.634 28.26C133.757 28.26 134.818 29.2893 134.818 31.348V36.5H133.266V35.54C132.85 36.2227 132.119 36.564 131.074 36.564C130.306 36.564 129.687 36.3453 129.218 35.908C128.759 35.46 128.53 34.8947 128.53 34.212C128.53 33.4333 128.823 32.8307 129.41 32.404C129.997 31.9667 130.818 31.748 131.874 31.748H133.218V31.284C133.218 30.7293 133.085 30.3133 132.818 30.036C132.551 29.748 132.109 29.604 131.49 29.604C130.626 29.604 129.842 29.844 129.138 30.324ZM138.818 28.388V29.78C139.298 28.7773 140.141 28.276 141.346 28.276C142.146 28.276 142.781 28.5213 143.25 29.012C143.72 29.5027 143.954 30.1693 143.954 31.012V36.5H142.386V31.38C142.386 30.8147 142.242 30.3827 141.954 30.084C141.677 29.7853 141.304 29.636 140.834 29.636C140.28 29.636 139.805 29.8547 139.41 30.292C139.016 30.7187 138.818 31.3213 138.818 32.1V36.5H137.25V28.388H138.818ZM156.528 26.148V27.78C155.814 27.332 155.003 27.108 154.096 27.108C153.51 27.108 153.046 27.2413 152.704 27.508C152.374 27.764 152.208 28.1053 152.208 28.532C152.208 28.9587 152.374 29.3 152.704 29.556C153.035 29.812 153.542 30.0893 154.224 30.388C154.672 30.58 155.019 30.7453 155.264 30.884C155.52 31.0227 155.808 31.22 156.128 31.476C156.459 31.7213 156.699 32.02 156.848 32.372C157.008 32.7133 157.088 33.108 157.088 33.556C157.088 34.5053 156.752 35.252 156.08 35.796C155.408 36.34 154.539 36.612 153.472 36.612C152.288 36.612 151.307 36.3827 150.528 35.924V34.212C151.371 34.8413 152.347 35.156 153.456 35.156C154.043 35.156 154.507 35.0227 154.848 34.756C155.19 34.4787 155.36 34.1 155.36 33.62C155.36 33.332 155.259 33.0707 155.056 32.836C154.854 32.5907 154.635 32.4093 154.4 32.292C154.166 32.164 153.814 31.9933 153.344 31.78C153.067 31.652 152.87 31.5613 152.752 31.508C152.646 31.4547 152.464 31.3587 152.208 31.22C151.952 31.0813 151.76 30.964 151.632 30.868C151.515 30.772 151.366 30.6387 151.184 30.468C151.003 30.2973 150.87 30.1267 150.784 29.956C150.71 29.7853 150.635 29.588 150.56 29.364C150.496 29.1293 150.464 28.8787 150.464 28.612C150.464 27.6947 150.795 26.9693 151.456 26.436C152.128 25.9027 152.992 25.636 154.048 25.636C155.019 25.636 155.846 25.8067 156.528 26.148ZM164.344 31.86V31.572C164.323 30.964 164.157 30.484 163.848 30.132C163.539 29.7693 163.096 29.588 162.52 29.588C161.987 29.588 161.528 29.7853 161.144 30.18C160.76 30.564 160.52 31.124 160.424 31.86H164.344ZM165.352 34.66V36.068C164.755 36.4093 163.965 36.58 162.984 36.58C161.725 36.58 160.723 36.2013 159.976 35.444C159.229 34.6867 158.856 33.6947 158.856 32.468C158.856 31.1667 159.197 30.148 159.88 29.412C160.563 28.6653 161.432 28.292 162.488 28.292C163.523 28.292 164.344 28.6173 164.952 29.268C165.56 29.908 165.864 30.836 165.864 32.052C165.864 32.3827 165.832 32.7293 165.768 33.092H160.44C160.547 33.796 160.845 34.3347 161.336 34.708C161.827 35.0813 162.445 35.268 163.192 35.268C164.056 35.268 164.776 35.0653 165.352 34.66ZM169.598 28.388V29.812C169.993 28.8093 170.702 28.308 171.726 28.308C171.876 28.308 172.041 28.324 172.222 28.356V29.892C171.998 29.796 171.748 29.748 171.47 29.748C170.926 29.748 170.478 29.988 170.126 30.468C169.774 30.948 169.598 31.5187 169.598 32.18V36.5H168.03V28.388H169.598ZM175.852 36.5L172.972 28.388H174.62L175.724 31.812C175.98 32.6013 176.193 33.284 176.364 33.86C176.545 34.436 176.657 34.8147 176.7 34.996L176.764 35.268C176.86 34.7453 177.212 33.5933 177.82 31.812L178.956 28.388H180.588L177.644 36.5H175.852ZM182.375 36.5V28.388H183.959V36.5H182.375ZM182.455 26.612C182.274 26.42 182.183 26.1853 182.183 25.908C182.183 25.6307 182.274 25.396 182.455 25.204C182.647 25.012 182.882 24.916 183.159 24.916C183.436 24.916 183.671 25.012 183.863 25.204C184.055 25.396 184.151 25.6307 184.151 25.908C184.151 26.1747 184.055 26.404 183.863 26.596C183.671 26.788 183.436 26.884 183.159 26.884C182.882 26.884 182.647 26.7933 182.455 26.612ZM187.721 32.484C187.742 33.3053 187.993 33.9827 188.473 34.516C188.953 35.0387 189.625 35.3 190.489 35.3C191.129 35.3 191.726 35.124 192.281 34.772V36.18C191.758 36.5 191.091 36.66 190.281 36.66C189.011 36.66 187.998 36.26 187.241 35.46C186.483 34.66 186.105 33.6627 186.105 32.468C186.105 31.3053 186.483 30.3133 187.241 29.492C188.009 28.66 189.043 28.244 190.345 28.244C191.049 28.244 191.694 28.3933 192.281 28.692V30.132C191.758 29.8013 191.166 29.636 190.505 29.636C189.662 29.636 188.985 29.9027 188.473 30.436C187.971 30.9693 187.721 31.652 187.721 32.484ZM199.444 31.86V31.572C199.423 30.964 199.257 30.484 198.948 30.132C198.639 29.7693 198.196 29.588 197.62 29.588C197.087 29.588 196.628 29.7853 196.244 30.18C195.86 30.564 195.62 31.124 195.524 31.86H199.444ZM200.452 34.66V36.068C199.855 36.4093 199.065 36.58 198.084 36.58C196.825 36.58 195.823 36.2013 195.076 35.444C194.329 34.6867 193.956 33.6947 193.956 32.468C193.956 31.1667 194.297 30.148 194.98 29.412C195.663 28.6653 196.532 28.292 197.588 28.292C198.623 28.292 199.444 28.6173 200.052 29.268C200.66 29.908 200.964 30.836 200.964 32.052C200.964 32.3827 200.932 32.7293 200.868 33.092H195.54C195.647 33.796 195.945 34.3347 196.436 34.708C196.927 35.0813 197.545 35.268 198.292 35.268C199.156 35.268 199.876 35.0653 200.452 34.66ZM207.754 28.66V30.084C207.232 29.7747 206.56 29.62 205.738 29.62C205.365 29.62 205.066 29.7053 204.842 29.876C204.629 30.0467 204.522 30.2707 204.522 30.548C204.522 30.6227 204.528 30.6973 204.538 30.772C204.56 30.836 204.592 30.9053 204.634 30.98C204.677 31.044 204.714 31.1027 204.746 31.156C204.789 31.1987 204.853 31.2467 204.938 31.3C205.024 31.3533 205.088 31.4013 205.13 31.444C205.184 31.476 205.264 31.5187 205.37 31.572C205.488 31.6253 205.573 31.668 205.626 31.7C205.68 31.7213 205.77 31.764 205.898 31.828C206.037 31.8813 206.133 31.9187 206.186 31.94C206.816 32.2173 207.306 32.532 207.658 32.884C208.021 33.2253 208.202 33.684 208.202 34.26C208.202 34.9853 207.946 35.556 207.434 35.972C206.922 36.3773 206.229 36.58 205.354 36.58C204.394 36.58 203.594 36.42 202.954 36.1V34.612C203.701 35.0707 204.474 35.3 205.274 35.3C205.69 35.3 206.01 35.2147 206.234 35.044C206.469 34.8733 206.586 34.6493 206.586 34.372C206.586 34.1373 206.496 33.9293 206.314 33.748C206.133 33.556 205.946 33.4173 205.754 33.332C205.573 33.236 205.258 33.092 204.81 32.9C203.541 32.3773 202.906 31.6093 202.906 30.596C202.906 29.8813 203.173 29.3213 203.706 28.916C204.24 28.5107 204.906 28.308 205.706 28.308C206.581 28.308 207.264 28.4253 207.754 28.66Z" fill="#1A1E25"/>
<defs>
<filter id="filter0_d_325_1168" x="0" y="0.5" width="72" height="72" filterUnits="userSpaceOnUse" color-interpolation-filters="sRGB">
<feFlood flood-opacity="0" result="BackgroundImageFix"/>
<feColorMatrix in="SourceAlpha" type="matrix" values="0 0 0 0 0 0 0 0 0 0 0 0 0 0 0 0 0 0 127 0" result="hardAlpha"/>
<feOffset dy="4"/>
<feGaussianBlur stdDeviation="8"/>
<feComposite in2="hardAlpha" operator="out"/>
<feColorMatrix type="matrix" values="0 0 0 0 0.270833 0 0 0 0 0.270833 0 0 0 0 0.270833 0 0 0 0.15 0"/>
<feBlend mode="normal" in2="BackgroundImageFix" result="effect1_dropShadow_325_1168"/>
<feBlend mode="normal" in="SourceGraphic" in2="effect1_dropShadow_325_1168" result="shape"/>
</filter>
<filter id="filter1_d_325_1168" x="1" y="1.5" width="72" height="72" filterUnits="userSpaceOnUse" color-interpolation-filters="sRGB">
<feFlood flood-opacity="0" result="BackgroundImageFix"/>
<feColorMatrix in="SourceAlpha" type="matrix" values="0 0 0 0 0 0 0 0 0 0 0 0 0 0 0 0 0 0 127 0" result="hardAlpha"/>
<feOffset dy="4"/>
<feGaussianBlur stdDeviation="8"/>
<feComposite in2="hardAlpha" operator="out"/>
<feColorMatrix type="matrix" values="0 0 0 0 0.270833 0 0 0 0 0.270833 0 0 0 0 0.270833 0 0 0 0.15 0"/>
<feBlend mode="normal" in2="BackgroundImageFix" result="effect1_dropShadow_325_1168"/>
<feBlend mode="normal" in="SourceGraphic" in2="effect1_dropShadow_325_1168" result="shape"/>
</filter>
<clipPath id="clip0_325_1168">
<rect x="16" y="12.5" width="40" height="40" rx="10" fill="white"/>
</clipPath>
</defs>
</svg>
