<svg width="339" height="72" viewBox="0 0 339 72" fill="none" xmlns="http://www.w3.org/2000/svg">
<g filter="url(#filter0_d_325_1168)">
<g clip-path="url(#clip0_325_1168)">
<rect x="16" y="12" width="40" height="40" rx="10" fill="#FDFDFD"/>
<path d="M35.4249 21.4517C33.7658 21.4517 33.0874 20.2783 33.9124 18.8392C34.3891 18.005 34.1049 16.9417 33.2708 16.465L31.6849 15.5575C30.9608 15.1267 30.0258 15.3833 29.5949 16.1075L29.4941 16.2817C28.6691 17.7208 27.3124 17.7208 26.4783 16.2817L26.3774 16.1075C25.9649 15.3833 25.0299 15.1267 24.3058 15.5575L22.7199 16.465C21.8858 16.9417 21.6016 18.0142 22.0783 18.8483C22.9124 20.2783 22.2341 21.4517 20.5749 21.4517C19.6216 21.4517 18.8333 22.2308 18.8333 23.1933V24.8067C18.8333 25.76 19.6124 26.5483 20.5749 26.5483C22.2341 26.5483 22.9124 27.7217 22.0783 29.1608C21.6016 29.995 21.8858 31.0583 22.7199 31.535L24.3058 32.4425C25.0299 32.8733 25.9649 32.6167 26.3958 31.8925L26.4966 31.7183C27.3216 30.2792 28.6783 30.2792 29.5124 31.7183L29.6133 31.8925C30.0441 32.6167 30.9791 32.8733 31.7033 32.4425L33.2891 31.535C34.1233 31.0583 34.4074 29.9858 33.9307 29.1608C33.0966 27.7217 33.7749 26.5483 35.4341 26.5483C36.3874 26.5483 37.1758 25.7692 37.1758 24.8067V23.1933C37.1666 22.24 36.3874 21.4517 35.4249 21.4517ZM27.9999 26.9792C26.3591 26.9792 25.0208 25.6408 25.0208 24C25.0208 22.3592 26.3591 21.0208 27.9999 21.0208C29.6408 21.0208 30.9791 22.3592 30.9791 24C30.9791 25.6408 29.6408 26.9792 27.9999 26.9792Z" fill="#292D32"/>
<g filter="url(#filter1_d_325_1168)">
<rect x="17" y="13" width="40" height="40" rx="10" fill="#FDFDFD"/>
<rect x="17.25" y="13.25" width="39.5" height="39.5" rx="9.75" stroke="#E3E3E7" stroke-width="0.5"/>
<path d="M41.5833 24.2275H32.4166C29.6666 24.2275 27.8333 26.0608 27.8333 28.8108V34.3108C27.8333 37.0608 29.6666 38.8942 32.4166 38.8942V40.8467C32.4166 41.58 33.2324 42.02 33.8374 41.6075L37.9166 38.8942H41.5833C44.3333 38.8942 46.1666 37.0608 46.1666 34.3108V28.8108C46.1666 26.0608 44.3333 24.2275 41.5833 24.2275ZM36.9999 35.3833C36.6149 35.3833 36.3124 35.0717 36.3124 34.6958C36.3124 34.32 36.6149 34.0083 36.9999 34.0083C37.3849 34.0083 37.6874 34.32 37.6874 34.6958C37.6874 35.0717 37.3849 35.3833 36.9999 35.3833ZM38.1549 31.5792C37.7974 31.8175 37.6874 31.9733 37.6874 32.23V32.4225C37.6874 32.7983 37.3758 33.11 36.9999 33.11C36.6241 33.11 36.3124 32.7983 36.3124 32.4225V32.23C36.3124 31.1667 37.0916 30.6442 37.3849 30.4425C37.7241 30.2133 37.8341 30.0575 37.8341 29.8192C37.8341 29.3608 37.4583 28.985 36.9999 28.985C36.5416 28.985 36.1658 29.3608 36.1658 29.8192C36.1658 30.195 35.8541 30.5067 35.4783 30.5067C35.1024 30.5067 34.7908 30.195 34.7908 29.8192C34.7908 28.6 35.7808 27.61 36.9999 27.61C38.2191 27.61 39.2091 28.6 39.2091 29.8192C39.2091 30.8642 38.4391 31.3867 38.1549 31.5792Z" fill="#1A1E25"/>
</g>
</g>
<rect x="16.25" y="12.25" width="39.5" height="39.5" rx="9.75" stroke="#E3E3E7" stroke-width="0.5"/>
</g>
<path d="M76.96 25.664V27.28C76.4907 27.024 76.064 26.848 75.68 26.752C75.3067 26.6453 74.8267 26.592 74.24 26.592C73.1627 26.592 72.2613 26.96 71.536 27.696C70.8213 28.4213 70.464 29.3867 70.464 30.592C70.464 31.8187 70.8213 32.7947 71.536 33.52C72.2507 34.2453 73.1947 34.608 74.368 34.608C75.4027 34.608 76.272 34.3413 76.976 33.808V35.472C76.3147 35.9093 75.3973 36.128 74.224 36.128C72.6133 36.128 71.296 35.6267 70.272 34.624C69.248 33.6213 68.736 32.2773 68.736 30.592C68.736 28.96 69.248 27.632 70.272 26.608C71.3067 25.584 72.6133 25.072 74.192 25.072C75.344 25.072 76.2667 25.2693 76.96 25.664ZM82.5035 36.144C81.3088 36.144 80.3702 35.7547 79.6875 34.976C79.0048 34.1973 78.6635 33.2107 78.6635 32.016C78.6635 30.8 79.0155 29.792 79.7195 28.992C80.4235 28.1813 81.3515 27.776 82.5035 27.776C83.7408 27.776 84.6955 28.1707 85.3675 28.96C86.0395 29.7387 86.3755 30.736 86.3755 31.952C86.3755 33.168 86.0288 34.1707 85.3355 34.96C84.6528 35.7493 83.7088 36.144 82.5035 36.144ZM82.4875 29.104C81.7942 29.104 81.2555 29.3813 80.8715 29.936C80.4875 30.48 80.2955 31.1573 80.2955 31.968C80.2955 32.768 80.4928 33.4453 80.8875 34C81.2822 34.544 81.8208 34.816 82.5035 34.816C83.2288 34.816 83.7782 34.5493 84.1515 34.016C84.5355 33.4827 84.7275 32.8053 84.7275 31.984C84.7275 31.1413 84.5462 30.4533 84.1835 29.92C83.8208 29.376 83.2555 29.104 82.4875 29.104ZM90.0307 27.888V29.28C90.5107 28.2773 91.3534 27.776 92.5587 27.776C93.3587 27.776 93.9934 28.0213 94.4627 28.512C94.9321 29.0027 95.1667 29.6693 95.1667 30.512V36H93.5987V30.88C93.5987 30.3147 93.4547 29.8827 93.1667 29.584C92.8894 29.2853 92.5161 29.136 92.0467 29.136C91.4921 29.136 91.0174 29.3547 90.6227 29.792C90.2281 30.2187 90.0307 30.8213 90.0307 31.6V36H88.4627V27.888H90.0307ZM99.6272 29.104V33.568C99.6272 34.3467 100.001 34.736 100.747 34.736C101.185 34.736 101.553 34.6187 101.851 34.384V35.792C101.499 35.984 101.067 36.08 100.555 36.08C98.8806 36.08 98.0432 35.232 98.0432 33.536V29.104H96.7792V27.888H98.0432V25.904H99.6272V27.888H101.755V29.104H99.6272ZM108.172 32.384H106.956C106.358 32.384 105.905 32.5013 105.596 32.736C105.297 32.9707 105.148 33.2693 105.148 33.632C105.148 34.0053 105.265 34.2987 105.5 34.512C105.734 34.7253 106.076 34.832 106.524 34.832C107.036 34.832 107.436 34.6933 107.724 34.416C108.022 34.128 108.172 33.7547 108.172 33.296V32.384ZM104.092 29.824V28.304C104.721 27.9413 105.553 27.76 106.588 27.76C108.71 27.76 109.772 28.7893 109.772 30.848V36H108.22V35.04C107.804 35.7227 107.073 36.064 106.028 36.064C105.26 36.064 104.641 35.8453 104.172 35.408C103.713 34.96 103.484 34.3947 103.484 33.712C103.484 32.9333 103.777 32.3307 104.364 31.904C104.95 31.4667 105.772 31.248 106.828 31.248H108.172V30.784C108.172 30.2293 108.038 29.8133 107.772 29.536C107.505 29.248 107.062 29.104 106.444 29.104C105.58 29.104 104.796 29.344 104.092 29.824ZM113.372 31.984C113.393 32.8053 113.644 33.4827 114.124 34.016C114.604 34.5387 115.276 34.8 116.14 34.8C116.78 34.8 117.377 34.624 117.932 34.272V35.68C117.409 36 116.743 36.16 115.932 36.16C114.663 36.16 113.649 35.76 112.892 34.96C112.135 34.16 111.756 33.1627 111.756 31.968C111.756 30.8053 112.135 29.8133 112.892 28.992C113.66 28.16 114.695 27.744 115.996 27.744C116.7 27.744 117.345 27.8933 117.932 28.192V29.632C117.409 29.3013 116.817 29.136 116.156 29.136C115.313 29.136 114.636 29.4027 114.124 29.936C113.623 30.4693 113.372 31.152 113.372 31.984ZM122.087 29.104V33.568C122.087 34.3467 122.461 34.736 123.207 34.736C123.645 34.736 124.013 34.6187 124.311 34.384V35.792C123.959 35.984 123.527 36.08 123.015 36.08C121.341 36.08 120.503 35.232 120.503 33.536V29.104H119.239V27.888H120.503V25.904H122.087V27.888H124.215V29.104H122.087ZM137.177 25.216H138.825V36H137.177V31.28H132.329V36H130.681V25.216H132.329V29.856H137.177V25.216ZM145.709 32.384H144.493C143.896 32.384 143.442 32.5013 143.133 32.736C142.834 32.9707 142.685 33.2693 142.685 33.632C142.685 34.0053 142.802 34.2987 143.037 34.512C143.272 34.7253 143.613 34.832 144.061 34.832C144.573 34.832 144.973 34.6933 145.261 34.416C145.56 34.128 145.709 33.7547 145.709 33.296V32.384ZM141.629 29.824V28.304C142.258 27.9413 143.09 27.76 144.125 27.76C146.248 27.76 147.309 28.7893 147.309 30.848V36H145.757V35.04C145.341 35.7227 144.61 36.064 143.565 36.064C142.797 36.064 142.178 35.8453 141.709 35.408C141.25 34.96 141.021 34.3947 141.021 33.712C141.021 32.9333 141.314 32.3307 141.901 31.904C142.488 31.4667 143.309 31.248 144.365 31.248H145.709V30.784C145.709 30.2293 145.576 29.8133 145.309 29.536C145.042 29.248 144.6 29.104 143.981 29.104C143.117 29.104 142.333 29.344 141.629 29.824ZM151.309 27.888V29.28C151.789 28.2773 152.632 27.776 153.837 27.776C154.637 27.776 155.272 28.0213 155.741 28.512C156.211 29.0027 156.445 29.6693 156.445 30.512V36H154.877V30.88C154.877 30.3147 154.733 29.8827 154.445 29.584C154.168 29.2853 153.795 29.136 153.325 29.136C152.771 29.136 152.296 29.3547 151.901 29.792C151.507 30.2187 151.309 30.8213 151.309 31.6V36H149.741V27.888H151.309ZM162.154 34.736C162.773 34.736 163.295 34.5013 163.722 34.032C164.149 33.5627 164.362 32.848 164.362 31.888C164.362 30.96 164.138 30.272 163.69 29.824C163.253 29.376 162.757 29.152 162.202 29.152C161.573 29.152 161.055 29.4027 160.65 29.904C160.245 30.3947 160.042 31.0987 160.042 32.016C160.042 32.8267 160.239 33.4827 160.634 33.984C161.039 34.4853 161.546 34.736 162.154 34.736ZM164.362 24.688H165.946V36H164.362V34.768C163.797 35.664 162.97 36.112 161.882 36.112C160.815 36.112 159.973 35.712 159.354 34.912C158.735 34.1013 158.426 33.1253 158.426 31.984C158.426 30.7147 158.751 29.696 159.402 28.928C160.053 28.16 160.89 27.776 161.914 27.776C162.97 27.776 163.786 28.224 164.362 29.12V24.688ZM170.715 35.824L167.483 27.888H169.227L170.235 30.528L171.499 33.952C171.595 33.632 171.979 32.4907 172.651 30.528L173.563 27.888H175.227L172.299 35.776C171.521 37.856 170.331 38.896 168.731 38.896C168.443 38.896 168.198 38.8693 167.995 38.816V37.472C168.166 37.5147 168.347 37.536 168.539 37.536C169.574 37.536 170.299 36.9653 170.715 35.824ZM178.426 27.888V29.184C178.884 28.2453 179.647 27.776 180.714 27.776C181.93 27.776 182.708 28.2987 183.05 29.344C183.274 28.8427 183.599 28.4587 184.026 28.192C184.452 27.9147 184.932 27.776 185.466 27.776C186.298 27.776 186.927 28.0213 187.354 28.512C187.791 29.0027 188.01 29.68 188.01 30.544V36H186.442V30.88C186.442 29.7173 185.972 29.136 185.034 29.136C184.564 29.136 184.143 29.344 183.77 29.76C183.407 30.176 183.226 30.7893 183.226 31.6V36H181.658V30.88C181.658 29.7173 181.183 29.136 180.234 29.136C179.775 29.136 179.359 29.344 178.986 29.76C178.612 30.176 178.426 30.7893 178.426 31.6V36H176.858V27.888H178.426ZM194.731 32.384H193.515C192.918 32.384 192.464 32.5013 192.155 32.736C191.856 32.9707 191.707 33.2693 191.707 33.632C191.707 34.0053 191.824 34.2987 192.059 34.512C192.294 34.7253 192.635 34.832 193.083 34.832C193.595 34.832 193.995 34.6933 194.283 34.416C194.582 34.128 194.731 33.7547 194.731 33.296V32.384ZM190.651 29.824V28.304C191.28 27.9413 192.112 27.76 193.147 27.76C195.27 27.76 196.331 28.7893 196.331 30.848V36H194.779V35.04C194.363 35.7227 193.632 36.064 192.587 36.064C191.819 36.064 191.2 35.8453 190.731 35.408C190.272 34.96 190.043 34.3947 190.043 33.712C190.043 32.9333 190.336 32.3307 190.923 31.904C191.51 31.4667 192.331 31.248 193.387 31.248H194.731V30.784C194.731 30.2293 194.598 29.8133 194.331 29.536C194.064 29.248 193.622 29.104 193.003 29.104C192.139 29.104 191.355 29.344 190.651 29.824ZM200.331 27.888V29.28C200.811 28.2773 201.654 27.776 202.859 27.776C203.659 27.776 204.294 28.0213 204.763 28.512C205.233 29.0027 205.467 29.6693 205.467 30.512V36H203.899V30.88C203.899 30.3147 203.755 29.8827 203.467 29.584C203.19 29.2853 202.817 29.136 202.347 29.136C201.793 29.136 201.318 29.3547 200.923 29.792C200.529 30.2187 200.331 30.8213 200.331 31.6V36H198.763V27.888H200.331ZM218.041 25.648V27.28C217.327 26.832 216.516 26.608 215.609 26.608C215.023 26.608 214.559 26.7413 214.217 27.008C213.887 27.264 213.721 27.6053 213.721 28.032C213.721 28.4587 213.887 28.8 214.217 29.056C214.548 29.312 215.055 29.5893 215.737 29.888C216.185 30.08 216.532 30.2453 216.777 30.384C217.033 30.5227 217.321 30.72 217.641 30.976C217.972 31.2213 218.212 31.52 218.361 31.872C218.521 32.2133 218.601 32.608 218.601 33.056C218.601 34.0053 218.265 34.752 217.593 35.296C216.921 35.84 216.052 36.112 214.985 36.112C213.801 36.112 212.82 35.8827 212.041 35.424V33.712C212.884 34.3413 213.86 34.656 214.969 34.656C215.556 34.656 216.02 34.5227 216.361 34.256C216.703 33.9787 216.873 33.6 216.873 33.12C216.873 32.832 216.772 32.5707 216.569 32.336C216.367 32.0907 216.148 31.9093 215.913 31.792C215.679 31.664 215.327 31.4933 214.857 31.28C214.58 31.152 214.383 31.0613 214.265 31.008C214.159 30.9547 213.977 30.8587 213.721 30.72C213.465 30.5813 213.273 30.464 213.145 30.368C213.028 30.272 212.879 30.1387 212.697 29.968C212.516 29.7973 212.383 29.6267 212.297 29.456C212.223 29.2853 212.148 29.088 212.073 28.864C212.009 28.6293 211.977 28.3787 211.977 28.112C211.977 27.1947 212.308 26.4693 212.969 25.936C213.641 25.4027 214.505 25.136 215.561 25.136C216.532 25.136 217.359 25.3067 218.041 25.648ZM225.857 31.36V31.072C225.836 30.464 225.67 29.984 225.361 29.632C225.052 29.2693 224.609 29.088 224.033 29.088C223.5 29.088 223.041 29.2853 222.657 29.68C222.273 30.064 222.033 30.624 221.937 31.36H225.857ZM226.865 34.16V35.568C226.268 35.9093 225.478 36.08 224.497 36.08C223.238 36.08 222.236 35.7013 221.489 34.944C220.742 34.1867 220.369 33.1947 220.369 31.968C220.369 30.6667 220.71 29.648 221.393 28.912C222.076 28.1653 222.945 27.792 224.001 27.792C225.036 27.792 225.857 28.1173 226.465 28.768C227.073 29.408 227.377 30.336 227.377 31.552C227.377 31.8827 227.345 32.2293 227.281 32.592H221.953C222.06 33.296 222.358 33.8347 222.849 34.208C223.34 34.5813 223.958 34.768 224.705 34.768C225.569 34.768 226.289 34.5653 226.865 34.16ZM231.111 27.888V29.312C231.506 28.3093 232.215 27.808 233.239 27.808C233.389 27.808 233.554 27.824 233.735 27.856V29.392C233.511 29.296 233.261 29.248 232.983 29.248C232.439 29.248 231.991 29.488 231.639 29.968C231.287 30.448 231.111 31.0187 231.111 31.68V36H229.543V27.888H231.111ZM237.365 36L234.485 27.888H236.133L237.237 31.312C237.493 32.1013 237.707 32.784 237.877 33.36C238.059 33.936 238.171 34.3147 238.213 34.496L238.277 34.768C238.373 34.2453 238.725 33.0933 239.333 31.312L240.469 27.888H242.101L239.157 36H237.365ZM243.888 36V27.888H245.472V36H243.888ZM243.968 26.112C243.787 25.92 243.696 25.6853 243.696 25.408C243.696 25.1307 243.787 24.896 243.968 24.704C244.16 24.512 244.395 24.416 244.672 24.416C244.949 24.416 245.184 24.512 245.376 24.704C245.568 24.896 245.664 25.1307 245.664 25.408C245.664 25.6747 245.568 25.904 245.376 26.096C245.184 26.288 244.949 26.384 244.672 26.384C244.395 26.384 244.16 26.2933 243.968 26.112ZM249.234 31.984C249.255 32.8053 249.506 33.4827 249.986 34.016C250.466 34.5387 251.138 34.8 252.002 34.8C252.642 34.8 253.239 34.624 253.794 34.272V35.68C253.271 36 252.605 36.16 251.794 36.16C250.525 36.16 249.511 35.76 248.754 34.96C247.997 34.16 247.618 33.1627 247.618 31.968C247.618 30.8053 247.997 29.8133 248.754 28.992C249.522 28.16 250.557 27.744 251.858 27.744C252.562 27.744 253.207 27.8933 253.794 28.192V29.632C253.271 29.3013 252.679 29.136 252.018 29.136C251.175 29.136 250.498 29.4027 249.986 29.936C249.485 30.4693 249.234 31.152 249.234 31.984ZM260.957 31.36V31.072C260.936 30.464 260.77 29.984 260.461 29.632C260.152 29.2693 259.709 29.088 259.133 29.088C258.6 29.088 258.141 29.2853 257.757 29.68C257.373 30.064 257.133 30.624 257.037 31.36H260.957ZM261.965 34.16V35.568C261.368 35.9093 260.578 36.08 259.597 36.08C258.338 36.08 257.336 35.7013 256.589 34.944C255.842 34.1867 255.469 33.1947 255.469 31.968C255.469 30.6667 255.81 29.648 256.493 28.912C257.176 28.1653 258.045 27.792 259.101 27.792C260.136 27.792 260.957 28.1173 261.565 28.768C262.173 29.408 262.477 30.336 262.477 31.552C262.477 31.8827 262.445 32.2293 262.381 32.592H257.053C257.16 33.296 257.458 33.8347 257.949 34.208C258.44 34.5813 259.058 34.768 259.805 34.768C260.669 34.768 261.389 34.5653 261.965 34.16ZM269.267 28.16V29.584C268.745 29.2747 268.073 29.12 267.251 29.12C266.878 29.12 266.579 29.2053 266.355 29.376C266.142 29.5467 266.035 29.7707 266.035 30.048C266.035 30.1227 266.041 30.1973 266.051 30.272C266.073 30.336 266.105 30.4053 266.147 30.48C266.19 30.544 266.227 30.6027 266.259 30.656C266.302 30.6987 266.366 30.7467 266.451 30.8C266.537 30.8533 266.601 30.9013 266.643 30.944C266.697 30.976 266.777 31.0187 266.883 31.072C267.001 31.1253 267.086 31.168 267.139 31.2C267.193 31.2213 267.283 31.264 267.411 31.328C267.55 31.3813 267.646 31.4187 267.699 31.44C268.329 31.7173 268.819 32.032 269.171 32.384C269.534 32.7253 269.715 33.184 269.715 33.76C269.715 34.4853 269.459 35.056 268.947 35.472C268.435 35.8773 267.742 36.08 266.867 36.08C265.907 36.08 265.107 35.92 264.467 35.6V34.112C265.214 34.5707 265.987 34.8 266.787 34.8C267.203 34.8 267.523 34.7147 267.747 34.544C267.982 34.3733 268.099 34.1493 268.099 33.872C268.099 33.6373 268.009 33.4293 267.827 33.248C267.646 33.056 267.459 32.9173 267.267 32.832C267.086 32.736 266.771 32.592 266.323 32.4C265.054 31.8773 264.419 31.1093 264.419 30.096C264.419 29.3813 264.686 28.8213 265.219 28.416C265.753 28.0107 266.419 27.808 267.219 27.808C268.094 27.808 268.777 27.9253 269.267 28.16Z" fill="#1A1E25"/>
<defs>
<filter id="filter0_d_325_1168" x="0" y="0" width="72" height="72" filterUnits="userSpaceOnUse" color-interpolation-filters="sRGB">
<feFlood flood-opacity="0" result="BackgroundImageFix"/>
<feColorMatrix in="SourceAlpha" type="matrix" values="0 0 0 0 0 0 0 0 0 0 0 0 0 0 0 0 0 0 127 0" result="hardAlpha"/>
<feOffset dy="4"/>
<feGaussianBlur stdDeviation="8"/>
<feComposite in2="hardAlpha" operator="out"/>
<feColorMatrix type="matrix" values="0 0 0 0 0.270833 0 0 0 0 0.270833 0 0 0 0 0.270833 0 0 0 0.15 0"/>
<feBlend mode="normal" in2="BackgroundImageFix" result="effect1_dropShadow_325_1168"/>
<feBlend mode="normal" in="SourceGraphic" in2="effect1_dropShadow_325_1168" result="shape"/>
</filter>
<filter id="filter1_d_325_1168" x="1" y="1" width="72" height="72" filterUnits="userSpaceOnUse" color-interpolation-filters="sRGB">
<feFlood flood-opacity="0" result="BackgroundImageFix"/>
<feColorMatrix in="SourceAlpha" type="matrix" values="0 0 0 0 0 0 0 0 0 0 0 0 0 0 0 0 0 0 127 0" result="hardAlpha"/>
<feOffset dy="4"/>
<feGaussianBlur stdDeviation="8"/>
<feComposite in2="hardAlpha" operator="out"/>
<feColorMatrix type="matrix" values="0 0 0 0 0.270833 0 0 0 0 0.270833 0 0 0 0 0.270833 0 0 0 0.15 0"/>
<feBlend mode="normal" in2="BackgroundImageFix" result="effect1_dropShadow_325_1168"/>
<feBlend mode="normal" in="SourceGraphic" in2="effect1_dropShadow_325_1168" result="shape"/>
</filter>
<clipPath id="clip0_325_1168">
<rect x="16" y="12" width="40" height="40" rx="10" fill="white"/>
</clipPath>
</defs>
</svg>
