<svg width="339" height="72" viewBox="0 0 339 72" fill="none" xmlns="http://www.w3.org/2000/svg">
<g filter="url(#filter0_d_62_1209)">
<rect x="16" y="12" width="40" height="40" rx="10" fill="#FDFDFD"/>
<rect x="16.25" y="12.25" width="39.5" height="39.5" rx="9.75" stroke="#E3E3E7" stroke-width="0.5"/>
<path d="M45.1666 27.9208C45.1666 28.5258 44.6716 29.0208 44.0666 29.0208H27.9333C27.3283 29.0208 26.8333 28.5258 26.8333 27.9208V27.9117C26.8333 25.8125 28.5291 24.1167 30.6283 24.1167H41.3624C43.4616 24.1167 45.1666 25.8217 45.1666 27.9208Z" fill="#1A1E25"/>
<path d="M26.8333 31.4958V36.0883C26.8333 38.1875 28.5291 39.8833 30.6283 39.8833H41.3624C43.4616 39.8833 45.1666 38.1783 45.1666 36.0792V31.4958C45.1666 30.8908 44.6716 30.3958 44.0666 30.3958H27.9333C27.3283 30.3958 26.8333 30.8908 26.8333 31.4958ZM32.3333 36.8125H30.4999C30.1241 36.8125 29.8124 36.5008 29.8124 36.125C29.8124 35.7492 30.1241 35.4375 30.4999 35.4375H32.3333C32.7091 35.4375 33.0208 35.7492 33.0208 36.125C33.0208 36.5008 32.7091 36.8125 32.3333 36.8125ZM38.2916 36.8125H34.6249C34.2491 36.8125 33.9374 36.5008 33.9374 36.125C33.9374 35.7492 34.2491 35.4375 34.6249 35.4375H38.2916C38.6674 35.4375 38.9791 35.7492 38.9791 36.125C38.9791 36.5008 38.6674 36.8125 38.2916 36.8125Z" fill="#1A1E25"/>
</g>
<path d="M70.816 30.816H72.224C73.0027 30.816 73.5947 30.624 74 30.24C74.416 29.856 74.624 29.3493 74.624 28.72C74.624 28.0587 74.416 27.536 74 27.152C73.584 26.768 72.9813 26.576 72.192 26.576H70.816V30.816ZM69.168 25.216H72.256C73.4933 25.216 74.4747 25.5467 75.2 26.208C75.9253 26.8587 76.288 27.696 76.288 28.72C76.288 29.744 75.92 30.576 75.184 31.216C74.4587 31.856 73.5147 32.176 72.352 32.176H70.816V36H69.168V25.216ZM82.4929 32.384H81.2769C80.6795 32.384 80.2262 32.5013 79.9169 32.736C79.6182 32.9707 79.4689 33.2693 79.4689 33.632C79.4689 34.0053 79.5862 34.2987 79.8209 34.512C80.0555 34.7253 80.3969 34.832 80.8449 34.832C81.3569 34.832 81.7569 34.6933 82.0449 34.416C82.3435 34.128 82.4929 33.7547 82.4929 33.296V32.384ZM78.4129 29.824V28.304C79.0422 27.9413 79.8742 27.76 80.9089 27.76C83.0315 27.76 84.0929 28.7893 84.0929 30.848V36H82.5409V35.04C82.1249 35.7227 81.3942 36.064 80.3489 36.064C79.5809 36.064 78.9622 35.8453 78.4929 35.408C78.0342 34.96 77.8049 34.3947 77.8049 33.712C77.8049 32.9333 78.0982 32.3307 78.6849 31.904C79.2715 31.4667 80.0929 31.248 81.1489 31.248H82.4929V30.784C82.4929 30.2293 82.3595 29.8133 82.0929 29.536C81.8262 29.248 81.3835 29.104 80.7649 29.104C79.9009 29.104 79.1169 29.344 78.4129 29.824ZM88.7652 35.824L85.5332 27.888H87.2772L88.2852 30.528L89.5492 33.952C89.6452 33.632 90.0292 32.4907 90.7012 30.528L91.6132 27.888H93.2772L90.3492 35.776C89.5706 37.856 88.3812 38.896 86.7812 38.896C86.4932 38.896 86.2479 38.8693 86.0452 38.816V37.472C86.2159 37.5147 86.3972 37.536 86.5892 37.536C87.6239 37.536 88.3492 36.9653 88.7652 35.824ZM96.4757 27.888V29.184C96.9344 28.2453 97.6971 27.776 98.7637 27.776C99.9797 27.776 100.758 28.2987 101.1 29.344C101.324 28.8427 101.649 28.4587 102.076 28.192C102.502 27.9147 102.982 27.776 103.516 27.776C104.348 27.776 104.977 28.0213 105.404 28.512C105.841 29.0027 106.06 29.68 106.06 30.544V36H104.492V30.88C104.492 29.7173 104.022 29.136 103.084 29.136C102.614 29.136 102.193 29.344 101.82 29.76C101.457 30.176 101.276 30.7893 101.276 31.6V36H99.7077V30.88C99.7077 29.7173 99.2331 29.136 98.2837 29.136C97.8251 29.136 97.4091 29.344 97.0357 29.76C96.6624 30.176 96.4757 30.7893 96.4757 31.6V36H94.9077V27.888H96.4757ZM113.549 31.36V31.072C113.528 30.464 113.362 29.984 113.053 29.632C112.744 29.2693 112.301 29.088 111.725 29.088C111.192 29.088 110.733 29.2853 110.349 29.68C109.965 30.064 109.725 30.624 109.629 31.36H113.549ZM114.557 34.16V35.568C113.96 35.9093 113.17 36.08 112.189 36.08C110.93 36.08 109.928 35.7013 109.181 34.944C108.434 34.1867 108.061 33.1947 108.061 31.968C108.061 30.6667 108.402 29.648 109.085 28.912C109.768 28.1653 110.637 27.792 111.693 27.792C112.728 27.792 113.549 28.1173 114.157 28.768C114.765 29.408 115.069 30.336 115.069 31.552C115.069 31.8827 115.037 32.2293 114.973 32.592H109.645C109.752 33.296 110.05 33.8347 110.541 34.208C111.032 34.5813 111.65 34.768 112.397 34.768C113.261 34.768 113.981 34.5653 114.557 34.16ZM118.803 27.888V29.28C119.283 28.2773 120.126 27.776 121.331 27.776C122.131 27.776 122.766 28.0213 123.235 28.512C123.705 29.0027 123.939 29.6693 123.939 30.512V36H122.371V30.88C122.371 30.3147 122.227 29.8827 121.939 29.584C121.662 29.2853 121.289 29.136 120.819 29.136C120.265 29.136 119.79 29.3547 119.395 29.792C119.001 30.2187 118.803 30.8213 118.803 31.6V36H117.235V27.888H118.803ZM128.4 29.104V33.568C128.4 34.3467 128.773 34.736 129.52 34.736C129.957 34.736 130.325 34.6187 130.624 34.384V35.792C130.272 35.984 129.84 36.08 129.328 36.08C127.653 36.08 126.816 35.232 126.816 33.536V29.104H125.552V27.888H126.816V25.904H128.4V27.888H130.528V29.104H128.4ZM140.21 34.736C140.828 34.736 141.351 34.5013 141.778 34.032C142.204 33.5627 142.418 32.848 142.418 31.888C142.418 30.96 142.194 30.272 141.746 29.824C141.308 29.376 140.812 29.152 140.258 29.152C139.628 29.152 139.111 29.4027 138.706 29.904C138.3 30.3947 138.098 31.0987 138.098 32.016C138.098 32.8267 138.295 33.4827 138.69 33.984C139.095 34.4853 139.602 34.736 140.21 34.736ZM142.418 24.688H144.002V36H142.418V34.768C141.852 35.664 141.026 36.112 139.938 36.112C138.871 36.112 138.028 35.712 137.41 34.912C136.791 34.1013 136.482 33.1253 136.482 31.984C136.482 30.7147 136.807 29.696 137.458 28.928C138.108 28.16 138.946 27.776 139.97 27.776C141.026 27.776 141.842 28.224 142.418 29.12V24.688ZM151.571 31.36V31.072C151.55 30.464 151.384 29.984 151.075 29.632C150.766 29.2693 150.323 29.088 149.747 29.088C149.214 29.088 148.755 29.2853 148.371 29.68C147.987 30.064 147.747 30.624 147.651 31.36H151.571ZM152.579 34.16V35.568C151.982 35.9093 151.192 36.08 150.211 36.08C148.952 36.08 147.95 35.7013 147.203 34.944C146.456 34.1867 146.083 33.1947 146.083 31.968C146.083 30.6667 146.424 29.648 147.107 28.912C147.79 28.1653 148.659 27.792 149.715 27.792C150.75 27.792 151.571 28.1173 152.179 28.768C152.787 29.408 153.091 30.336 153.091 31.552C153.091 31.8827 153.059 32.2293 152.995 32.592H147.667C147.774 33.296 148.072 33.8347 148.563 34.208C149.054 34.5813 149.672 34.768 150.419 34.768C151.283 34.768 152.003 34.5653 152.579 34.16ZM157.289 29.104V33.568C157.289 34.3467 157.662 34.736 158.409 34.736C158.846 34.736 159.214 34.6187 159.513 34.384V35.792C159.161 35.984 158.729 36.08 158.217 36.08C156.542 36.08 155.705 35.232 155.705 33.536V29.104H154.441V27.888H155.705V25.904H157.289V27.888H159.417V29.104H157.289ZM165.833 32.384H164.617C164.02 32.384 163.567 32.5013 163.257 32.736C162.959 32.9707 162.809 33.2693 162.809 33.632C162.809 34.0053 162.927 34.2987 163.161 34.512C163.396 34.7253 163.737 34.832 164.185 34.832C164.697 34.832 165.097 34.6933 165.385 34.416C165.684 34.128 165.833 33.7547 165.833 33.296V32.384ZM161.753 29.824V28.304C162.383 27.9413 163.215 27.76 164.249 27.76C166.372 27.76 167.433 28.7893 167.433 30.848V36H165.881V35.04C165.465 35.7227 164.735 36.064 163.689 36.064C162.921 36.064 162.303 35.8453 161.833 35.408C161.375 34.96 161.145 34.3947 161.145 33.712C161.145 32.9333 161.439 32.3307 162.025 31.904C162.612 31.4667 163.433 31.248 164.489 31.248H165.833V30.784C165.833 30.2293 165.7 29.8133 165.433 29.536C165.167 29.248 164.724 29.104 164.105 29.104C163.241 29.104 162.457 29.344 161.753 29.824ZM169.93 36V27.888H171.514V36H169.93ZM170.01 26.112C169.829 25.92 169.738 25.6853 169.738 25.408C169.738 25.1307 169.829 24.896 170.01 24.704C170.202 24.512 170.437 24.416 170.714 24.416C170.991 24.416 171.226 24.512 171.418 24.704C171.61 24.896 171.706 25.1307 171.706 25.408C171.706 25.6747 171.61 25.904 171.418 26.096C171.226 26.288 170.991 26.384 170.714 26.384C170.437 26.384 170.202 26.2933 170.01 26.112ZM174.172 36V24.688H175.756V36H174.172ZM182.974 28.16V29.584C182.451 29.2747 181.779 29.12 180.958 29.12C180.584 29.12 180.286 29.2053 180.062 29.376C179.848 29.5467 179.742 29.7707 179.742 30.048C179.742 30.1227 179.747 30.1973 179.758 30.272C179.779 30.336 179.811 30.4053 179.854 30.48C179.896 30.544 179.934 30.6027 179.966 30.656C180.008 30.6987 180.072 30.7467 180.158 30.8C180.243 30.8533 180.307 30.9013 180.35 30.944C180.403 30.976 180.483 31.0187 180.59 31.072C180.707 31.1253 180.792 31.168 180.846 31.2C180.899 31.2213 180.99 31.264 181.118 31.328C181.256 31.3813 181.352 31.4187 181.406 31.44C182.035 31.7173 182.526 32.032 182.878 32.384C183.24 32.7253 183.422 33.184 183.422 33.76C183.422 34.4853 183.166 35.056 182.654 35.472C182.142 35.8773 181.448 36.08 180.574 36.08C179.614 36.08 178.814 35.92 178.174 35.6V34.112C178.92 34.5707 179.694 34.8 180.494 34.8C180.91 34.8 181.23 34.7147 181.454 34.544C181.688 34.3733 181.806 34.1493 181.806 33.872C181.806 33.6373 181.715 33.4293 181.534 33.248C181.352 33.056 181.166 32.9173 180.974 32.832C180.792 32.736 180.478 32.592 180.03 32.4C178.76 31.8773 178.126 31.1093 178.126 30.096C178.126 29.3813 178.392 28.8213 178.926 28.416C179.459 28.0107 180.126 27.808 180.926 27.808C181.8 27.808 182.483 27.9253 182.974 28.16Z" fill="#1A1E25"/>
<defs>
<filter id="filter0_d_62_1209" x="0" y="0" width="72" height="72" filterUnits="userSpaceOnUse" color-interpolation-filters="sRGB">
<feFlood flood-opacity="0" result="BackgroundImageFix"/>
<feColorMatrix in="SourceAlpha" type="matrix" values="0 0 0 0 0 0 0 0 0 0 0 0 0 0 0 0 0 0 127 0" result="hardAlpha"/>
<feOffset dy="4"/>
<feGaussianBlur stdDeviation="8"/>
<feComposite in2="hardAlpha" operator="out"/>
<feColorMatrix type="matrix" values="0 0 0 0 0.270833 0 0 0 0 0.270833 0 0 0 0 0.270833 0 0 0 0.15 0"/>
<feBlend mode="normal" in2="BackgroundImageFix" result="effect1_dropShadow_62_1209"/>
<feBlend mode="normal" in="SourceGraphic" in2="effect1_dropShadow_62_1209" result="shape"/>
</filter>
</defs>
</svg>
