<svg width="146" height="72" viewBox="0 0 146 72" fill="none" xmlns="http://www.w3.org/2000/svg">
<g filter="url(#filter0_d_62_1195)">
<rect x="16" y="12" width="40" height="40" rx="10" fill="#FDFDFD"/>
<rect x="16.25" y="12.25" width="39.5" height="39.5" rx="9.75" stroke="#E3E3E7" stroke-width="0.5"/>
<path d="M43.4249 29.4517C41.7658 29.4517 41.0874 28.2783 41.9124 26.8392C42.3891 26.005 42.1049 24.9417 41.2708 24.465L39.6849 23.5575C38.9608 23.1267 38.0258 23.3833 37.5949 24.1075L37.4941 24.2817C36.6691 25.7208 35.3124 25.7208 34.4783 24.2817L34.3774 24.1075C33.9649 23.3833 33.0299 23.1267 32.3058 23.5575L30.7199 24.465C29.8858 24.9417 29.6016 26.0142 30.0783 26.8483C30.9124 28.2783 30.2341 29.4517 28.5749 29.4517C27.6216 29.4517 26.8333 30.2308 26.8333 31.1933V32.8067C26.8333 33.76 27.6124 34.5483 28.5749 34.5483C30.2341 34.5483 30.9124 35.7217 30.0783 37.1608C29.6016 37.995 29.8858 39.0583 30.7199 39.535L32.3058 40.4425C33.0299 40.8733 33.9649 40.6167 34.3958 39.8925L34.4966 39.7183C35.3216 38.2792 36.6783 38.2792 37.5124 39.7183L37.6133 39.8925C38.0441 40.6167 38.9791 40.8733 39.7033 40.4425L41.2891 39.535C42.1233 39.0583 42.4074 37.9858 41.9307 37.1608C41.0966 35.7217 41.7749 34.5483 43.4341 34.5483C44.3874 34.5483 45.1758 33.7692 45.1758 32.8067V31.1933C45.1666 30.24 44.3874 29.4517 43.4249 29.4517ZM35.9999 34.9792C34.3591 34.9792 33.0208 33.6408 33.0208 32C33.0208 30.3592 34.3591 29.0208 35.9999 29.0208C37.6408 29.0208 38.9791 30.3592 38.9791 32C38.9791 33.6408 37.6408 34.9792 35.9999 34.9792Z" fill="#292D32"/>
</g>
<path d="M74.992 25.648V27.28C74.2773 26.832 73.4667 26.608 72.56 26.608C71.9733 26.608 71.5093 26.7413 71.168 27.008C70.8373 27.264 70.672 27.6053 70.672 28.032C70.672 28.4587 70.8373 28.8 71.168 29.056C71.4987 29.312 72.0053 29.5893 72.688 29.888C73.136 30.08 73.4827 30.2453 73.728 30.384C73.984 30.5227 74.272 30.72 74.592 30.976C74.9227 31.2213 75.1627 31.52 75.312 31.872C75.472 32.2133 75.552 32.608 75.552 33.056C75.552 34.0053 75.216 34.752 74.544 35.296C73.872 35.84 73.0027 36.112 71.936 36.112C70.752 36.112 69.7707 35.8827 68.992 35.424V33.712C69.8347 34.3413 70.8107 34.656 71.92 34.656C72.5067 34.656 72.9707 34.5227 73.312 34.256C73.6533 33.9787 73.824 33.6 73.824 33.12C73.824 32.832 73.7227 32.5707 73.52 32.336C73.3173 32.0907 73.0987 31.9093 72.864 31.792C72.6293 31.664 72.2773 31.4933 71.808 31.28C71.5307 31.152 71.3333 31.0613 71.216 31.008C71.1093 30.9547 70.928 30.8587 70.672 30.72C70.416 30.5813 70.224 30.464 70.096 30.368C69.9787 30.272 69.8293 30.1387 69.648 29.968C69.4667 29.7973 69.3333 29.6267 69.248 29.456C69.1733 29.2853 69.0987 29.088 69.024 28.864C68.96 28.6293 68.928 28.3787 68.928 28.112C68.928 27.1947 69.2587 26.4693 69.92 25.936C70.592 25.4027 71.456 25.136 72.512 25.136C73.4827 25.136 74.3093 25.3067 74.992 25.648ZM82.8077 31.36V31.072C82.7864 30.464 82.6211 29.984 82.3117 29.632C82.0024 29.2693 81.5597 29.088 80.9837 29.088C80.4504 29.088 79.9917 29.2853 79.6077 29.68C79.2237 30.064 78.9837 30.624 78.8877 31.36H82.8077ZM83.8158 34.16V35.568C83.2184 35.9093 82.4291 36.08 81.4478 36.08C80.1891 36.08 79.1864 35.7013 78.4397 34.944C77.6931 34.1867 77.3197 33.1947 77.3197 31.968C77.3197 30.6667 77.6611 29.648 78.3437 28.912C79.0264 28.1653 79.8957 27.792 80.9517 27.792C81.9864 27.792 82.8077 28.1173 83.4158 28.768C84.0238 29.408 84.3278 30.336 84.3278 31.552C84.3278 31.8827 84.2958 32.2293 84.2318 32.592H78.9037C79.0104 33.296 79.3091 33.8347 79.7997 34.208C80.2904 34.5813 80.9091 34.768 81.6557 34.768C82.5197 34.768 83.2397 34.5653 83.8158 34.16ZM88.526 29.104V33.568C88.526 34.3467 88.8993 34.736 89.646 34.736C90.0833 34.736 90.4513 34.6187 90.75 34.384V35.792C90.398 35.984 89.966 36.08 89.454 36.08C87.7793 36.08 86.942 35.232 86.942 33.536V29.104H85.678V27.888H86.942V25.904H88.526V27.888H90.654V29.104H88.526ZM94.8304 29.104V33.568C94.8304 34.3467 95.2037 34.736 95.9504 34.736C96.3877 34.736 96.7557 34.6187 97.0544 34.384V35.792C96.7024 35.984 96.2704 36.08 95.7584 36.08C94.0837 36.08 93.2464 35.232 93.2464 33.536V29.104H91.9824V27.888H93.2464V25.904H94.8304V27.888H96.9584V29.104H94.8304ZM99.1668 36V27.888H100.751V36H99.1668ZM99.2468 26.112C99.0654 25.92 98.9748 25.6853 98.9748 25.408C98.9748 25.1307 99.0654 24.896 99.2468 24.704C99.4388 24.512 99.6734 24.416 99.9508 24.416C100.228 24.416 100.463 24.512 100.655 24.704C100.847 24.896 100.943 25.1307 100.943 25.408C100.943 25.6747 100.847 25.904 100.655 26.096C100.463 26.288 100.228 26.384 99.9508 26.384C99.6734 26.384 99.4388 26.2933 99.2468 26.112ZM104.913 27.888V29.28C105.393 28.2773 106.235 27.776 107.441 27.776C108.241 27.776 108.875 28.0213 109.345 28.512C109.814 29.0027 110.049 29.6693 110.049 30.512V36H108.481V30.88C108.481 30.3147 108.337 29.8827 108.049 29.584C107.771 29.2853 107.398 29.136 106.929 29.136C106.374 29.136 105.899 29.3547 105.505 29.792C105.11 30.2187 104.913 30.8213 104.913 31.6V36H103.345V27.888H104.913ZM115.677 34.432C116.232 34.432 116.712 34.2187 117.117 33.792C117.533 33.3547 117.741 32.7467 117.741 31.968C117.741 31.008 117.544 30.2987 117.149 29.84C116.765 29.3813 116.296 29.152 115.741 29.152C115.112 29.152 114.616 29.4027 114.253 29.904C113.89 30.3947 113.709 31.0453 113.709 31.856C113.709 32.6987 113.901 33.3387 114.285 33.776C114.68 34.2133 115.144 34.432 115.677 34.432ZM117.741 27.888H119.309V35.312C119.309 36.56 118.952 37.4987 118.237 38.128C117.533 38.768 116.626 39.088 115.517 39.088C114.472 39.088 113.592 38.912 112.877 38.56V36.976C113.56 37.424 114.386 37.648 115.357 37.648C116.946 37.648 117.741 36.864 117.741 35.296V34.464C117.218 35.3387 116.434 35.776 115.389 35.776C114.472 35.776 113.688 35.44 113.037 34.768C112.386 34.0853 112.061 33.1253 112.061 31.888C112.061 30.6933 112.365 29.712 112.973 28.944C113.581 28.1653 114.386 27.776 115.389 27.776C116.466 27.776 117.25 28.2347 117.741 29.152V27.888ZM126.359 28.16V29.584C125.836 29.2747 125.164 29.12 124.343 29.12C123.969 29.12 123.671 29.2053 123.447 29.376C123.233 29.5467 123.127 29.7707 123.127 30.048C123.127 30.1227 123.132 30.1973 123.143 30.272C123.164 30.336 123.196 30.4053 123.239 30.48C123.281 30.544 123.319 30.6027 123.351 30.656C123.393 30.6987 123.457 30.7467 123.543 30.8C123.628 30.8533 123.692 30.9013 123.735 30.944C123.788 30.976 123.868 31.0187 123.975 31.072C124.092 31.1253 124.177 31.168 124.231 31.2C124.284 31.2213 124.375 31.264 124.503 31.328C124.641 31.3813 124.737 31.4187 124.791 31.44C125.42 31.7173 125.911 32.032 126.263 32.384C126.625 32.7253 126.807 33.184 126.807 33.76C126.807 34.4853 126.551 35.056 126.039 35.472C125.527 35.8773 124.833 36.08 123.959 36.08C122.999 36.08 122.199 35.92 121.559 35.6V34.112C122.305 34.5707 123.079 34.8 123.879 34.8C124.295 34.8 124.615 34.7147 124.839 34.544C125.073 34.3733 125.191 34.1493 125.191 33.872C125.191 33.6373 125.1 33.4293 124.919 33.248C124.737 33.056 124.551 32.9173 124.359 32.832C124.177 32.736 123.863 32.592 123.415 32.4C122.145 31.8773 121.511 31.1093 121.511 30.096C121.511 29.3813 121.777 28.8213 122.311 28.416C122.844 28.0107 123.511 27.808 124.311 27.808C125.185 27.808 125.868 27.9253 126.359 28.16Z" fill="#1A1E25"/>
<defs>
<filter id="filter0_d_62_1195" x="0" y="0" width="72" height="72" filterUnits="userSpaceOnUse" color-interpolation-filters="sRGB">
<feFlood flood-opacity="0" result="BackgroundImageFix"/>
<feColorMatrix in="SourceAlpha" type="matrix" values="0 0 0 0 0 0 0 0 0 0 0 0 0 0 0 0 0 0 127 0" result="hardAlpha"/>
<feOffset dy="4"/>
<feGaussianBlur stdDeviation="8"/>
<feComposite in2="hardAlpha" operator="out"/>
<feColorMatrix type="matrix" values="0 0 0 0 0.270833 0 0 0 0 0.270833 0 0 0 0 0.270833 0 0 0 0.15 0"/>
<feBlend mode="normal" in2="BackgroundImageFix" result="effect1_dropShadow_62_1195"/>
<feBlend mode="normal" in="SourceGraphic" in2="effect1_dropShadow_62_1195" result="shape"/>
</filter>
</defs>
</svg>
